<?xml version="1.0" encoding="UTF-8"?><svg xmlns="http://www.w3.org/2000/svg" xmlns:xlink="http://www.w3.org/1999/xlink" height="376.6" preserveAspectRatio="xMidYMid meet" version="1.0" viewBox="0.0 -0.0 298.1 376.6" width="298.1" zoomAndPan="magnify"><defs><clipPath id="a"><path d="M 175 312 L 247 312 L 247 376.53125 L 175 376.53125 Z M 175 312"/></clipPath><clipPath id="b"><path d="M 213 194 L 294.101562 194 L 294.101562 290 L 213 290 Z M 213 194"/></clipPath></defs><g><g id="change1_1"><path d="M 160.5 204.496094 C 177.898438 196.296875 186.601562 192.296875 186.601562 192.296875 C 186.601562 192.296875 178.5 175.195312 162.300781 140.898438 C 143 102.898438 123.199219 117.796875 99.101562 109.496094 C 87.398438 105.496094 85.398438 98.496094 69.800781 101.695312 C 73.398438 103.097656 75.5 105.898438 77.101562 108.695312 C 83.601562 120.097656 84 115.796875 93.5 122.996094 C 103.5 130.496094 106.699219 149.898438 122.398438 164.496094 C 147.800781 191.097656 160.5 204.496094 160.5 204.496094" fill="#f9e017" fill-rule="evenodd"/></g><g id="change2_1"><path d="M 72.699219 101.195312 C 71.800781 101.296875 70.898438 101.496094 69.898438 101.695312 C 71.199219 102.195312 72.300781 102.898438 73.199219 103.695312 C 83.699219 106.496094 93.800781 116.996094 101.699219 125.097656 C 104.800781 128.296875 107.5 131.097656 109.898438 133.097656 C 117 138.898438 123.601562 142.195312 129 144.796875 C 131.699219 146.097656 134.101562 147.296875 136 148.496094 C 141 151.796875 143 155.195312 145.699219 159.796875 C 150 167.195312 156 177.496094 177.601562 194.496094 L 179 192.695312 C 157.800781 175.898438 151.898438 165.796875 147.699219 158.597656 C 144.800781 153.695312 142.699219 149.996094 137.300781 146.496094 C 135.300781 145.195312 132.800781 143.996094 130.101562 142.597656 C 124.800781 139.996094 118.300781 136.796875 111.5 131.195312 C 109.300781 129.398438 106.601562 126.597656 103.5 123.398438 C 94.898438 114.898438 84.199219 103.695312 72.699219 101.195312" fill="#832b99" fill-rule="evenodd"/></g><g id="change3_1"><path d="M 158.5 122.195312 C 160.199219 142.097656 150.5 148.296875 129.5 140.996094 C 130.5 116.597656 129.199219 115.695312 114.300781 101.496094 C 105.699219 93.296875 110.800781 87.796875 105.800781 79.996094 C 103.699219 76.695312 100.5 74.695312 97.601562 72.597656 C 93.101562 69.398438 89.101562 65.796875 89.800781 56.296875 C 97.800781 64.398438 107.398438 63.398438 115.601562 67.996094 C 124.800781 72.996094 123.300781 78.695312 129.5 84.496094 C 142.5 96.496094 158.101562 83.195312 158.5 122.195312" fill="#4142a1" fill-rule="evenodd"/></g><g id="change4_1"><path d="M 90.601562 64.195312 C 89.898438 62.195312 89.601562 59.695312 89.800781 56.695312 C 91.398438 65.097656 97.800781 66.996094 104.300781 68.898438 C 107.800781 69.898438 111.300781 70.996094 114.398438 72.996094 C 119.898438 76.695312 120.800781 80.695312 121.699219 84.695312 C 122.300781 87.296875 122.898438 89.996094 125 92.398438 C 127.601562 95.296875 132.101562 96.398438 136.800781 97.597656 C 144.800781 99.597656 153.101562 101.695312 154.300781 111.996094 L 152.101562 112.296875 C 151.101562 103.597656 143.601562 101.695312 136.300781 99.898438 C 131.199219 98.597656 126.300781 97.398438 123.300781 93.996094 C 120.800781 91.195312 120.101562 88.195312 119.5 85.296875 C 118.699219 81.695312 117.898438 78.195312 113.199219 74.996094 C 110.5 73.195312 107.101562 72.195312 103.699219 71.195312 C 98.601562 69.496094 93.699219 68.097656 90.601562 64.195312" fill="#e12c9f" fill-rule="evenodd"/></g><g id="change2_2"><path d="M 183.601562 108.996094 C 183.300781 156.097656 177.300781 176.195312 165.601562 169.097656 C 129 148.898438 167.101562 73.695312 154.5 43.898438 C 173.601562 60.296875 183.300781 81.996094 183.601562 108.996094" fill="#832b99" fill-rule="evenodd"/></g><g id="change4_2"><path d="M 163.5 52.796875 C 164.898438 54.398438 166.199219 55.996094 167.398438 57.695312 C 170.398438 69.496094 169 82.195312 167.5 96.296875 C 165.5 114.695312 163.300781 135.496094 170.5 159.296875 L 168.300781 159.996094 C 160.898438 135.695312 163.199219 114.695312 165.199219 96.097656 C 167 79.898438 168.601562 65.695312 163.5 52.796875" fill="#e12c9f" fill-rule="evenodd"/></g><g id="change4_3"><path d="M 179.300781 115.796875 C 185.101562 63.796875 141.699219 55.695312 151.898438 11.296875 C 169.300781 46.597656 192.5 66.898438 179.300781 115.796875" fill="#e12c9f" fill-rule="evenodd"/></g><g id="change2_3"><path d="M 151.300781 14.296875 C 151.5 13.296875 151.699219 12.296875 151.898438 11.296875 C 152.601562 12.695312 153.300781 13.996094 154 15.296875 C 158.300781 29.398438 164.800781 39.597656 171.199219 49.796875 C 173.699219 53.695312 176.101562 57.597656 178.398438 61.695312 C 179.699219 65.296875 180.800781 69.097656 181.601562 72.996094 C 178 64.898438 173.601562 57.996094 169.199219 50.996094 C 162.398438 40.398438 155.601562 29.597656 151.300781 14.296875" fill="#832b99" fill-rule="evenodd"/></g><g id="change3_2"><path d="M 227.199219 171.898438 C 208 171.898438 198.398438 171.898438 198.398438 171.898438 C 198.398438 171.898438 198.5 152.996094 198.601562 115.097656 C 200 72.496094 224.199219 77.597656 242.5 59.898438 C 251.398438 51.398438 250.199219 44.097656 265.699219 40.398438 C 263 43.195312 262.300781 46.597656 262 49.796875 C 260.898438 62.898438 258.800781 59.195312 253.199219 69.695312 C 247.300781 80.796875 252.699219 99.695312 244.699219 119.496094 C 233 154.398438 227.199219 171.898438 227.199219 171.898438" fill="#4142a1" fill-rule="evenodd"/></g><g id="change4_4"><path d="M 262.898438 41.097656 C 263.800781 40.796875 264.699219 40.597656 265.699219 40.296875 C 264.699219 41.296875 264 42.398438 263.5 43.496094 C 255.199219 50.496094 250.398438 64.296875 246.800781 74.898438 C 245.398438 79.097656 244.101562 82.796875 242.800781 85.597656 C 238.898438 93.898438 234.199219 99.597656 230.5 104.296875 C 228.601562 106.597656 227 108.695312 225.800781 110.597656 C 222.601562 115.695312 222.300781 119.597656 221.800781 124.996094 C 221 133.496094 220 145.398438 207.699219 169.996094 L 205.699219 168.996094 C 217.800781 144.796875 218.800781 133.195312 219.601562 124.796875 C 220.101562 119.097656 220.5 114.898438 223.898438 109.398438 C 225.199219 107.398438 226.898438 105.195312 228.800781 102.796875 C 232.5 98.195312 237 92.597656 240.800781 84.496094 C 242 81.898438 243.300781 78.195312 244.699219 73.996094 C 248.601562 62.898438 253.601562 48.296875 262.898438 41.097656" fill="#e12c9f" fill-rule="evenodd"/></g><g id="change1_2"><path d="M 238 169.898438 C 231.800781 171.695312 224.5 172.398438 216.199219 172.097656 C 222.699219 136.398438 230.199219 114.996094 238.5 107.898438 C 244.699219 102.597656 251.199219 107.398438 258 108.898438 C 266.898438 110.898438 271.199219 108.296875 275.5 118.796875 C 277.199219 122.898438 278.300781 128.398438 278.800781 135.296875 C 279 139.898438 279.699219 144.296875 280.699219 148.496094 C 286.601562 172.195312 298.101562 174.695312 286.800781 205.597656 C 286.800781 190.898438 280.199219 193.097656 277.199219 182.496094 C 276.800781 180.996094 276.5 179.597656 276.398438 178.195312 C 276.101562 174.597656 274.800781 171.695312 272.601562 169.398438 C 265.101562 161.597656 258.898438 163.097656 253.101562 149.195312 C 244.898438 154.597656 239.898438 161.496094 238 169.898438" fill="#f9e017" fill-rule="evenodd"/></g><g id="change2_4"><path d="M 258.199219 108.996094 C 259.300781 109.195312 260.300781 109.398438 261.199219 109.496094 C 266.800781 118.597656 267.601562 125.996094 268.5 133.296875 C 269.101562 138.597656 269.699219 143.898438 272.300781 149.796875 C 275.199219 156.398438 278 161.097656 280.5 165.195312 C 286.199219 174.695312 290 180.996094 288.398438 200.996094 C 287.898438 202.496094 287.398438 203.996094 286.800781 205.597656 C 286.800781 202.996094 286.601562 200.898438 286.199219 199.195312 C 287.398438 181.195312 283.800781 175.195312 278.5 166.296875 C 276 162.195312 273.199219 157.398438 270.199219 150.597656 C 267.5 144.398438 266.898438 138.996094 266.300781 133.496094 C 265.398438 126.195312 264.5 118.597656 258.199219 108.996094" fill="#832b99" fill-rule="evenodd"/></g><g id="change2_5"><path d="M 238 169.898438 C 234.5 170.898438 230.699219 171.597656 226.5 171.898438 C 235 157.097656 231 129.695312 241.199219 121.996094 C 242.101562 121.296875 243.101562 121.097656 244 121.398438 C 245.800781 131.898438 248.699219 141.195312 252.898438 149.296875 C 244.898438 154.597656 239.898438 161.496094 238 169.898438" fill="#832b99" fill-rule="evenodd"/></g><g id="change1_3"><path d="M 169.101562 173.097656 C 193.601562 171.996094 205.898438 171.496094 205.898438 171.496094 C 211.199219 158.796875 206.800781 152.398438 206.398438 144.496094 C 206.199219 140.796875 206.800781 136.695312 209.699219 131.496094 C 214.101562 125.695312 216.398438 120.097656 216.800781 114.695312 C 217.398438 104.898438 211.300781 102.496094 214.5 90.496094 C 216.800781 81.898438 221.898438 78.097656 223.5 66.796875 C 224.101562 62.398438 224.199219 57.695312 223.601562 52.695312 C 221.601562 34.195312 211.898438 20.097656 214.601562 -0.00390625 C 200.800781 12.597656 208 25.996094 201.601562 38.195312 C 197.101562 46.695312 191.601562 45.695312 187.601562 58.296875 C 185.601562 64.695312 184.601562 72.796875 184.601562 82.597656 C 184.300781 87.097656 183.300781 91.496094 181.800781 95.796875 C 169.5 130.398438 154.398438 122.097656 169.101562 173.097656" fill="#f9e017" fill-rule="evenodd"/></g><g id="change3_3"><path d="M 195.398438 171.996094 L 196.699219 171.898438 L 197.601562 171.296875 C 184.5 151.496094 189.300781 142.796875 195 132.296875 C 197.601562 127.398438 200.5 122.195312 202 115.296875 C 203.101562 110.195312 202.898438 106.898438 202.601562 103.695312 C 202.300781 99.398438 201.898438 95.398438 205.300781 87.296875 C 205.800781 85.996094 206.300781 84.898438 206.800781 83.695312 C 209.101562 78.296875 211.5 72.796875 212.199219 67.398438 C 213.199219 59.296875 212.601562 50.496094 211.898438 41.496094 C 211.300781 33.496094 210.699219 25.398438 211.300781 17.597656 C 211.601562 13.496094 212.101562 10.097656 212.699219 7.195312 C 213.101562 5.695312 213.5 4.296875 214 3.195312 C 214.101562 2.195312 214.199219 1.195312 214.300781 0.0976562 C 213.300781 0.996094 212.5 1.898438 211.699219 2.695312 C 211.199219 3.898438 210.800781 5.195312 210.5 6.695312 C 209.800781 9.695312 209.300781 13.296875 209 17.496094 C 208.398438 25.496094 209 33.695312 209.601562 41.695312 C 210.199219 50.597656 210.898438 59.296875 209.898438 67.195312 C 209.300781 72.296875 206.898438 77.695312 204.699219 82.898438 C 204.199219 84.195312 203.601562 85.398438 203.101562 86.496094 C 199.5 94.996094 199.898438 99.296875 200.199219 103.898438 C 200.398438 106.996094 200.699219 110.097656 199.601562 114.898438 C 198.199219 121.398438 195.398438 126.496094 192.800781 131.296875 C 187.101562 142.195312 182.101562 151.496094 195.398438 171.996094" fill="#4142a1" fill-rule="evenodd"/></g><g id="change4_5"><path d="M 120.398438 165.398438 L 240.800781 165.398438 L 216.800781 375.398438 L 144.398438 375.398438 L 120.398438 165.398438" fill="#e12c9f" fill-rule="evenodd"/></g><g id="change2_6"><path d="M 8.699219 139.296875 L 152.300781 139.296875 C 157.101562 139.296875 161 143.195312 161 147.996094 L 161 366.796875 C 161 371.597656 157.101562 375.496094 152.300781 375.496094 L 8.699219 375.496094 C 3.898438 375.496094 0 371.597656 0 366.796875 L 0 147.996094 C 0 143.195312 3.898438 139.296875 8.699219 139.296875" fill="#832b99" fill-rule="evenodd"/></g><g id="change5_1"><path d="M 177.398438 367.898438 C 170.699219 367.496094 167.398438 367.195312 167.398438 367.195312 C 167.398438 367.796875 167.300781 365.097656 167.199219 359.296875 C 174 358.996094 177.5 358.898438 177.5 358.898438 C 177.398438 364.898438 177.398438 367.898438 177.398438 367.898438" fill="#f2d3b9" fill-rule="evenodd"/></g><g id="change3_4"><path d="M 165.300781 363.597656 C 169.898438 364.496094 174.601562 364.097656 177 362.898438 C 178.601562 344.097656 177.898438 333.496094 177.5 330.597656 C 177.5 330.597656 181.699219 332.597656 190.101562 336.695312 C 200.398438 337.695312 220.101562 334.898438 219.101562 315.195312 C 189.101562 308.695312 169.5 305.695312 166 309.796875 C 160.898438 313.296875 161.898438 333.996094 165.300781 363.597656" fill="#4142a1" fill-rule="evenodd"/></g><g id="change2_7"><path d="M 180.300781 375.398438 C 179.699219 369.898438 178.101562 366.296875 175.601562 364.496094 C 173.601562 366.296875 170.898438 367.195312 167.398438 367.097656 C 162.699219 368.996094 158 370.695312 153.199219 372.195312 C 152.199219 372.796875 151.898438 373.796875 152.300781 375.296875 C 170.898438 375.398438 180.300781 375.398438 180.300781 375.398438" fill="#832b99" fill-rule="evenodd"/></g><g id="change5_2"><path d="M 239.601562 363.898438 C 238.601562 370.898438 238 374.496094 238 374.496094 C 247.398438 374.398438 252.101562 374.398438 252.101562 374.398438 C 253.601562 372.195312 254.300781 369.695312 254.199219 366.695312 C 244.5 364.796875 239.601562 363.898438 239.601562 363.898438" fill="#f2d3b9" fill-rule="evenodd"/></g><g id="change2_8"><path d="M 269.398438 371.296875 C 272.601562 371.796875 274.101562 373.097656 273.800781 375.195312 C 262.101562 376.597656 247.5 375.496094 248 374.398438 C 253.898438 370.695312 253.101562 367.898438 250.898438 365.996094 C 252.300781 365.296875 254 365.195312 256.101562 365.496094 C 257.898438 366.796875 258.300781 367.496094 260.398438 368.398438 C 262.699219 369.398438 266.699219 370.597656 269.398438 371.296875" fill="#832b99" fill-rule="evenodd"/></g><g clip-path="url(#a)" id="change3_9"><path d="M 246.199219 362.695312 C 244.699219 366.996094 242 372.195312 239.199219 375.398438 C 217 377.796875 182.101562 375.996094 177.800781 373.597656 C 172.800781 372.097656 176.898438 355.097656 181.898438 321.597656 C 181.898438 321.597656 195.800781 318.398438 220.300781 312.597656 C 219.699219 320.597656 218.800781 330.496094 198.101562 359.296875 C 211.398438 358.597656 231.398438 359.996094 246.199219 362.695312" fill="#4142a1" fill-rule="evenodd"/></g><g id="change5_3"><path d="M 202.5 286.496094 L 215.101562 302.097656 C 216.5 300.898438 217.5 299.597656 218 298.097656 C 216.800781 293.398438 212.300781 286.898438 204.5 278.496094 C 203.800781 281.296875 203.101562 283.996094 202.5 286.496094" fill="#f2d3b9" fill-rule="evenodd"/></g><g id="change1_4"><path d="M 196 266.296875 C 192.101562 270.695312 194.398438 276.695312 202.800781 284.296875 C 205.199219 282.296875 207.199219 279.496094 208.601562 275.695312 C 204.5 271.796875 200.199219 268.597656 196 266.296875" fill="#f9e017" fill-rule="evenodd"/></g><g id="change1_5"><path d="M 176.300781 266.296875 C 188 270.996094 193.5 270.296875 192.800781 264.195312 C 199 273.097656 207.898438 287.097656 219.5 306.097656 C 222.800781 313.796875 218.601562 318.898438 207.101562 321.496094 C 202.601562 322.695312 198.5 324.097656 195 325.496094 C 188.398438 328.195312 179.101562 336.097656 175.300781 336.597656 C 173.199219 336.898438 172.199219 335.996094 172.199219 333.898438 C 179.300781 303.695312 172.398438 295.195312 173.300781 283.597656 C 173.898438 274.996094 174.898438 269.195312 176.300781 266.296875" fill="#f9e017" fill-rule="evenodd"/></g><g id="change4_6"><path d="M 9.398438 155.496094 L 151.5 155.496094 L 151.5 339.796875 L 9.398438 339.796875 L 9.398438 155.496094" fill="#e12c9f" fill-rule="evenodd"/></g><g id="change4_7"><path d="M 65.898438 145.496094 L 67.101562 145.496094 C 68.199219 145.496094 69 146.398438 69 147.398438 C 69 148.496094 68.101562 149.296875 67.101562 149.296875 L 65.898438 149.296875 C 64.800781 149.296875 64 148.398438 64 147.398438 C 64 146.398438 64.898438 145.496094 65.898438 145.496094 Z M 76.101562 145.496094 L 95 145.496094 C 96.101562 145.496094 96.898438 146.398438 96.898438 147.398438 C 96.898438 148.496094 96 149.296875 95 149.296875 L 76.101562 149.296875 C 75 149.296875 74.199219 148.398438 74.199219 147.398438 C 74.199219 146.398438 75.101562 145.496094 76.101562 145.496094" fill="#e12c9f" fill-rule="evenodd"/></g><g id="change4_8"><path d="M 83 353.296875 C 82.300781 352.597656 81.398438 352.195312 80.398438 352.195312 C 79.398438 352.195312 78.5 352.597656 77.800781 353.296875 C 77.101562 353.996094 76.699219 354.898438 76.699219 355.898438 C 76.699219 356.898438 77.101562 357.796875 77.800781 358.496094 C 78.5 359.195312 79.398438 359.597656 80.398438 359.597656 C 81.398438 359.597656 82.300781 359.195312 83 358.496094 C 83.699219 357.796875 84.101562 356.898438 84.101562 355.898438 C 84.101562 354.898438 83.699219 353.996094 83 353.296875 Z M 80.5 348.296875 C 82.601562 348.296875 84.5 349.195312 85.898438 350.496094 C 87.300781 351.898438 88.101562 353.796875 88.101562 355.898438 C 88.101562 357.996094 87.199219 359.898438 85.898438 361.296875 C 84.5 362.695312 82.601562 363.496094 80.5 363.496094 C 78.398438 363.496094 76.5 362.597656 75.101562 361.296875 C 73.699219 359.898438 72.898438 357.996094 72.898438 355.898438 C 72.898438 353.796875 73.800781 351.898438 75.101562 350.496094 C 76.5 349.097656 78.398438 348.296875 80.5 348.296875" fill="#e12c9f" fill-rule="evenodd"/></g><g id="change1_6"><path d="M 19.398438 177.996094 L 142.300781 177.996094 L 142.300781 286.796875 L 19.398438 286.796875 L 19.398438 177.996094" fill="#f9e017" fill-rule="evenodd"/></g><g id="change1_7"><path d="M 19.398438 292.796875 L 142.300781 292.796875 L 142.300781 315.496094 L 19.398438 315.496094 L 19.398438 292.796875" fill="#f9e017" fill-rule="evenodd"/></g><g id="change3_5"><path d="M 30.398438 195.195312 L 90.601562 195.195312 L 90.601562 255.296875 L 30.398438 255.296875 L 30.398438 195.195312" fill="#4142a1" fill-rule="evenodd"/></g><g id="change5_4"><path d="M 48.699219 255.398438 L 60.5 255.398438 C 59.300781 249.597656 59.699219 246.796875 61.601562 246.796875 C 67.800781 248.597656 71.699219 249.597656 76.300781 244.097656 C 78.898438 240.996094 79.601562 236.996094 78.5 232.097656 C 77.199219 227.796875 77.398438 223.398438 79 218.898438 C 75.898438 212.898438 65.800781 213.796875 48.601562 221.597656 C 37.800781 226.195312 48.601562 255.296875 48.699219 255.398438" fill="#f2d3b9" fill-rule="evenodd"/></g><g id="change2_9"><path d="M 95.601562 195.195312 L 134.699219 195.195312 L 134.699219 199.796875 L 95.601562 199.796875 L 95.601562 195.195312" fill="#832b99" fill-rule="evenodd"/></g><g id="change2_10"><path d="M 95.601562 204.398438 L 134.699219 204.398438 L 134.699219 208.996094 L 95.601562 208.996094 L 95.601562 204.398438" fill="#832b99" fill-rule="evenodd"/></g><g id="change2_11"><path d="M 95.601562 213.496094 L 134.699219 213.496094 L 134.699219 218.097656 L 95.601562 218.097656 L 95.601562 213.496094" fill="#832b99" fill-rule="evenodd"/></g><g id="change2_12"><path d="M 95.601562 222.597656 L 134.699219 222.597656 L 134.699219 227.195312 L 95.601562 227.195312 L 95.601562 222.597656" fill="#832b99" fill-rule="evenodd"/></g><g id="change2_13"><path d="M 95.601562 231.796875 L 134.699219 231.796875 L 134.699219 236.398438 L 95.601562 236.398438 L 95.601562 231.796875" fill="#832b99" fill-rule="evenodd"/></g><g id="change2_14"><path d="M 95.601562 240.898438 L 123.601562 240.898438 L 123.601562 245.496094 L 95.601562 245.496094 L 95.601562 240.898438" fill="#832b99" fill-rule="evenodd"/></g><g id="change2_15"><path d="M 30.398438 259.898438 L 134.800781 259.898438 L 134.800781 263.496094 L 30.398438 263.496094 L 30.398438 259.898438" fill="#832b99" fill-rule="evenodd"/></g><g id="change2_16"><path d="M 33 275.097656 C 31.601562 275.097656 30.398438 276.195312 30.398438 277.597656 C 30.398438 278.996094 31.601562 280.097656 33 280.097656 C 34.398438 280.097656 35.601562 278.996094 35.601562 277.597656 C 35.601562 276.195312 34.398438 275.097656 33 275.097656" fill="#832b99" fill-rule="evenodd"/></g><g id="change2_17"><path d="M 40.800781 275.097656 C 39.398438 275.097656 38.199219 276.195312 38.199219 277.597656 C 38.199219 278.996094 39.398438 280.097656 40.800781 280.097656 C 42.199219 280.097656 43.398438 278.996094 43.398438 277.597656 C 43.398438 276.195312 42.199219 275.097656 40.800781 275.097656" fill="#832b99" fill-rule="evenodd"/></g><g id="change2_18"><path d="M 48.5 275.097656 C 47.101562 275.097656 45.898438 276.195312 45.898438 277.597656 C 45.898438 278.996094 47.101562 280.097656 48.5 280.097656 C 49.898438 280.097656 51.101562 278.996094 51.101562 277.597656 C 51.101562 276.195312 50 275.097656 48.5 275.097656" fill="#832b99" fill-rule="evenodd"/></g><g id="change2_19"><path d="M 30.398438 267.097656 L 79.398438 267.097656 L 79.398438 270.695312 L 30.398438 270.695312 L 30.398438 267.097656" fill="#832b99" fill-rule="evenodd"/></g><g id="change4_9"><path d="M 128.601562 270.496094 C 129.398438 269.097656 130.101562 268.398438 131.699219 268.398438 C 133.398438 268.398438 134.800781 269.695312 134.800781 271.195312 C 134.800781 273.996094 131.699219 276.796875 128.601562 279.597656 C 125.5 276.796875 122.398438 273.996094 122.398438 271.195312 C 122.398438 269.597656 123.800781 268.398438 125.5 268.398438 C 127 268.398438 127.800781 269.097656 128.601562 270.496094" fill="#e12c9f" fill-rule="evenodd"/></g><g id="change5_5"><path d="M 183.398438 238.398438 C 185.5 246.296875 183.5 251.996094 177.5 255.695312 C 171.101562 258.097656 167.101562 258.195312 165.199219 256.796875 C 162.800781 254.996094 164.898438 251.597656 163.898438 248.996094 C 163.5 247.898438 161.898438 247.898438 161.699219 246.996094 C 161.300781 245.496094 164.199219 245.496094 164.300781 241.898438 C 164.398438 238.695312 162 234.695312 167.300781 231.796875 C 174.800781 230.398438 180.199219 232.597656 183.398438 238.398438" fill="#f2d3b9" fill-rule="evenodd"/></g><g id="change3_6"><path d="M 164 239.898438 C 164.300781 241.398438 164.199219 242.695312 163.800781 243.695312 C 157.601562 242.898438 157.199219 234.097656 160.898438 228.898438 C 162.699219 226.296875 165.800781 224.296875 168.601562 224.695312 C 169.398438 224.796875 170.398438 224.796875 171.398438 224.796875 C 172.5 224.695312 173.800781 224.496094 175.101562 224.195312 C 181.5 223.695312 187.101562 225.195312 190.601562 228.597656 C 192.800781 230.695312 194.300781 233.496094 194.699219 236.996094 C 195.199219 241.898438 192.699219 245.296875 194 249.398438 C 195.300781 253.398438 198.898438 257.695312 200.800781 259.996094 C 202.601562 261.496094 203.300781 263.097656 202.800781 264.695312 C 201.699219 268.496094 198.601562 267.695312 196.601562 269.796875 C 191.699219 273.496094 186.898438 273.796875 182.199219 270.597656 C 181 269.296875 179.601562 268.597656 177.898438 268.296875 C 173.601562 267.496094 172.5 265.398438 174.5 262.097656 C 175.101562 261.296875 175.5 260.296875 175.800781 259.097656 C 176 258.296875 176.101562 257.496094 176.101562 256.597656 C 175.800781 252.996094 176 250.695312 176.898438 249.496094 C 177.898438 248.097656 180.398438 248.296875 180.601562 244.898438 C 180.699219 243.296875 179.800781 241.796875 178.800781 241.796875 C 176.898438 241.796875 177.398438 246.097656 175 247.695312 C 174.199219 248.398438 173.800781 249.296875 173.699219 250.496094 C 172.699219 248.796875 174.5 245.898438 174.800781 243.796875 C 175.101562 240.996094 173.601562 240.195312 171.199219 238.496094 C 168.5 236.496094 167 234.597656 166.898438 232.097656 C 165.199219 232.898438 164.101562 234.195312 163.601562 235.898438 C 163.601562 236.796875 163.699219 238.195312 164 239.898438" fill="#4142a1" fill-rule="evenodd"/></g><g id="change5_6"><path d="M 149.898438 259.097656 C 150.601562 262.398438 151.101562 265.695312 151.5 269.097656 C 155.101562 274.996094 158.199219 279.398438 160.898438 282.296875 C 160.898438 282.296875 163.300781 280.398438 168.199219 276.496094 C 168.199219 276.496094 169.398438 277.597656 171.699219 279.695312 C 171.699219 279.695312 173.398438 281.398438 176.699219 284.796875 C 174.300781 287.597656 160.800781 303.597656 156.5 300.398438 C 153.800781 298.296875 151.199219 291.996094 148.898438 281.296875 C 148.300781 278.695312 147.699219 273.195312 146.699219 271.097656 C 146.300781 270.195312 145.800781 269.496094 145.101562 268.796875 C 141.101562 265.496094 139.199219 262.996094 139.199219 261.195312 C 141.199219 257.496094 143.199219 255.496094 145.300781 255.296875 C 148.101562 256.195312 149.699219 257.398438 149.898438 259.097656" fill="#f2d3b9" fill-rule="evenodd"/></g><g id="change3_7"><path d="M 140.800781 264.695312 L 134.699219 270.097656 L 132.398438 270.398438 L 133.199219 268.398438 L 139.5 262.796875 Z M 152.398438 254.296875 L 147.300781 258.597656 L 145.800781 256.898438 L 150.898438 252.597656 L 152.398438 254.296875" fill="#4142a1" fill-rule="evenodd"/></g><g id="change1_8"><path d="M 181.398438 270.996094 C 183.699219 274.898438 181.601562 281.097656 176.101562 289.898438 C 168.800781 290.695312 164.5 286.695312 162.898438 277.695312 C 166.898438 273.597656 176.5 262.796875 181.398438 270.996094" fill="#f9e017" fill-rule="evenodd"/></g><g clip-path="url(#b)" id="change3_8"><path d="M 282.898438 194.597656 L 224.5 194.597656 C 218.398438 194.597656 213.398438 199.597656 213.398438 205.695312 L 213.398438 255.996094 C 213.398438 262.097656 218.398438 267.097656 224.5 267.097656 L 229.601562 267.097656 C 232.398438 270.296875 232.800781 273.796875 230.800781 277.597656 C 229.398438 280.296875 226.699219 283.097656 222.800781 285.996094 C 222.398438 286.398438 222.101562 286.695312 222 287.097656 C 220.101562 290.695312 249 292.398438 252.101562 267.195312 L 283 267.195312 C 289.101562 267.195312 294.101562 262.195312 294.101562 256.097656 L 294.101562 205.796875 C 294 199.597656 289 194.597656 282.898438 194.597656" fill="#4142a1" fill-rule="evenodd"/></g><g id="change4_10"><path d="M 253.699219 218.996094 C 256.300781 214.296875 258.898438 211.898438 264.101562 211.898438 C 269.800781 211.898438 274.5 216.097656 274.5 221.398438 C 274.5 230.898438 264.101562 240.296875 253.699219 249.796875 C 243.300781 240.296875 232.898438 230.898438 232.898438 221.398438 C 232.898438 216.195312 237.601562 211.898438 243.300781 211.898438 C 248.5 211.996094 251.101562 214.296875 253.699219 218.996094" fill="#e12c9f" fill-rule="evenodd"/></g><g id="change4_11"><path d="M 35.5 255.398438 C 60.699219 255.398438 73.300781 255.398438 73.300781 255.398438 C 72.398438 251.195312 71.101562 248.796875 69.5 248.097656 C 67.601562 248.195312 65.699219 247.898438 63.800781 247.296875 C 56.5 243.398438 53.800781 232.296875 55.199219 226.898438 C 57.699219 216.796875 77.199219 216.597656 78 222.695312 C 81.199219 220.496094 79.898438 203.996094 62.5 203.195312 C 52.800781 202.695312 42.300781 207.097656 39.199219 217.097656 C 36.101562 226.996094 40.5 230.195312 41.800781 237.996094 C 43.101562 246.097656 36.699219 248.496094 35.5 255.398438" fill="#e12c9f" fill-rule="evenodd"/></g><path d="M 355 1211.315625 C 606.992188 1211.315625 733.007812 1211.315625 733.007812 1211.315625 C 723.984375 1253.346875 711.015625 1277.33125 695 1284.323437 C 676.015625 1283.346875 656.992188 1286.315625 638.007812 1292.33125 C 565 1331.315625 538.007812 1442.33125 551.992188 1496.315625 C 576.992188 1597.33125 771.992188 1599.323437 780 1538.346875 C 811.992188 1560.339062 798.984375 1725.339062 625 1733.346875 C 528.007812 1738.346875 423.007812 1694.323437 391.992188 1594.323437 C 361.015625 1495.339062 405 1463.346875 418.007812 1385.339062 C 431.015625 1304.323437 366.992188 1280.339062 355 1211.315625 Z M 355 1211.315625" fill="none" stroke="#e12c9f" stroke-linecap="round" stroke-linejoin="round" stroke-miterlimit="22.926" stroke-width="1.487" transform="matrix(.1 0 0 -.1 0 376.53)"/></g></svg>