<?xml version="1.0" encoding="UTF-8"?><svg xmlns="http://www.w3.org/2000/svg" xmlns:xlink="http://www.w3.org/1999/xlink" height="267.6" preserveAspectRatio="xMidYMid meet" version="1.0" viewBox="-0.1 0.0 427.6 267.6" width="427.6" zoomAndPan="magnify"><defs><clipPath id="a"><path d="M 7 0 L 427.539062 0 L 427.539062 267.578125 L 7 267.578125 Z M 7 0"/></clipPath><clipPath id="b"><path d="M 141 131 L 261 131 L 261 267.578125 L 141 267.578125 Z M 141 131"/></clipPath></defs><g><g clip-path="url(#a)" id="change1_4"><path d="M 255.5 267.578125 C 304.199219 262.179688 342.800781 249.878906 371.398438 230.878906 C 389.800781 218.578125 409.101562 197.980469 419.601562 175.078125 C 424.898438 163.578125 427.898438 151.578125 427.5 139.78125 C 425.398438 77.78125 378.898438 85.28125 338.699219 88.078125 C 312.199219 89.980469 275.199219 85.078125 215.101562 45.480469 C 142.398438 -2.320312 65.398438 -25.21875 18.199219 41.679688 C 12.300781 50.078125 11.199219 61.578125 9.5 72.878906 C -4.101562 159.179688 68.699219 267.578125 255.5 267.578125" fill="#fad206" fill-rule="evenodd"/></g><g id="change2_1"><path d="M 45.101562 143.78125 C 60.800781 146.78125 68.601562 148.28125 68.601562 148.28125 C 70.898438 118.28125 65.199219 88.78125 51.398438 59.78125 C 43.699219 84.878906 41.601562 112.878906 45.101562 143.78125" fill="#4142a1" fill-rule="evenodd"/></g><path d="M 515 2077.9875 C 538.984375 1705.995312 570 1402.010937 608.984375 1165.995312" fill="none" stroke="#fad206" stroke-linecap="round" stroke-linejoin="round" stroke-miterlimit="22.926" stroke-width="10.001" transform="matrix(.1 0 0 -.1 0 267.58)"/><path d="M 448.007812 1757.010937 C 488.007812 1667.9875 523.984375 1605.995312 556.015625 1572.9875" fill="none" stroke="#fad206" stroke-linecap="round" stroke-linejoin="round" stroke-miterlimit="22.926" stroke-width="10.001" transform="matrix(.1 0 0 -.1 0 267.58)"/><path d="M 543.007812 1707.9875 C 570 1755.01875 590 1805.01875 603.984375 1855.995312" fill="none" stroke="#fad206" stroke-linecap="round" stroke-linejoin="round" stroke-miterlimit="22.926" stroke-width="10.001" transform="matrix(.1 0 0 -.1 0 267.58)"/><g id="change3_1"><path d="M 61 146.878906 C 60.5 176.179688 60.199219 190.878906 60.199219 190.878906 C 21 170.578125 1.101562 125.378906 0.5 55.179688 C 31.398438 84.480469 51.5 115.078125 61 146.878906" fill="#01c2cb" fill-rule="evenodd"/></g><path d="M 5 2124.003125 C 221.015625 1514.003125 446.992188 1067.010937 681.992188 782.9875" fill="none" stroke="#ed0c78" stroke-linecap="round" stroke-linejoin="round" stroke-miterlimit="22.926" stroke-width="10.001" transform="matrix(.1 0 0 -.1 0 267.58)"/><path d="M 45 1647.010937 C 136.015625 1537.010937 218.007812 1462.9875 290 1425.01875 C 301.015625 1502.9875 321.015625 1604.003125 350 1730.01875" fill="none" stroke="#ed0c78" stroke-linecap="round" stroke-linejoin="round" stroke-miterlimit="22.926" stroke-width="10.001" transform="matrix(.1 0 0 -.1 0 267.58)"/><path d="M 490 1502.9875 C 480 1370.01875 461.015625 1254.003125 431.992188 1154.003125 C 341.992188 1157.010937 256.992188 1180.01875 176.015625 1224.003125" fill="none" stroke="#ed0c78" stroke-linecap="round" stroke-linejoin="round" stroke-miterlimit="22.926" stroke-width="10.001" transform="matrix(.1 0 0 -.1 0 267.58)"/><g id="change4_1"><path d="M 148.199219 253.078125 C 160.199219 207.480469 161.101562 159.078125 150.800781 107.980469 C 139 80.878906 110.699219 74.480469 64 101.480469 C 62.101562 102.578125 60.199219 103.78125 57.199219 111.28125 C 51 135.980469 48 163.378906 48.300781 193.28125 C 71.199219 218.480469 104.199219 239.878906 148.199219 253.078125" fill="#ed0c78" fill-rule="evenodd"/></g><g id="change2_2"><path d="M 213.300781 123.179688 C 204.199219 96.179688 195.601562 85.480469 187.199219 90.980469 C 188.800781 106.679688 183.398438 116.28125 177.300781 121.980469 C 176.5 124.480469 187.800781 138.78125 195.5 138.578125 C 210.398438 131.28125 213.300781 123.179688 213.300781 123.179688" fill="#4142a1" fill-rule="evenodd"/></g><g id="change2_3"><path d="M 188.398438 61.480469 C 193.699219 61.480469 198.101562 65.78125 198.300781 71.179688 C 198.398438 76.480469 194.199219 80.878906 188.898438 80.878906 C 183.601562 80.878906 179.199219 76.578125 179 71.179688 C 178.800781 65.78125 183.101562 61.480469 188.398438 61.480469" fill="#4142a1" fill-rule="evenodd"/></g><g id="change2_4"><path d="M 232.800781 92.679688 C 212 104.179688 201.5 109.878906 201.5 109.878906 C 185.398438 104.578125 182.5 77.578125 191.199219 67.480469 C 197 60.78125 212.398438 63.679688 219.800781 66.378906 C 226.300781 68.679688 231.699219 72.378906 235.898438 77.578125 C 238.199219 83.179688 237.101562 88.179688 232.800781 92.679688" fill="#4142a1" fill-rule="evenodd"/></g><g clip-path="url(#b)" id="change3_16"><path d="M 255.5 267.578125 C 257.300781 267.378906 259 267.179688 260.699219 266.980469 C 257.699219 194.578125 249.898438 154.980469 235.398438 140.679688 C 231.300781 137.28125 222.5 134.578125 218.699219 133.679688 C 218.699219 133.679688 211.398438 132.878906 196.699219 131.28125 C 194.398438 132.980469 190.601562 134.480469 185.199219 135.679688 C 174.800781 137.980469 172.898438 136.28125 166.699219 146.78125 C 157.101562 162.980469 148.800781 197.78125 141.898438 251.28125 C 173.699219 261.480469 211.5 267.578125 255.5 267.578125" fill="#01c2cb" fill-rule="evenodd"/></g><g id="change3_2"><path d="M 366.398438 122.378906 C 343.699219 158.28125 343.300781 189.179688 365.199219 214.878906 C 380.5 187.078125 380.898438 156.179688 366.398438 122.378906" fill="#01c2cb" fill-rule="evenodd"/></g><path d="M 3663.984375 1452.010937 C 3605 1119.003125 3601.015625 810.01875 3651.992188 527.010937" fill="none" stroke="#ed0c78" stroke-linecap="round" stroke-linejoin="round" stroke-miterlimit="22.926" stroke-width="10.001" transform="matrix(.1 0 0 -.1 0 267.58)"/><path d="M 3736.015625 1240.995312 C 3703.007812 1155.01875 3663.007812 1072.010937 3616.992188 992.9875 C 3590 1052.9875 3565 1125.01875 3541.992188 1210.995312" fill="none" stroke="#ed0c78" stroke-linecap="round" stroke-linejoin="round" stroke-miterlimit="22.926" stroke-width="10.001" transform="matrix(.1 0 0 -.1 0 267.58)"/><path d="M 3770 947.9875 C 3716.015625 867.9875 3666.992188 807.010937 3623.007812 762.9875 C 3573.984375 807.9875 3530 865.01875 3491.015625 932.010937" fill="none" stroke="#ed0c78" stroke-linecap="round" stroke-linejoin="round" stroke-miterlimit="22.926" stroke-width="10.001" transform="matrix(.1 0 0 -.1 0 267.58)"/><g id="change3_3"><path d="M 296.398438 119.378906 C 313.699219 133.78125 332.101562 152.378906 351.800781 175.378906 C 343.5 159.679688 346.398438 142.378906 344.101562 126.378906 C 342.800781 117.480469 339 108.480469 333.101562 101.679688 C 322.398438 89.179688 287.898438 97.378906 296.398438 119.378906" fill="#01c2cb" fill-rule="evenodd"/></g><g id="change3_4"><path d="M 320.101562 146.578125 C 319.199219 172.480469 307.398438 186.480469 284.800781 188.679688 C 276.101562 163.878906 304.601562 142.578125 300.601562 120.980469 C 311.300781 122.078125 317.800781 130.679688 320.101562 146.578125" fill="#01c2cb" fill-rule="evenodd"/></g><g id="change4_2"><path d="M 263.199219 266.679688 C 269 235.578125 276.199219 193.679688 288.398438 171.679688 C 295.898438 158.179688 300.300781 164.78125 309.699219 156.980469 C 311.800781 155.179688 322.898438 159.679688 328.800781 147.480469 C 331.101562 154.28125 336 155.480469 345.5 161.980469 C 362.601562 173.78125 367.300781 207.078125 372.101562 230.378906 L 371.398438 230.878906 C 344.398438 248.878906 308.300781 260.78125 263.199219 266.679688" fill="#ed0c78" fill-rule="evenodd"/></g><g id="change5_1"><path d="M 309.699219 156.980469 C 313.601562 153.679688 315.398438 149.378906 314.898438 144.078125 C 314.898438 144.078125 319 139.980469 327.101562 131.679688 C 327.300781 142.378906 328.199219 147.578125 330.601562 151.078125 C 327.398438 163.878906 311.101562 163.78125 309.699219 156.980469" fill="#f2d3b9" fill-rule="evenodd"/></g><g id="change5_2"><path d="M 317.398438 105.679688 C 325.898438 109.480469 329.300781 118.378906 327.601562 132.480469 C 322.800781 141.679688 317.398438 146.878906 311.5 148.179688 C 304.5 148.679688 299.5 137.578125 296.5 115.078125 C 300.601562 107.179688 307.601562 104.078125 317.398438 105.679688" fill="#f2d3b9" fill-rule="evenodd"/></g><g id="change5_3"><path d="M 324.199219 127.28125 C 326.5 130.78125 327.601562 132.480469 327.601562 132.480469 C 332.898438 130.78125 335 125.179688 333.800781 121.480469 C 332.199219 116.480469 325.898438 114.78125 324.199219 127.28125" fill="#f2d3b9" fill-rule="evenodd"/></g><g id="change3_5"><path d="M 318.800781 102.078125 C 301.101562 101.578125 293.601562 107.378906 296.300781 119.378906 C 298.601562 109.679688 318.398438 125.980469 321.5 117.28125 C 321.898438 127.179688 323.5 129.78125 325.5 131.480469 C 324.199219 128.578125 324.300781 125.078125 325.699219 121.378906 C 326.101562 120.378906 326.699219 119.480469 327.398438 118.78125 C 327.398438 112.980469 324.601562 107.378906 318.800781 102.078125" fill="#01c2cb" fill-rule="evenodd"/></g><g id="change3_6"><path d="M 327.601562 132.480469 C 335 140.980469 341.601562 151.378906 347.398438 163.480469 C 352.101562 178.878906 361.199219 197.179688 359.699219 208.179688 C 359.101562 212.578125 357.699219 216.28125 355.300781 219.378906 C 349.601562 226.980469 340.300781 227.179688 337.898438 232.578125 C 337 234.480469 337.101562 236.480469 338 237.980469 C 330.800781 229.980469 345.300781 223.578125 343.101562 208.980469 C 340.800781 193.28125 329.5 187.878906 327.101562 165.378906 C 326.199219 156.28125 326.300781 145.28125 327.601562 132.480469" fill="#01c2cb" fill-rule="evenodd"/></g><g id="change2_5"><path d="M 412.300781 127.679688 C 415.398438 188.078125 395.800781 225.980469 353.199219 241.480469 C 353.398438 196.28125 373.101562 158.378906 412.300781 127.679688" fill="#4142a1" fill-rule="evenodd"/></g><path d="M 4123.007812 1399.003125 C 3973.984375 949.003125 3776.992188 570.01875 3531.992188 260.995312" fill="none" stroke="#fad206" stroke-linecap="round" stroke-linejoin="round" stroke-miterlimit="22.926" stroke-width="10.001" transform="matrix(.1 0 0 -.1 0 267.58)"/><path d="M 3900 1194.003125 C 3883.007812 1065.01875 3875 935.01875 3878.007812 805.01875 C 3948.007812 857.9875 4025 929.003125 4108.984375 1017.010937" fill="none" stroke="#fad206" stroke-linecap="round" stroke-linejoin="round" stroke-miterlimit="22.926" stroke-width="10.001" transform="matrix(.1 0 0 -.1 0 267.58)"/><path d="M 3668.984375 860.01875 C 3681.015625 722.9875 3698.007812 612.010937 3720 527.9875 C 3806.992188 547.9875 3896.015625 584.003125 3985 637.9875" fill="none" stroke="#fad206" stroke-linecap="round" stroke-linejoin="round" stroke-miterlimit="22.926" stroke-width="10.001" transform="matrix(.1 0 0 -.1 0 267.58)"/><g id="change3_7"><path d="M 313.398438 125.78125 L 313.5 127.078125 C 313.5 127.578125 314 127.980469 314.398438 127.878906 C 314.898438 127.878906 315.199219 127.378906 315.199219 126.878906 L 315.101562 125.578125 C 315.101562 125.078125 314.601562 124.679688 314.199219 124.78125 C 313.699219 124.878906 313.398438 125.28125 313.398438 125.78125" fill="#01c2cb" fill-rule="evenodd"/></g><path d="M 3125 1459.003125 C 3135 1460.01875 3143.984375 1459.003125 3153.007812 1455.995312" fill="none" stroke="#01c2cb" stroke-linecap="round" stroke-linejoin="round" stroke-miterlimit="22.926" stroke-width="10.001" transform="matrix(.1 0 0 -.1 0 267.58)"/><g id="change3_8"><path d="M 302.699219 125.679688 L 302.800781 126.980469 C 302.800781 127.480469 302.5 127.878906 302 127.78125 C 301.5 127.78125 301.101562 127.28125 301.101562 126.78125 L 301 125.480469 C 301 124.980469 301.300781 124.578125 301.800781 124.679688 C 302.199219 124.679688 302.601562 125.179688 302.699219 125.679688" fill="#01c2cb" fill-rule="evenodd"/></g><path d="M 3033.007812 1460.995312 C 3023.007812 1462.010937 3013.984375 1462.010937 3005 1459.003125" fill="none" stroke="#01c2cb" stroke-linecap="round" stroke-linejoin="round" stroke-miterlimit="22.926" stroke-width="10.001" transform="matrix(.1 0 0 -.1 0 267.58)"/><path d="M 3063.984375 1440.01875 C 3066.992188 1370.995312 3068.007812 1335.995312 3068.007812 1335.995312 C 3093.984375 1335.995312 3106.992188 1335.995312 3106.992188 1335.995312" fill="none" stroke="#01c2cb" stroke-linecap="round" stroke-linejoin="round" stroke-miterlimit="22.926" stroke-width="10.001" transform="matrix(.1 0 0 -.1 0 267.58)"/><path d="M 3056.015625 1295.995312 C 3075 1247.010937 3143.007812 1247.9875 3143.984375 1312.010937 C 3111.992188 1299.003125 3080 1295.995312 3056.015625 1295.995312 Z M 3056.015625 1295.995312" fill="none" stroke="#01c2cb" stroke-linecap="round" stroke-linejoin="round" stroke-miterlimit="22.926" stroke-width="10.001" transform="matrix(.1 0 0 -.1 0 267.58)"/><g id="change3_9"><path d="M 313.398438 125.78125 L 313.5 127.078125 C 313.5 127.578125 314 127.980469 314.398438 127.878906 C 314.898438 127.878906 315.199219 127.378906 315.199219 126.878906 L 315.101562 125.578125 C 315.101562 125.078125 314.601562 124.679688 314.199219 124.78125 C 313.699219 124.878906 313.398438 125.28125 313.398438 125.78125" fill="#01c2cb" fill-rule="evenodd"/></g><path d="M 3125 1459.003125 C 3135 1460.01875 3143.984375 1459.003125 3153.007812 1455.995312" fill="none" stroke="#01c2cb" stroke-linecap="round" stroke-linejoin="round" stroke-miterlimit="22.926" stroke-width="10.001" transform="matrix(.1 0 0 -.1 0 267.58)"/><g id="change3_10"><path d="M 302.699219 125.679688 L 302.800781 126.980469 C 302.800781 127.480469 302.5 127.878906 302 127.78125 C 301.5 127.78125 301.101562 127.28125 301.101562 126.78125 L 301 125.480469 C 301 124.980469 301.300781 124.578125 301.800781 124.679688 C 302.199219 124.679688 302.601562 125.179688 302.699219 125.679688" fill="#01c2cb" fill-rule="evenodd"/></g><path d="M 3033.007812 1460.995312 C 3023.007812 1462.010937 3013.984375 1462.010937 3005 1459.003125" fill="none" stroke="#01c2cb" stroke-linecap="round" stroke-linejoin="round" stroke-miterlimit="22.926" stroke-width="10.001" transform="matrix(.1 0 0 -.1 0 267.58)"/><path d="M 3063.984375 1440.01875 C 3066.992188 1370.995312 3068.007812 1335.995312 3068.007812 1335.995312 C 3093.984375 1335.995312 3106.992188 1335.995312 3106.992188 1335.995312" fill="none" stroke="#01c2cb" stroke-linecap="round" stroke-linejoin="round" stroke-miterlimit="22.926" stroke-width="10.001" transform="matrix(.1 0 0 -.1 0 267.58)"/><path d="M 3056.015625 1295.995312 C 3075 1247.010937 3143.007812 1247.9875 3143.984375 1312.010937 C 3111.992188 1299.003125 3080 1295.995312 3056.015625 1295.995312 Z M 3056.015625 1295.995312" fill="none" stroke="#01c2cb" stroke-linecap="round" stroke-linejoin="round" stroke-miterlimit="22.926" stroke-width="10.001" transform="matrix(.1 0 0 -.1 0 267.58)"/><g id="change1_1"><path d="M 295.300781 109.980469 C 298.898438 102.078125 324.800781 102.179688 324.898438 124.179688 C 325.300781 121.980469 326.101562 120.28125 327.199219 119.078125 C 326.898438 106.980469 319.699219 97.378906 301.699219 100.679688 C 299.398438 101.078125 294.398438 107.578125 295.300781 109.980469" fill="#fad206" fill-rule="evenodd"/></g><g id="change1_2"><path d="M 244 193.179688 C 236.800781 243.480469 220 266.78125 196.398438 261.679688 C 191 232.578125 206.800781 209.679688 244 193.179688" fill="#fad206" fill-rule="evenodd"/></g><g id="change5_4"><path d="M 218.699219 133.679688 C 214.199219 130.578125 217.101562 123.578125 217.300781 117.78125 C 217.300781 117.78125 210.699219 113.78125 201.398438 105.679688 C 201.800781 117.179688 198.199219 128.980469 195.800781 132.980469 C 198.199219 138.878906 216.800781 145.78125 218.699219 133.679688" fill="#f2d3b9" fill-rule="evenodd"/></g><g id="change5_5"><path d="M 210.300781 76.78125 C 201.300781 81.679688 198.199219 91.679688 200.898438 106.578125 C 206.601562 115.980469 212.699219 121.078125 219.300781 121.878906 C 226.898438 121.679688 231.699219 109.28125 233.601562 84.78125 C 228.601562 76.679688 220.800781 73.980469 210.300781 76.78125" fill="#f2d3b9" fill-rule="evenodd"/></g><g id="change5_6"><path d="M 204.199219 100.679688 C 202 104.679688 200.800781 106.578125 200.800781 106.578125 C 194.898438 105.28125 192.398438 99.378906 193.398438 95.378906 C 194.898438 89.878906 201.699219 87.378906 204.199219 100.679688" fill="#f2d3b9" fill-rule="evenodd"/></g><g id="change2_6"><path d="M 220.398438 70.28125 C 230 74.078125 234.398438 78.878906 233.601562 84.78125 C 227.199219 76.679688 218.398438 82.78125 211.898438 78.878906 C 207.300781 84.480469 204 95.578125 204.800781 101.679688 C 201.699219 98.980469 201.398438 96.179688 200.300781 91.878906 C 199.800781 75.878906 206.5 68.78125 220.398438 70.28125" fill="#4142a1" fill-rule="evenodd"/></g><path d="M 2168.984375 1772.9875 C 2156.015625 1775.01875 2143.007812 1774.003125 2131.015625 1770.01875" fill="none" stroke="#01c2cb" stroke-linecap="round" stroke-linejoin="round" stroke-miterlimit="22.926" stroke-width="10.001" transform="matrix(.1 0 0 -.1 0 267.58)"/><path d="M 2291.992188 1772.9875 C 2305 1775.01875 2318.007812 1774.003125 2330 1770.01875" fill="none" stroke="#01c2cb" stroke-linecap="round" stroke-linejoin="round" stroke-miterlimit="22.926" stroke-width="10.001" transform="matrix(.1 0 0 -.1 0 267.58)"/><path d="M 2238.007812 1749.003125 C 2236.992188 1659.003125 2236.015625 1615.01875 2236.015625 1615.01875 C 2201.015625 1615.01875 2183.007812 1615.01875 2183.007812 1615.01875" fill="none" stroke="#01c2cb" stroke-linecap="round" stroke-linejoin="round" stroke-miterlimit="22.926" stroke-width="10.001" transform="matrix(.1 0 0 -.1 0 267.58)"/><g id="change3_11"><path d="M 215.898438 96.980469 C 215.898438 97.480469 215.398438 97.878906 214.898438 97.878906 C 214.398438 97.878906 213.898438 97.378906 214 96.78125 L 214.101562 95.378906 C 214.101562 94.878906 214.601562 94.480469 215.101562 94.480469 C 215.601562 94.480469 216.101562 94.980469 216 95.578125 L 215.898438 96.980469" fill="#01c2cb" fill-rule="evenodd"/></g><g id="change3_12"><path d="M 228.898438 96.980469 C 228.898438 97.480469 229.398438 97.878906 229.898438 97.878906 C 230.398438 97.878906 230.898438 97.378906 230.898438 96.78125 L 230.898438 95.378906 C 230.898438 94.878906 230.398438 94.480469 229.898438 94.480469 C 229.398438 94.480469 228.898438 94.980469 228.898438 95.578125 L 228.898438 96.980469" fill="#01c2cb" fill-rule="evenodd"/></g><path d="M 2133.984375 1587.9875 C 2168.007812 1582.9875 2203.984375 1582.9875 2240 1587.010937 C 2226.992188 1517.010937 2141.992188 1520.995312 2133.984375 1587.9875 Z M 2133.984375 1587.9875" fill="none" stroke="#01c2cb" stroke-linecap="round" stroke-linejoin="round" stroke-miterlimit="22.926" stroke-width="10.001" transform="matrix(.1 0 0 -.1 0 267.58)"/><path d="M 2138.984375 1755.01875 C 2111.015625 1755.01875 2088.007812 1732.010937 2088.007812 1702.9875 C 2088.007812 1674.003125 2111.015625 1650.995312 2138.984375 1650.995312 C 2166.992188 1650.995312 2190 1674.003125 2190 1702.9875 C 2190 1732.010937 2166.992188 1755.01875 2138.984375 1755.01875 Z M 2138.984375 1755.01875" fill="none" stroke="#4142a1" stroke-linecap="round" stroke-linejoin="round" stroke-miterlimit="22.926" stroke-width="10.001" transform="matrix(.1 0 0 -.1 0 267.58)"/><path d="M 2310 1755.01875 C 2281.992188 1755.01875 2258.984375 1732.010937 2258.984375 1702.9875 C 2258.984375 1674.003125 2281.992188 1650.995312 2310 1650.995312 C 2338.007812 1650.995312 2361.015625 1674.003125 2361.015625 1702.9875 C 2360 1732.010937 2338.007812 1755.01875 2310 1755.01875 Z M 2310 1755.01875" fill="none" stroke="#4142a1" stroke-linecap="round" stroke-linejoin="round" stroke-miterlimit="22.926" stroke-width="10.001" transform="matrix(.1 0 0 -.1 0 267.58)"/><path d="M 2258.984375 1702.9875 C 2238.007812 1712.9875 2215 1712.9875 2190 1702.9875" fill="none" stroke="#4142a1" stroke-linecap="round" stroke-linejoin="round" stroke-miterlimit="22.926" stroke-width="10.001" transform="matrix(.1 0 0 -.1 0 267.58)"/><path d="M 2440 744.003125 C 2273.984375 474.003125 2116.015625 245.995312 1963.984375 59.003125" fill="none" stroke="#ed0c78" stroke-linecap="round" stroke-linejoin="round" stroke-miterlimit="22.926" stroke-width="10.001" transform="matrix(.1 0 0 -.1 0 267.58)"/><path d="M 2223.984375 624.003125 C 2218.984375 544.003125 2221.015625 475.01875 2228.984375 415.995312 C 2268.007812 417.9875 2318.984375 430.995312 2381.992188 457.9875" fill="none" stroke="#ed0c78" stroke-linecap="round" stroke-linejoin="round" stroke-miterlimit="22.926" stroke-width="10.001" transform="matrix(.1 0 0 -.1 0 267.58)"/><path d="M 2045 450.995312 C 2055 354.003125 2071.015625 277.9875 2091.015625 222.9875 C 2165 224.003125 2233.007812 235.995312 2295 260.01875" fill="none" stroke="#ed0c78" stroke-linecap="round" stroke-linejoin="round" stroke-miterlimit="22.926" stroke-width="10.001" transform="matrix(.1 0 0 -.1 0 267.58)"/><g id="change2_7"><path d="M 124.101562 138.980469 C 112 220.480469 137.898438 262.28125 201.800781 264.378906 C 207.800781 217.980469 181.898438 176.179688 124.101562 138.980469" fill="#4142a1" fill-rule="evenodd"/></g><path d="M 1241.015625 1285.995312 C 1420 675.995312 1678.984375 257.9875 2018.007812 32.010937" fill="none" stroke="#fad206" stroke-linecap="round" stroke-linejoin="round" stroke-miterlimit="22.926" stroke-width="10.001" transform="matrix(.1 0 0 -.1 0 267.58)"/><path d="M 1463.007812 1129.003125 C 1461.015625 992.9875 1453.984375 865.995312 1443.984375 747.010937 C 1356.015625 795.01875 1278.984375 857.9875 1213.007812 937.9875" fill="none" stroke="#fad206" stroke-linecap="round" stroke-linejoin="round" stroke-miterlimit="22.926" stroke-width="10.001" transform="matrix(.1 0 0 -.1 0 267.58)"/><path d="M 1716.015625 895.01875 C 1716.015625 734.003125 1690 572.9875 1638.007812 412.9875 C 1513.007812 414.003125 1390 452.9875 1268.007812 530.01875" fill="none" stroke="#fad206" stroke-linecap="round" stroke-linejoin="round" stroke-miterlimit="22.926" stroke-width="10.001" transform="matrix(.1 0 0 -.1 0 267.58)"/><path d="M 1923.984375 595.01875 C 1911.992188 450.995312 1883.984375 310.995312 1840 175.995312 C 1723.984375 152.010937 1606.992188 160.01875 1486.992188 200.01875" fill="none" stroke="#fad206" stroke-linecap="round" stroke-linejoin="round" stroke-miterlimit="22.926" stroke-width="10.001" transform="matrix(.1 0 0 -.1 0 267.58)"/><g id="change2_8"><path d="M 150.898438 107.980469 C 150.898438 107.980469 147.398438 104.578125 143.800781 103.378906 C 139 101.480469 132.101562 105.179688 123.101562 114.378906 C 115.101562 122.578125 112.199219 132.078125 98.898438 129.28125 C 82.5 125.878906 64.199219 101.679688 57.199219 111.28125 C 60.601562 98.28125 68.300781 96.578125 73.199219 82.078125 C 73.898438 80.078125 74 78.179688 73.601562 76.480469 C 68.898438 68.179688 66 61.480469 64.800781 56.28125 C 63.601562 52.378906 66.800781 43.679688 74.398438 30.179688 C 82.699219 21.078125 98 18.578125 110 22.78125 C 115.300781 24.679688 120 27.878906 123.199219 32.378906 C 134 47.980469 126.898438 61.378906 133.398438 75.980469 C 137.398438 85.679688 149.898438 99.578125 150.898438 107.980469" fill="#4142a1" fill-rule="evenodd"/></g><g id="change5_7"><path d="M 90.601562 84.28125 C 81.800781 78.578125 76.398438 70.980469 74 51.679688 C 74.398438 38.078125 95.601562 37.179688 103.898438 46.980469 C 121 67.078125 94.199219 87.28125 90.601562 84.28125" fill="#f2d3b9" fill-rule="evenodd"/></g><g id="change4_3"><path d="M 109 65.378906 C 110.300781 56.179688 103.699219 49.480469 97 46.679688 C 88.699219 43.179688 74.101562 43.578125 74 51.679688 C 73.300781 39.679688 83.398438 35.679688 93.398438 37.480469 C 107.5 39.980469 114.101562 51.179688 109 65.378906" fill="#ed0c78" fill-rule="evenodd"/></g><g id="change3_13"><path d="M 96.5 57.179688 L 96.601562 58.878906 C 96.699219 59.480469 97.199219 59.980469 97.898438 59.878906 C 98.5 59.78125 99 59.179688 99 58.480469 L 98.898438 56.78125 C 98.800781 56.179688 98.300781 55.679688 97.601562 55.78125 C 96.898438 55.878906 96.398438 56.480469 96.5 57.179688" fill="#01c2cb" fill-rule="evenodd"/></g><path d="M 953.984375 2157.9875 C 966.992188 2160.995312 980 2160.995312 991.992188 2157.9875" fill="none" stroke="#01c2cb" stroke-linecap="round" stroke-linejoin="round" stroke-miterlimit="22.926" stroke-width="10.001" transform="matrix(.1 0 0 -.1 0 267.58)"/><g id="change3_14"><path d="M 81.898438 58.28125 L 82 59.980469 C 82 60.578125 81.5 61.179688 80.898438 61.179688 C 80.199219 61.179688 79.699219 60.679688 79.699219 59.980469 L 79.601562 58.28125 C 79.601562 57.679688 80.101562 57.078125 80.699219 57.078125 C 81.300781 57.078125 81.898438 57.578125 81.898438 58.28125" fill="#01c2cb" fill-rule="evenodd"/></g><path d="M 828.984375 2147.9875 C 816.015625 2149.003125 803.007812 2147.010937 790 2142.010937" fill="none" stroke="#01c2cb" stroke-linecap="round" stroke-linejoin="round" stroke-miterlimit="22.926" stroke-width="10.001" transform="matrix(.1 0 0 -.1 0 267.58)"/><path d="M 868.984375 2125.01875 C 871.015625 2035.01875 871.992188 1990.01875 871.992188 1990.01875 C 908.007812 1992.9875 925 1994.003125 925 1994.003125" fill="none" stroke="#01c2cb" stroke-linecap="round" stroke-linejoin="round" stroke-miterlimit="22.926" stroke-width="10.001" transform="matrix(.1 0 0 -.1 0 267.58)"/><path d="M 868.984375 1949.003125 C 878.984375 1897.9875 948.984375 1895.01875 961.992188 1959.003125 C 926.992188 1949.003125 893.984375 1947.010937 868.984375 1949.003125 Z M 868.984375 1949.003125" fill="none" stroke="#01c2cb" stroke-linecap="round" stroke-linejoin="round" stroke-miterlimit="22.926" stroke-width="10.001" transform="matrix(.1 0 0 -.1 0 267.58)"/><path d="M 898.984375 1890.995312 C 911.015625 1889.003125 923.007812 1890.01875 936.015625 1895.995312" fill="none" stroke="#01c2cb" stroke-linecap="round" stroke-linejoin="round" stroke-miterlimit="22.926" stroke-width="10.001" transform="matrix(.1 0 0 -.1 0 267.58)"/><path d="M 1131.992188 1895.995312 C 1098.007812 1782.9875 1033.984375 1712.9875 941.992188 1685.01875" fill="none" stroke="#ed0c78" stroke-linecap="round" stroke-linejoin="round" stroke-miterlimit="22.926" stroke-width="10.001" transform="matrix(.1 0 0 -.1 0 267.58)"/><path d="M 816.992188 1810.995312 C 888.007812 1737.010937 948.984375 1702.9875 998.007812 1710.01875" fill="none" stroke="#ed0c78" stroke-linecap="round" stroke-linejoin="round" stroke-miterlimit="22.926" stroke-width="10.001" transform="matrix(.1 0 0 -.1 0 267.58)"/><path d="M 895 1590.995312 C 971.015625 1559.003125 1035 1580.01875 1088.984375 1652.010937" fill="none" stroke="#ed0c78" stroke-linecap="round" stroke-linejoin="round" stroke-miterlimit="22.926" stroke-width="10.001" transform="matrix(.1 0 0 -.1 0 267.58)"/><g id="change1_3"><path d="M 60.101562 158.078125 L 60.101562 157.980469 C 53.199219 154.878906 53.398438 136.578125 61.898438 137.679688 C 70.199219 138.679688 66.601562 155.480469 60.898438 157.980469 C 60.898438 158.078125 60.898438 158.078125 60.898438 158.179688 C 60.601562 163.378906 60.800781 168.378906 61.601562 173.378906 C 62.300781 169.878906 64.398438 164.679688 67.199219 161.28125 C 74.800781 152.378906 82.601562 162.179688 74.199219 170.78125 C 70.898438 174.179688 66 176.28125 61.898438 175.078125 C 62.800781 179.78125 64.300781 184.378906 66.199219 188.980469 C 66.601562 189.878906 67 190.878906 67.5 191.78125 C 68 188.28125 70.199219 182.679688 73.300781 178.980469 C 80.898438 170.078125 88.699219 179.878906 80.300781 188.480469 C 77 191.78125 72.199219 193.980469 68.101562 192.78125 C 70.898438 197.980469 74.601562 203.179688 78.601562 208.378906 C 79.101562 204.878906 81.300781 199.179688 84.398438 195.480469 C 92 186.578125 99.800781 196.378906 91.398438 204.980469 C 88.199219 208.28125 83.398438 210.378906 79.300781 209.378906 C 80.699219 211.179688 82.101562 212.980469 83.5 214.78125 C 86.601562 218.578125 89.601562 222.480469 92.5 226.480469 C 93 222.980469 95.199219 217.28125 98.300781 213.578125 C 105.898438 204.679688 113.699219 214.480469 105.300781 223.078125 C 102.101562 226.378906 97.300781 228.578125 93.199219 227.480469 L 95.398438 231.078125 C 95.398438 230.980469 94 230.28125 94 230.28125 C 93.398438 229.480469 92.800781 228.578125 92.199219 227.78125 C 88.300781 236.179688 76.398438 234.28125 74.898438 228.878906 C 73.898438 225.28125 76.800781 223.28125 79.699219 222.878906 C 83.300781 222.28125 87.601562 223.78125 91.199219 226.28125 C 88.5 222.679688 85.699219 219.078125 82.898438 215.480469 C 81.398438 213.578125 79.898438 211.679688 78.398438 209.78125 C 74.5 218.179688 62.601562 216.28125 61 210.878906 C 60 207.28125 62.898438 205.28125 65.800781 204.878906 C 69.300781 204.28125 73.601562 205.78125 77.101562 208.28125 C 73.300781 203.28125 69.800781 198.28125 67.101562 193.28125 C 61.699219 200.878906 50.300781 196.78125 49.800781 191.179688 C 49.5 187.378906 52.699219 186.078125 55.601562 186.179688 C 59.199219 186.28125 63.101562 188.480469 66.199219 191.578125 C 65.898438 190.878906 65.601562 190.28125 65.300781 189.578125 C 63.300781 184.980469 61.898438 180.378906 60.898438 175.679688 C 55.5 183.078125 44.898438 177.980469 44.601562 172.078125 C 44.398438 168.078125 47.5 166.980469 50.300781 167.28125 C 53.898438 167.679688 57.800781 170.578125 60.601562 174.28125 C 60 168.679688 59.699219 163.378906 60.101562 158.078125" fill="#fad206" fill-rule="evenodd"/></g><g id="change3_15"><path d="M 266.699219 115.378906 C 266.699219 115.28125 266.601562 115.179688 266.601562 115.179688 C 271.699219 110.179688 265.5 91.980469 256 96.878906 C 246.199219 101.878906 257.5 118.679688 265.199219 116.078125 C 267.300781 121.679688 268.898438 127.378906 270.300781 132.980469 C 264.199219 122.480469 249.5 122.679688 249.398438 131.980469 C 249.300781 138.480469 261.800781 145.980469 271.898438 139.878906 C 272.800781 144.480469 273.601562 149.078125 274.101562 153.480469 C 274.601562 157.28125 275 160.878906 275.300781 164.378906 C 269 150.78125 250.898438 152.578125 252.199219 162.878906 C 253 169.378906 266.398438 174.878906 275.5 167.480469 C 275.898438 173.78125 276.101562 179.480469 276.199219 184.378906 C 276.199219 186.878906 276.199219 189.378906 276.101562 191.679688 C 272.601562 178.378906 256.101562 175.878906 254.601562 185.679688 C 253.699219 192.078125 265 200.980469 275.699219 196.378906 C 274.898438 204.980469 273.101562 212.480469 270.800781 218.980469 C 269.300781 203.78125 251.300781 199.578125 249.300781 209.878906 C 248.101562 216.28125 258.898438 225.679688 269.800781 221.578125 C 267.101562 228.679688 263.699219 234.78125 260.300781 240.480469 C 259.300781 224.679688 240.800781 220.28125 238.800781 230.679688 C 237.601562 236.980469 248.300781 246.28125 259.101562 242.480469 C 258.398438 243.679688 257.601562 244.878906 256.898438 245.980469 C 254.101562 250.480469 251.5 254.78125 249.300781 259.179688 C 249.898438 259.078125 250.601562 259.078125 251.199219 258.980469 C 253.300781 254.980469 255.699219 250.980469 258.300781 246.78125 C 259.101562 245.480469 259.898438 244.179688 260.699219 242.878906 C 264.300781 250.679688 276.398438 248.578125 279.898438 243.28125 C 285.398438 234.878906 273.398438 229.878906 262.800781 239.378906 C 265.898438 234.078125 268.898438 228.378906 271.398438 221.878906 C 277 228.480469 288.101562 222.980469 290 216.878906 C 292.800781 207.578125 280.699219 205.878906 273.199219 216.980469 C 275.199219 210.878906 276.601562 204.078125 277.398438 196.378906 C 284.601562 201.28125 293.898438 192.980469 294 186.578125 C 294.199219 176.78125 281.898438 178.578125 277.699219 191.480469 C 277.800781 189.179688 277.898438 186.679688 277.800781 184.179688 C 277.699219 179.28125 277.601562 173.578125 277.101562 167.28125 C 284.300781 171.878906 293.300781 163.578125 293.398438 157.28125 C 293.601562 147.179688 280.5 149.378906 276.800781 163.480469 C 276.5 160.078125 276.101562 156.578125 275.699219 152.980469 C 275.101562 148.578125 274.398438 144.078125 273.5 139.480469 C 281.699219 142.179688 288.398438 131.78125 286.800781 125.578125 C 284.398438 116.179688 273.199219 120.980469 272.398438 134.378906 C 270.898438 128.179688 269.101562 121.78125 266.699219 115.378906" fill="#01c2cb" fill-rule="evenodd"/></g></g></svg>