<?xml version="1.0" encoding="UTF-8"?><svg xmlns="http://www.w3.org/2000/svg" xmlns:xlink="http://www.w3.org/1999/xlink" height="328.6" preserveAspectRatio="xMidYMid meet" version="1.0" viewBox="-0.4 0.0 362.3 328.6" width="362.3" zoomAndPan="magnify"><defs><clipPath id="a"><path d="M 299 297 L 338 297 L 338 328.648438 L 299 328.648438 Z M 299 297"/></clipPath><clipPath id="b"><path d="M 289 134 L 361.941406 134 L 361.941406 289 L 289 289 Z M 289 134"/></clipPath></defs><g><g id="change1_2"><path d="M 86.71875 156.800781 C 84.917969 164.300781 78.71875 168.902344 68.117188 170.800781 C 61.917969 159.703125 62.816406 150.503906 70.71875 143.203125 C 75.816406 138.300781 76.617188 131.800781 73.117188 123.800781 C 71.417969 119.300781 72.316406 114.902344 75.816406 110.800781 C 81.015625 104.503906 87.917969 103.402344 91.21875 96.402344 C 92.617188 93.402344 92.71875 89.402344 94.71875 86.902344 C 97.917969 83.101562 98.515625 89.902344 98.71875 91.703125 C 99.015625 94.101562 99.015625 95.902344 98.816406 97.300781 C 98.21875 101.601562 95.617188 102.601562 93.417969 109.300781 C 92.71875 111.503906 92.71875 113.601562 93.515625 115.601562 C 94.515625 118.703125 94.917969 121.503906 94.71875 124.101562 C 94.316406 129.800781 90.71875 132.503906 88.21875 135.601562 C 82.816406 142.300781 88.917969 147.800781 86.71875 156.800781" fill="#ed0c78" fill-rule="evenodd"/></g><g id="change2_1"><path d="M 96.617188 85.902344 C 96.617188 85.703125 96.917969 85.601562 97.117188 85.601562 C 97.316406 85.601562 97.417969 85.902344 97.417969 86.101562 C 95.21875 96.003906 92.21875 101.101562 89.316406 106.101562 C 88.515625 107.503906 87.71875 108.902344 86.917969 110.402344 C 87.816406 110.203125 88.816406 109.902344 89.816406 109.503906 C 91.117188 108.902344 92.515625 108.203125 94.015625 107.203125 C 94.21875 107.101562 94.417969 107.101562 94.515625 107.300781 C 94.617188 107.503906 94.617188 107.703125 94.417969 107.800781 C 92.917969 108.800781 91.417969 109.503906 90.117188 110.101562 C 88.816406 110.601562 87.617188 111.003906 86.417969 111.203125 C 85.316406 113.402344 84.117188 115.902344 83.117188 119.003906 C 82.71875 120.300781 82.316406 121.703125 81.917969 123.003906 C 80.816406 127.300781 80.316406 131.503906 79.816406 135.800781 C 82.316406 134.703125 84.71875 133.601562 86.917969 132.402344 C 89.316406 131.101562 91.515625 129.601562 93.515625 128.101562 C 93.71875 128.003906 93.917969 128.003906 94.015625 128.203125 C 94.117188 128.402344 94.117188 128.601562 93.917969 128.703125 C 91.917969 130.300781 89.617188 131.703125 87.21875 133.101562 C 84.917969 134.402344 82.316406 135.601562 79.617188 136.703125 L 79.515625 137.800781 C 78.617188 145.503906 77.71875 153.203125 74.417969 160.902344 C 77.417969 160.203125 79.917969 159.003906 81.917969 157.300781 C 84.117188 155.503906 85.617188 153.003906 86.617188 150.003906 C 86.71875 149.800781 86.917969 149.703125 87.117188 149.703125 C 87.316406 149.800781 87.417969 150.003906 87.417969 150.203125 C 86.417969 153.402344 84.71875 155.902344 82.417969 157.902344 C 80.21875 159.800781 77.417969 161.101562 74.015625 161.703125 C 72.617188 164.800781 70.816406 167.902344 68.316406 171.003906 C 68.21875 171.203125 67.917969 171.203125 67.816406 171.101562 C 67.617188 171.003906 67.617188 170.703125 67.71875 170.601562 C 72.117188 165.003906 74.617188 159.300781 76.117188 153.601562 C 75.316406 152.300781 74.617188 150.703125 73.917969 148.703125 C 73.21875 146.703125 72.515625 144.402344 71.816406 141.800781 C 71.71875 141.601562 71.917969 141.402344 72.117188 141.300781 C 72.316406 141.203125 72.515625 141.402344 72.617188 141.601562 C 73.316406 144.203125 74.015625 146.503906 74.71875 148.503906 C 75.316406 150.003906 75.917969 151.402344 76.515625 152.503906 C 77.71875 147.601562 78.21875 142.703125 78.816406 137.902344 C 79.417969 133.003906 79.917969 128.101562 81.117188 123.203125 C 78.515625 119.101562 76.71875 115.101562 75.417969 111.101562 C 75.316406 110.902344 75.515625 110.703125 75.71875 110.601562 C 75.917969 110.503906 76.117188 110.703125 76.21875 110.902344 C 77.316406 114.601562 79.117188 118.402344 81.417969 122.203125 C 81.71875 121.101562 82.015625 120.101562 82.316406 119.003906 C 83.417969 115.800781 84.515625 113.203125 85.71875 110.902344 C 86.617188 109.101562 87.617188 107.503906 88.515625 105.902344 C 91.417969 100.703125 94.316406 95.703125 96.617188 85.902344" fill="#fad206" fill-rule="evenodd"/></g><g id="change2_2"><path d="M 48.117188 125.503906 C 49.816406 135.703125 57.71875 142.503906 71.617188 146.003906 C 80.917969 131.800781 80.617188 119.402344 70.816406 109.003906 C 64.417969 101.902344 64.015625 93.203125 69.515625 82.902344 C 72.117188 77.003906 71.417969 71.101562 67.21875 65.300781 C 60.816406 56.300781 51.71875 54.101562 48.015625 44.503906 C 46.417969 40.300781 46.71875 35.101562 44.21875 31.503906 C 40.417969 26.101562 38.917969 35.101562 38.417969 37.503906 C 37.816406 40.703125 37.617188 43.101562 37.71875 45.003906 C 38.117188 50.800781 41.417969 52.402344 43.71875 61.503906 C 44.417969 64.402344 44.21875 67.300781 43.015625 69.902344 C 41.417969 74.003906 40.617188 77.703125 40.617188 81.101562 C 40.617188 88.800781 45.117188 92.601562 48.21875 97.101562 C 54.71875 106.601562 46.015625 113.300781 48.117188 125.503906" fill="#fad206" fill-rule="evenodd"/></g><g id="change1_3"><path d="M 41.816406 29.902344 C 41.816406 29.601562 41.515625 29.402344 41.21875 29.503906 C 40.917969 29.601562 40.71875 29.800781 40.816406 30.101562 C 42.816406 43.503906 46.316406 50.601562 49.71875 57.601562 C 50.71875 59.601562 51.617188 61.503906 52.515625 63.601562 C 51.316406 63.300781 50.015625 62.703125 48.71875 62.101562 C 47.015625 61.203125 45.21875 60.101562 43.316406 58.703125 C 43.117188 58.503906 42.71875 58.601562 42.617188 58.800781 C 42.417969 59.003906 42.515625 59.402344 42.71875 59.503906 C 44.617188 60.902344 46.515625 62.101562 48.21875 63.003906 C 49.917969 63.902344 51.515625 64.503906 53.015625 64.800781 C 54.316406 67.902344 55.617188 71.300781 56.617188 75.503906 C 57.117188 77.300781 57.417969 79.101562 57.816406 81.003906 C 58.816406 86.800781 59.117188 92.601562 59.417969 98.300781 C 56.117188 96.601562 53.117188 94.902344 50.316406 93.003906 C 47.316406 91.003906 44.515625 88.902344 41.917969 86.601562 C 41.71875 86.402344 41.417969 86.402344 41.21875 86.601562 C 41.015625 86.800781 41.015625 87.101562 41.21875 87.300781 C 43.816406 89.601562 46.617188 91.703125 49.71875 93.800781 C 52.71875 95.800781 55.917969 97.601562 59.417969 99.402344 L 59.515625 100.800781 C 59.917969 111.101562 60.316406 121.503906 64.015625 132.101562 C 60.117188 130.902344 56.816406 129.101562 54.316406 126.601562 C 51.617188 123.902344 49.71875 120.503906 48.71875 116.402344 C 48.617188 116.101562 48.316406 115.902344 48.117188 116.003906 C 47.816406 116.101562 47.617188 116.402344 47.71875 116.601562 C 48.816406 121.003906 50.71875 124.503906 53.617188 127.300781 C 56.417969 130.003906 60.015625 132.003906 64.417969 133.203125 C 66.015625 137.503906 68.117188 141.800781 71.015625 146.101562 C 71.21875 146.300781 71.515625 146.402344 71.71875 146.203125 C 71.917969 146.003906 72.015625 145.703125 71.816406 145.503906 C 66.515625 137.601562 63.71875 129.703125 62.316406 122.003906 C 63.417969 120.300781 64.617188 118.203125 65.71875 115.703125 C 66.917969 113.101562 68.015625 110.101562 69.21875 106.703125 C 69.316406 106.402344 69.117188 106.101562 68.917969 106.003906 C 68.617188 105.902344 68.316406 106.101562 68.21875 106.300781 C 67.015625 109.703125 65.917969 112.703125 64.71875 115.300781 C 63.816406 117.300781 62.917969 119.003906 62.015625 120.503906 C 60.917969 113.902344 60.617188 107.300781 60.316406 100.703125 C 60.015625 94.101562 59.816406 87.503906 58.617188 80.800781 C 62.417969 75.601562 65.316406 70.503906 67.316406 65.203125 C 67.417969 64.902344 67.316406 64.601562 67.015625 64.503906 C 66.71875 64.402344 66.417969 64.503906 66.316406 64.800781 C 64.417969 69.703125 61.816406 74.503906 58.316406 79.300781 C 58.015625 77.902344 57.71875 76.402344 57.316406 74.902344 C 56.21875 70.503906 54.917969 67.003906 53.515625 63.800781 C 52.417969 61.300781 51.316406 59.101562 50.21875 56.800781 C 47.21875 50.101562 43.816406 43.203125 41.816406 29.902344" fill="#ed0c78" fill-rule="evenodd"/></g><g id="change1_4"><path d="M 75.515625 161.300781 C 75.015625 164.402344 74.21875 167.402344 73.316406 170.300781 C 48.816406 162.601562 58.917969 146.300781 50.816406 137.503906 C 47.515625 133.902344 43.21875 136.101562 39.117188 129.503906 C 35.316406 123.300781 37.21875 117.703125 31.816406 110.503906 C 26.015625 102.800781 19.417969 105.402344 14.71875 93.503906 C 12.917969 88.902344 12.117188 83.203125 12.21875 76.503906 C 12.21875 68.601562 9.316406 61.601562 3.515625 55.601562 C 0.71875 53.101562 -0.382812 50.300781 0.117188 46.902344 C 1.015625 40.503906 2.515625 39.703125 5.71875 45.402344 C 6.515625 46.902344 7.515625 48.601562 8.816406 49.800781 C 12.117188 52.902344 16.316406 55.503906 19.617188 59.101562 C 21.316406 60.902344 22.71875 62.703125 23.816406 64.402344 C 27.617188 70.101562 26.71875 73.902344 29.417969 78.703125 C 31.417969 82.300781 35.71875 83.300781 39.015625 85.402344 C 41.816406 87.203125 44.117188 89.203125 46.015625 91.300781 C 53.515625 100.101562 49.316406 105.003906 53.21875 113.003906 C 56.21875 119.101562 64.617188 120.601562 70.417969 129.800781 C 75.417969 138.003906 77.117188 148.503906 75.515625 161.300781" fill="#ed0c78" fill-rule="evenodd"/></g><g id="change2_3"><path d="M 1.417969 41.703125 C 1.417969 41.402344 1.617188 41.203125 1.917969 41.203125 C 2.21875 41.203125 2.417969 41.402344 2.417969 41.703125 C 2.515625 47.402344 10.417969 58.203125 17.015625 67.101562 C 19.71875 70.800781 22.21875 74.101562 23.816406 76.703125 C 25.816406 79.800781 27.515625 82.800781 29.117188 85.703125 C 30.71875 88.601562 32.117188 91.402344 33.316406 94.203125 C 34.117188 95.800781 34.917969 97.402344 35.71875 98.902344 C 36.617188 96.503906 37.21875 94.203125 37.617188 92.003906 C 38.015625 89.503906 38.21875 87.300781 37.917969 85.203125 C 37.917969 84.902344 38.117188 84.703125 38.417969 84.601562 C 38.71875 84.601562 38.917969 84.800781 39.015625 85.101562 C 39.21875 87.300781 39.117188 89.703125 38.617188 92.203125 C 38.21875 94.703125 37.417969 97.300781 36.316406 100.101562 C 37.015625 101.402344 37.71875 102.703125 38.417969 103.902344 C 40.117188 106.902344 41.816406 109.703125 43.515625 112.300781 C 44.117188 113.300781 44.816406 114.203125 45.417969 115.101562 C 48.617188 119.601562 51.816406 123.503906 54.816406 127.203125 C 55.316406 125.902344 55.617188 124.503906 55.71875 122.902344 C 55.917969 121.003906 55.71875 119.003906 55.316406 116.703125 C 55.316406 116.402344 55.417969 116.101562 55.71875 116.101562 C 56.015625 116.101562 56.316406 116.203125 56.316406 116.503906 C 56.71875 118.800781 56.816406 121.003906 56.71875 122.902344 C 56.515625 124.800781 56.117188 126.503906 55.515625 128.003906 C 64.71875 139.101562 72.417969 148.703125 73.617188 170.003906 C 73.617188 170.300781 73.417969 170.503906 73.117188 170.503906 C 72.816406 170.503906 72.617188 170.300781 72.617188 170.003906 C 72.117188 160.300781 70.117188 153.003906 67.316406 146.902344 C 64.515625 146.703125 61.917969 146.101562 59.417969 145.203125 C 56.917969 144.300781 54.617188 142.902344 52.515625 141.300781 C 52.316406 141.101562 52.21875 140.800781 52.417969 140.601562 C 52.617188 140.402344 52.917969 140.300781 53.117188 140.503906 C 55.117188 142.101562 57.316406 143.402344 59.71875 144.300781 C 61.816406 145.101562 64.21875 145.601562 66.71875 145.902344 C 63.417969 139.101562 58.917969 133.800781 54.117188 128.003906 C 51.015625 124.300781 47.816406 120.402344 44.617188 115.902344 C 42.816406 116.203125 41.015625 116.101562 39.015625 115.503906 C 36.917969 114.902344 34.71875 113.800781 32.316406 112.300781 C 32.117188 112.101562 32.015625 111.800781 32.21875 111.601562 C 32.417969 111.402344 32.71875 111.300781 32.917969 111.503906 C 35.21875 113.003906 37.316406 114.003906 39.316406 114.601562 C 41.015625 115.101562 42.515625 115.203125 44.015625 115.003906 C 43.515625 114.300781 43.015625 113.601562 42.515625 112.800781 C 40.816406 110.203125 39.117188 107.402344 37.417969 104.402344 C 35.71875 101.402344 33.917969 98.101562 32.21875 94.601562 C 31.015625 91.902344 29.617188 89.101562 28.117188 86.203125 C 27.117188 84.402344 26.117188 82.601562 25.015625 80.703125 C 22.917969 80.101562 20.71875 79.203125 18.515625 77.902344 C 16.21875 76.601562 13.917969 74.902344 11.515625 72.800781 C 11.316406 72.601562 11.316406 72.300781 11.515625 72.101562 C 11.71875 71.902344 12.015625 71.902344 12.21875 72.101562 C 14.515625 74.203125 16.816406 75.800781 19.117188 77.101562 C 20.917969 78.101562 22.617188 78.902344 24.316406 79.503906 C 23.917969 78.800781 23.417969 78.101562 23.015625 77.300781 C 21.417969 74.800781 18.917969 71.402344 16.21875 67.800781 C 9.617188 58.703125 1.515625 47.703125 1.417969 41.703125" fill="#fad206" fill-rule="evenodd"/></g><g id="change3_1"><path d="M 48.316406 158.300781 L 98.316406 158.300781 L 98.316406 316.703125 L 48.316406 316.703125 L 48.316406 158.300781" fill="#01c2cb" fill-rule="evenodd"/></g><g id="change4_1"><path d="M 48.316406 158.300781 L 65.316406 158.300781 L 65.316406 316.703125 L 48.316406 316.703125 L 48.316406 158.300781" fill="#4142a1" fill-rule="evenodd"/></g><g id="change1_5"><path d="M 120.816406 7.503906 L 120.816406 142.800781 L 311.917969 142.800781 L 311.917969 7.503906 Z M 112.917969 0.00390625 L 319.816406 0.00390625 L 319.816406 150.300781 L 112.917969 150.300781 L 112.917969 0.00390625" fill="#ed0c78" fill-rule="evenodd"/></g><path d="M 1208.164062 3211.460938 L 3119.179688 3211.460938 L 3119.179688 1858.492188 L 1208.164062 1858.492188 Z M 1208.164062 3211.460938" fill="none" stroke="#ed0c78" stroke-linecap="round" stroke-linejoin="round" stroke-miterlimit="22.926" stroke-width="2.16" transform="matrix(.1 0 0 -.1 0 328.65)"/><g id="change5_1"><path d="M 305.015625 308.703125 C 312.015625 309.601562 315.617188 310.003906 315.617188 310.003906 C 315.617188 310.003906 316.917969 297.800781 319.617188 273.402344 C 307.71875 273.902344 301.816406 274.101562 301.816406 274.101562 C 303.917969 297.203125 305.015625 308.703125 305.015625 308.703125" fill="#f2d3b9" fill-rule="evenodd"/></g><g id="change3_2"><path d="M 282.316406 323.5 C 283.816406 326.300781 318.816406 325 319.917969 322 C 319.515625 318.703125 317.515625 312.703125 316.816406 307.503906 C 318.515625 299.402344 319.015625 294.800781 319.015625 294.800781 C 316.816406 293.800781 306.316406 293.503906 301.816406 294.101562 C 302.515625 299.203125 303.117188 304.300781 303.617188 309.402344 C 301.617188 313.300781 290.71875 315.101562 284.71875 320 C 283.316406 321.203125 282.316406 322.402344 282.316406 323.5" fill="#01c2cb" fill-rule="evenodd"/></g><g id="change5_2"><path d="M 322.417969 312.203125 C 329.417969 313.101562 333.015625 313.503906 333.015625 313.503906 C 333.015625 313.503906 334.316406 301.300781 337.015625 276.902344 C 325.117188 277.402344 319.21875 277.601562 319.21875 277.601562 C 321.316406 300.703125 322.417969 312.203125 322.417969 312.203125" fill="#f2d3b9" fill-rule="evenodd"/></g><g clip-path="url(#a)" id="change3_7"><path d="M 299.617188 327.101562 C 301.117188 329.902344 336.117188 328.601562 337.21875 325.601562 C 336.816406 322.300781 334.816406 316.300781 334.117188 311.101562 C 335.816406 303.003906 336.617188 299.003906 336.617188 299.003906 C 335.015625 297.800781 321.71875 296.703125 319.21875 297.703125 C 319.917969 302.800781 320.515625 307.902344 321.015625 313.003906 C 319.015625 316.902344 308.117188 318.703125 302.117188 323.601562 C 300.617188 324.800781 299.71875 325.902344 299.617188 327.101562" fill="#01c2cb" fill-rule="evenodd"/></g><g id="change5_3"><path d="M 308.617188 81.800781 C 312.816406 96.902344 314.917969 104.402344 314.917969 104.402344 C 314.917969 104.402344 311.71875 116.003906 305.417969 139.101562 C 304.316406 142.902344 289.917969 148.402344 261.816406 160.902344 C 262.816406 177.203125 261.117188 179.703125 260.417969 180.101562 C 256.417969 178.902344 250.417969 165.902344 252.515625 159.203125 C 254.316406 153.300781 274.417969 139.402344 279.816406 136.101562 C 284.117188 133.402344 288.816406 130.703125 293.917969 128.003906 C 293.917969 128.003906 295.917969 118.203125 299.917969 98.703125 C 301.515625 89.800781 304.417969 84.203125 308.617188 81.800781" fill="#f2d3b9" fill-rule="evenodd"/></g><g clip-path="url(#b)" id="change1_1"><path d="M 361.816406 285.601562 C 363.117188 270.703125 354.316406 174.003906 344.316406 134.601562 C 320.015625 143.101562 307.816406 147.300781 307.816406 147.300781 C 296.917969 171.902344 292.917969 246.101562 289.21875 281.703125 C 290.316406 285.003906 301.816406 283.601562 306.316406 284.300781 C 312.015625 285.300781 314.71875 286.703125 318.417969 287.503906 C 326.117188 289.101562 334.316406 287.003906 341.917969 285.601562 C 348.617188 284.300781 361.015625 286.402344 361.816406 285.601562" fill="#ed0c78" fill-rule="evenodd"/></g><g id="change2_4"><path d="M 309.21875 81.703125 L 315.515625 104.300781 C 315.515625 104.402344 315.515625 104.503906 315.515625 104.601562 L 306.015625 139.300781 C 305.316406 142.003906 298.816406 145.300781 286.515625 150.800781 C 285.816406 151.300781 280.617188 136.601562 280.71875 134.902344 C 284.816406 132.402344 289.117188 130.003906 293.417969 127.703125 L 299.316406 98.601562 C 300.417969 92.703125 302.71875 84.402344 308.417969 81.300781 C 308.71875 81.101562 309.117188 81.300781 309.21875 81.703125" fill="#fad206" fill-rule="evenodd"/></g><g id="change2_5"><path d="M 338.316406 77.902344 C 341.71875 91.902344 343.417969 99.003906 343.417969 99.003906 C 343.417969 99.003906 344.515625 110.503906 346.617188 133.503906 C 346.816406 135.300781 348.417969 149.601562 348.316406 150.003906 C 345.816406 157.203125 306.417969 156.601562 307.21875 146.003906 C 309.515625 135.703125 309.816406 126.800781 308.316406 121.003906 C 306.417969 113.902344 303.015625 111.402344 303.917969 107.503906 C 305.316406 102.203125 307.617188 82.800781 308.617188 81.203125 C 311.917969 79.902344 315.316406 78.402344 318.71875 76.601562 C 318.71875 76.601562 322.515625 76.003906 330.117188 74.902344 C 330.21875 74.902344 332.917969 75.902344 338.316406 77.902344" fill="#fad206" fill-rule="evenodd"/></g><g id="change5_4"><path d="M 307.917969 51.601562 C 307.617188 53.703125 307.015625 55.300781 306.21875 56.203125 C 306.015625 57.003906 306.816406 57.902344 308.617188 58.601562 C 308.515625 62.300781 308.21875 65.402344 308.816406 67.503906 C 310.617188 73.503906 321.417969 65.703125 323.21875 61.800781 C 328.117188 51.503906 322.816406 44.902344 317.515625 42.703125 C 315.316406 41.800781 312.816406 41.703125 310.71875 42.800781 C 307.015625 45.003906 308.515625 47.503906 307.917969 51.601562" fill="#f2d3b9" fill-rule="evenodd"/></g><g id="change5_5"><path d="M 316.71875 68.101562 C 315.015625 55.800781 318.417969 52.203125 327.21875 57.300781 C 327.417969 60.402344 329.71875 62.800781 330.816406 66.703125 C 331.617188 69.503906 331.21875 73.601562 331.71875 77.003906 C 331.015625 79.902344 319.316406 80.003906 318.816406 77.300781 C 319.71875 70.203125 319.015625 67.203125 316.71875 68.101562" fill="#f2d3b9" fill-rule="evenodd"/></g><g id="change3_3"><path d="M 323.917969 64.402344 C 321.117188 73.601562 343.515625 71.402344 344.015625 65.203125 C 342.816406 63.402344 341.515625 60.300781 340.117188 56.003906 C 338.417969 50.902344 337.71875 42.601562 335.617188 39.101562 C 334.515625 37.203125 332.917969 35.703125 330.917969 34.601562 C 326.71875 32.703125 322.617188 33.101562 318.515625 35.503906 C 310.816406 33.902344 306.21875 37.402344 304.917969 45.902344 C 308.21875 47.503906 312.617188 48.300781 318.21875 48.203125 C 319.21875 49.800781 319.417969 53.203125 318.816406 58.203125 C 319.917969 56.003906 320.417969 53.601562 320.316406 51.203125 C 325.316406 53.300781 325.21875 60.003906 323.917969 64.402344" fill="#01c2cb" fill-rule="evenodd"/></g><g id="change5_6"><path d="M 320.316406 51.203125 C 321.816406 54.703125 322.015625 58.101562 322.015625 58.101562 C 329.015625 56.300781 327.617188 47.703125 324.015625 47.402344 C 322.71875 47.203125 321.417969 48.203125 320.316406 51.203125" fill="#f2d3b9" fill-rule="evenodd"/></g><g id="change3_4"><path d="M 273.316406 16.601562 L 299.417969 16.601562 L 299.417969 35.003906 L 273.316406 35.003906 L 273.316406 16.601562" fill="#01c2cb" fill-rule="evenodd"/></g><g id="change1_6"><path d="M 273.316406 46.203125 L 299.417969 46.203125 L 299.417969 64.601562 L 273.316406 64.601562 L 273.316406 46.203125" fill="#ed0c78" fill-rule="evenodd"/></g><g id="change1_7"><path d="M 273.316406 75.703125 L 299.417969 75.703125 L 299.417969 94.101562 L 273.316406 94.101562 L 273.316406 75.703125" fill="#ed0c78" fill-rule="evenodd"/></g><path d="M 3184.179688 132.476563 C 3136.171875 106.460938 3036.171875 75.484375 3006.171875 37.476563" fill="none" stroke="#ed0c78" stroke-linecap="round" stroke-linejoin="round" stroke-miterlimit="22.926" stroke-width="10.001" transform="matrix(.1 0 0 -.1 0 328.65)"/><g id="change5_7"><path d="M 319.71875 189.101562 C 317.417969 184.203125 320.917969 180.703125 318.117188 174.902344 C 337.515625 156.503906 349.117188 141.800781 353.015625 130.902344 C 352.21875 97.703125 347.316406 80.300781 338.316406 78.601562 C 330.417969 81.402344 331.015625 97.003906 339.917969 125.300781 C 330.617188 138.203125 321.71875 151.902344 313.015625 166.300781 C 312.015625 168.003906 311.015625 169.703125 310.015625 171.402344 C 309.21875 173.601562 309.21875 178.902344 310.316406 183.800781 C 312.617188 193.800781 318.617188 193.402344 320.816406 192.902344 C 323.21875 192.402344 320.617188 190.902344 319.71875 189.101562" fill="#f2d3b9" fill-rule="evenodd"/></g><g id="change2_6"><path d="M 326.617188 143.601562 C 330.71875 137.300781 335.015625 131.203125 339.316406 125.203125 C 334.917969 111.101562 332.515625 100.203125 332.316406 92.402344 C 332.015625 84.402344 334.015625 79.601562 338.117188 78.003906 C 338.21875 78.003906 338.316406 77.902344 338.515625 78.003906 C 343.21875 78.902344 346.917969 83.800781 349.417969 92.800781 C 351.917969 101.503906 353.316406 114.203125 353.71875 130.800781 C 353.71875 130.902344 353.71875 131.003906 353.71875 131.101562 C 351.617188 136.902344 347.417969 143.703125 341.117188 151.601562 C 340.316406 153.503906 327.316406 145.800781 326.617188 143.601562" fill="#fad206" fill-rule="evenodd"/></g><path d="M 3325.15625 2419.46875 C 3315.15625 2335.484375 3338.164062 2207.476563 3393.164062 2034.46875 C 3339.179688 1958.492188 3297.1875 1897.476563 3266.171875 1850.484375 C 3312.1875 1804.46875 3360.15625 1777.476563 3409.179688 1770.484375" fill="none" stroke="#ed0c78" stroke-linecap="round" stroke-linejoin="round" stroke-miterlimit="22.926" stroke-width="10.001" transform="matrix(.1 0 0 -.1 0 328.65)"/><path d="M 3476.171875 1862.476563 C 3454.179688 1829.46875 3432.1875 1799.46875 3409.179688 1770.484375" fill="none" stroke="#ed0c78" stroke-linecap="round" stroke-linejoin="round" stroke-miterlimit="22.926" stroke-width="10.001" transform="matrix(.1 0 0 -.1 0 328.65)"/><path d="M 3093.164062 2014.46875 C 3090.15625 2066.460938 3074.179688 2117.476563 3045.15625 2168.492188 C 3026.171875 2204.46875 3064.179688 2358.492188 3072.1875 2408.492188" fill="none" stroke="#ed0c78" stroke-linecap="round" stroke-linejoin="round" stroke-miterlimit="22.926" stroke-width="10.001" transform="matrix(.1 0 0 -.1 0 328.65)"/><g id="change1_8"><path d="M 147.816406 314.800781 C 148.417969 315.902344 148.21875 319.703125 146.316406 320.300781 C 134.117188 321.902344 124.917969 320.902344 121.015625 317.800781 C 121.015625 317.800781 121.015625 318.503906 121.117188 320 C 117.816406 321.300781 114.417969 321.203125 110.917969 319.800781 C 110.015625 318.003906 112.917969 288.003906 111.816406 272.601562 C 122.515625 272.703125 129.21875 280.503906 129.21875 280.503906 C 128.917969 288.003906 128.816406 292.800781 129.117188 294.902344 C 129.417969 298.101562 131.417969 301.503906 134.917969 305.003906 C 137.816406 307.800781 147.617188 313.402344 147.816406 314.800781" fill="#ed0c78" fill-rule="evenodd"/></g><g id="change1_9"><path d="M 109.117188 314.703125 C 109.515625 315.800781 108.71875 319.601562 106.816406 320.203125 C 94.417969 321.800781 85.316406 320.800781 81.917969 317.703125 C 81.917969 317.703125 81.816406 318.402344 81.71875 319.902344 C 78.21875 321.203125 74.816406 321.101562 71.515625 319.703125 C 70.917969 317.902344 78.21875 287.902344 79.316406 272.503906 C 90.015625 272.601562 95.617188 280.402344 95.617188 280.402344 C 94.21875 287.902344 93.417969 292.703125 93.417969 294.800781 C 93.316406 298.003906 94.71875 301.402344 97.71875 304.902344 C 100.117188 307.703125 109.015625 313.300781 109.117188 314.703125" fill="#ed0c78" fill-rule="evenodd"/></g><g id="change4_2"><path d="M 91.117188 121.503906 C 99.316406 128.800781 108.816406 146.703125 119.71875 175.203125 C 114.316406 204.703125 106.015625 241.902344 94.617188 286.902344 C 90.117188 288.902344 84.117188 288.503906 76.71875 285.800781 C 76.71875 285.800781 80.015625 254.101562 86.71875 190.601562 C 81.117188 167.101562 82.515625 144.101562 91.117188 121.503906" fill="#4142a1" fill-rule="evenodd"/></g><g id="change1_10"><path d="M 87.417969 79.703125 C 102.617188 86.601562 106.71875 101.402344 99.816406 124.203125 C 91.917969 122.402344 86.316406 119.902344 82.917969 116.902344 C 81.917969 114.601562 83.316406 102.203125 87.417969 79.703125" fill="#ed0c78" fill-rule="evenodd"/></g><g id="change4_3"><path d="M 131.117188 16.601562 L 157.21875 16.601562 L 157.21875 35.003906 L 131.117188 35.003906 L 131.117188 16.601562" fill="#4142a1" fill-rule="evenodd"/></g><g id="change3_5"><path d="M 183.21875 34.402344 L 209.316406 34.402344 L 209.316406 52.800781 L 183.21875 52.800781 L 183.21875 34.402344" fill="#01c2cb" fill-rule="evenodd"/></g><g id="change5_8"><path d="M 174.316406 58.101562 C 175.515625 61.503906 177.71875 63.902344 179.316406 66.503906 C 182.917969 62.101562 184.917969 60.300781 186.617188 59.300781 C 191.515625 56.402344 202.21875 53.101562 204.117188 47.203125 C 204.917969 44.601562 203.316406 41.402344 197.917969 39.902344 C 194.617188 39.003906 191.015625 39.101562 189.617188 41.101562 C 188.816406 42.402344 187.617188 44.601562 186.117188 46.300781 C 183.417969 49.503906 179.515625 53.003906 174.316406 58.101562" fill="#f2d3b9" fill-rule="evenodd"/></g><g id="change4_4"><path d="M 131.117188 46.203125 L 157.21875 46.203125 L 157.21875 64.601562 L 131.117188 64.601562 L 131.117188 46.203125" fill="#4142a1" fill-rule="evenodd"/></g><g id="change4_5"><path d="M 93.316406 120.902344 C 109.816406 119.703125 118.015625 119.101562 118.015625 119.101562 C 131.917969 144.902344 135.417969 201.800781 130.316406 285.503906 C 124.71875 288.203125 112.117188 287.101562 111.515625 285.503906 C 111.515625 285.503906 108.617188 254.003906 102.917969 191.003906 C 87.917969 165.402344 84.71875 142.003906 93.316406 120.902344" fill="#4142a1" fill-rule="evenodd"/></g><g id="change3_6"><path d="M 90.917969 78.703125 C 95.816406 66.101562 107.417969 69.101562 125.816406 87.601562 C 126.617188 94.601562 124.917969 100.902344 120.71875 106.402344 C 120.316406 110.503906 120.816406 115.601562 122.21875 121.800781 C 124.617188 127.003906 118.316406 129.300781 103.417969 128.601562 C 94.617188 128.402344 90.117188 126.503906 89.816406 122.902344 C 91.515625 112.203125 91.917969 97.402344 90.917969 78.703125" fill="#01c2cb" fill-rule="evenodd"/></g><g id="change1_11"><path d="M 118.917969 72.902344 C 110.117188 66.300781 104.21875 72.003906 103.917969 78.101562 C 103.816406 80.003906 104.21875 81.902344 105.316406 83.503906 C 111.515625 90.402344 134.816406 100.003906 143.71875 97.800781 C 148.71875 97.800781 168.816406 85.601562 182.816406 63.402344 C 183.117188 61.402344 179.71875 55.902344 176.917969 55.003906 C 162.21875 65.203125 148.617188 75.402344 141.117188 82.703125 C 133.917969 79.300781 128.21875 75.101562 118.917969 72.902344" fill="#ed0c78" fill-rule="evenodd"/></g><g id="change4_6"><path d="M 85.515625 93.300781 C 79.417969 94.203125 83.515625 74.402344 84.617188 71.101562 C 86.71875 65.101562 89.917969 59.503906 92.816406 52.300781 C 95.617188 45.402344 91.21875 44.203125 89.515625 36.703125 C 87.71875 29.101562 89.71875 22.800781 94.417969 19.402344 C 100.21875 15.203125 110.917969 15.203125 117.117188 20.101562 C 121.21875 23.300781 123.316406 28.503906 121.117188 36.101562 C 117.917969 40.203125 117.515625 45.300781 120.117188 51.601562 C 120.117188 54.800781 119.117188 57.203125 117.117188 58.800781 C 115.316406 60.902344 115.917969 65.601562 119.015625 72.902344 C 114.515625 71.402344 110.816406 71.402344 107.816406 72.902344 C 101.316406 76.300781 97.117188 91.503906 85.515625 93.300781" fill="#4142a1" fill-rule="evenodd"/></g><g id="change4_7"><path d="M 131.117188 108.902344 L 157.21875 108.902344 L 157.21875 127.300781 L 131.117188 127.300781 L 131.117188 108.902344" fill="#4142a1" fill-rule="evenodd"/></g><g id="change5_9"><path d="M 121.015625 35.601562 C 121.316406 37.703125 121.917969 39.300781 122.71875 40.203125 C 122.917969 41.003906 122.117188 41.902344 120.316406 42.601562 C 120.417969 46.300781 120.316406 49.300781 120.117188 51.503906 C 119.117188 59.402344 109.316406 51.300781 107.117188 46.703125 C 102.21875 36.402344 106.117188 28.902344 111.417969 26.703125 C 113.617188 25.800781 116.117188 25.703125 118.21875 26.800781 C 121.816406 28.902344 120.417969 31.402344 121.015625 35.601562" fill="#f2d3b9" fill-rule="evenodd"/></g><path d="M 891.171875 1914.46875 C 872.1875 1742.476563 919.179688 1562.476563 1030.15625 1375.484375 C 1059.179688 1060.484375 1071.171875 925.484375 1071.171875 925.484375" fill="none" stroke="#ed0c78" stroke-linecap="round" stroke-linejoin="round" stroke-miterlimit="22.926" stroke-width="10.001" transform="matrix(.1 0 0 -.1 0 328.65)"/></g></svg>