<?xml version="1.0" encoding="UTF-8"?><svg xmlns="http://www.w3.org/2000/svg" xmlns:xlink="http://www.w3.org/1999/xlink" height="267.4" preserveAspectRatio="xMidYMid meet" version="1.0" viewBox="0.0 0.0 405.0 267.4" width="405.0" zoomAndPan="magnify"><defs><clipPath id="a"><path d="M 0 251 L 24 251 L 24 267.371094 L 0 267.371094 Z M 0 251"/></clipPath><clipPath id="b"><path d="M 46 250 L 72 250 L 72 267.371094 L 46 267.371094 Z M 46 250"/></clipPath><clipPath id="c"><path d="M 354 12 L 404.96875 12 L 404.96875 27 L 354 27 Z M 354 12"/></clipPath><clipPath id="d"><path d="M 354 123 L 404.96875 123 L 404.96875 139 L 354 139 Z M 354 123"/></clipPath><clipPath id="e"><path d="M 354 78 L 404.96875 78 L 404.96875 80 L 354 80 Z M 354 78"/></clipPath></defs><g><g id="change1_1"><path d="M 71.242188 91.179688 C 72.347656 91.097656 74.082031 92.0625 76.175781 93.515625 C 70.445312 109.621094 65.367188 117.617188 60.9375 117.503906 C 46.863281 115.066406 35.636719 108.03125 30.824219 102.0625 C 25.019531 94.863281 28.621094 88.851562 40.152344 96.285156 C 44.640625 99.179688 52.550781 103.476562 59.421875 108.890625 C 62.652344 103.121094 65.15625 96.710938 71.242188 91.179688" fill="#e12c9f" fill-rule="evenodd"/></g><g id="change2_1"><path d="M 287.222656 145.054688 C 237.046875 137.484375 186.445312 129.285156 135.414062 120.464844 L 135.585938 121.242188 C 137.171875 128.296875 138.703125 133.71875 140.183594 137.503906 C 152.011719 140.625 186.363281 148.796875 222.015625 155.828125 C 243.621094 160.09375 265.601562 163.921875 283.144531 165.921875 C 284.105469 162.433594 285.109375 157.648438 286.160156 151.566406 C 286.511719 149.53125 286.863281 147.363281 287.222656 145.054688 Z M 323.914062 0.00390625 C 336.515625 9.492188 348.589844 135.925781 332.390625 151.722656 C 320.738281 150.039062 309.066406 148.328125 297.367188 146.578125 C 297.003906 148.957031 296.636719 151.195312 296.273438 153.289062 C 294.722656 162.269531 293.171875 168.828125 291.625 172.972656 C 290.921875 175.25 288.691406 176.792969 286.230469 176.550781 C 267.550781 174.660156 243.503906 170.527344 220.050781 165.898438 C 181.421875 158.277344 144.0625 149.257812 135.066406 146.738281 L 135.070312 146.730469 C 133.6875 146.339844 132.472656 145.375 131.816406 143.972656 C 129.734375 139.519531 127.660156 132.691406 125.59375 123.488281 C 125.238281 121.917969 124.886719 120.277344 124.53125 118.574219 C 102.449219 114.722656 80.285156 110.753906 58.039062 106.667969 C 54.765625 103.332031 53.800781 75.992188 58.039062 70.855469 C 235.289062 23.621094 323.914062 0.00390625 323.914062 0.00390625" fill="#832b99" fill-rule="evenodd"/></g><g clip-path="url(#a)" id="change3_2"><path d="M 10.207031 253.257812 C 6.804688 252.617188 4.441406 251.234375 4.441406 251.234375 C 1.039062 260.285156 0 265.867188 0 265.867188 C 0.847656 266.8125 19.292969 268.160156 22.441406 266.785156 C 23.597656 266.210938 23.53125 263.710938 21.351562 263.230469 C 16.910156 262.246094 15.699219 262.199219 12.601562 258.226562 C 11.316406 256.582031 10.519531 254.925781 10.207031 253.257812" fill="#4142a1" fill-rule="evenodd"/></g><g clip-path="url(#b)" id="change3_1"><path d="M 54.019531 252.945312 C 50.378906 252.304688 47.503906 250.925781 47.503906 250.925781 C 47.472656 259.976562 46.484375 266.519531 46.484375 266.519531 C 47.683594 267.464844 68.664062 267.847656 71.300781 266.472656 C 72.242188 265.902344 71.242188 263.402344 68.886719 262.917969 C 64.074219 261.9375 62.847656 261.890625 58.269531 257.917969 C 56.371094 256.269531 54.957031 254.613281 54.019531 252.945312" fill="#4142a1" fill-rule="evenodd"/></g><g id="change2_2"><path d="M 41.578125 151.5 C 38.933594 134.710938 34.128906 130.824219 26.210938 142.339844 C 18.507812 149.765625 14.621094 177.238281 17.199219 194.917969 C 11.773438 206.183594 6.988281 223.558594 2.835938 253.589844 C 3.339844 254.378906 11.433594 256.433594 12.664062 255.472656 C 22.589844 223.800781 30.71875 203.96875 32.507812 197.519531 C 37.34375 182.820312 40.367188 167.480469 41.578125 151.5" fill="#832b99" fill-rule="evenodd"/></g><g id="change4_1"><path d="M 156.136719 149.722656 C 152.640625 132.933594 147.632812 129.042969 140.304688 140.558594 C 132.976562 147.984375 130.488281 175.457031 133.96875 193.136719 C 129.121094 204.402344 125.664062 222.773438 123.042969 252.804688 C 123.585938 253.59375 129.808594 255.074219 130.984375 254.113281 C 139.300781 222.441406 147.949219 202.1875 149.410156 195.738281 C 153.5 181.039062 155.742188 165.703125 156.136719 149.722656" fill="#f2d3b9" fill-rule="evenodd"/></g><g id="change2_3"><path d="M 46.335938 143.480469 C 37.433594 126.691406 32.292969 130.824219 28.667969 142.339844 C 23.734375 149.765625 30.941406 180.316406 40.109375 197.996094 C 38.886719 209.265625 39.949219 225.085938 46.996094 255.113281 C 47.792969 255.90625 55.960938 255.761719 56.832031 254.796875 C 54.949219 223.125 56.15625 203.96875 55.539062 197.519531 C 54.898438 182.820312 51.085938 159.460938 46.335938 143.480469" fill="#832b99" fill-rule="evenodd"/></g><g id="change4_2"><path d="M 160.484375 141.703125 C 150.726562 124.910156 145.800781 129.042969 142.761719 140.558594 C 138.203125 147.984375 146.96875 178.539062 157.039062 196.21875 C 156.390625 207.484375 158.257812 223.304688 166.832031 253.335938 C 167.671875 254.125 173.902344 253.097656 174.726562 252.136719 C 171.230469 220.464844 173.386719 202.1875 172.441406 195.738281 C 171.054688 181.039062 166.050781 157.679688 160.484375 141.703125" fill="#f2d3b9" fill-rule="evenodd"/></g><path d="M 354.765625 797.879687 C 374.414062 883.23125 396.25 976.707812 420.3125 1078.348437" fill="none" stroke="#f9e017" stroke-linecap="round" stroke-linejoin="round" stroke-miterlimit="22.926" stroke-width="6.421" transform="matrix(.1 0 0 -.1 0 267.37)"/><g id="change1_2"><path d="M 214.152344 251.457031 C 210.75 250.816406 208.386719 249.433594 208.386719 249.433594 C 204.984375 258.484375 203.945312 264.066406 203.945312 264.066406 C 204.796875 265.011719 223.238281 266.359375 226.390625 264.984375 C 227.542969 264.410156 227.476562 261.910156 225.300781 261.429688 C 220.855469 260.445312 219.644531 260.398438 216.546875 256.425781 C 215.261719 254.78125 214.464844 253.125 214.152344 251.457031" fill="#e12c9f" fill-rule="evenodd"/></g><g id="change1_3"><path d="M 257.96875 251.144531 C 254.324219 250.503906 251.449219 249.125 251.449219 249.125 C 251.421875 258.175781 250.433594 264.71875 250.433594 264.71875 C 251.632812 265.660156 272.609375 266.046875 275.246094 264.671875 C 276.1875 264.101562 275.1875 261.601562 272.832031 261.117188 C 268.019531 260.136719 266.792969 260.089844 262.214844 256.117188 C 260.316406 254.46875 258.902344 252.8125 257.96875 251.144531" fill="#e12c9f" fill-rule="evenodd"/></g><g id="change3_3"><path d="M 245.523438 149.699219 C 242.882812 132.910156 238.074219 129.023438 230.15625 140.535156 C 222.449219 147.960938 218.566406 175.4375 221.144531 193.117188 C 215.722656 204.382812 210.933594 221.757812 206.78125 251.789062 C 207.285156 252.578125 215.378906 254.632812 216.609375 253.671875 C 226.535156 222 234.664062 202.167969 236.453125 195.71875 C 241.289062 181.019531 244.316406 165.679688 245.523438 149.699219" fill="#4142a1" fill-rule="evenodd"/></g><g id="change3_4"><path d="M 250.28125 141.679688 C 241.378906 124.890625 236.238281 129.023438 232.613281 140.535156 C 227.679688 147.960938 234.886719 178.515625 244.058594 196.195312 C 242.835938 207.464844 243.894531 223.285156 250.941406 253.3125 C 251.738281 254.105469 259.90625 253.960938 260.777344 252.996094 C 258.894531 221.324219 260.101562 202.167969 259.484375 195.71875 C 258.84375 181.019531 255.03125 157.660156 250.28125 141.679688" fill="#4142a1" fill-rule="evenodd"/></g><path d="M 2394.21875 815.8875 C 2403.398438 855.73125 2413.046875 897.332812 2423.164062 940.692187 C 2452.226562 962.801562 2479.023438 993.54375 2503.554688 1032.91875" fill="none" stroke="#f9e017" stroke-linecap="round" stroke-linejoin="round" stroke-miterlimit="22.926" stroke-width="6.421" transform="matrix(.1 0 0 -.1 0 267.37)"/><g id="change1_4"><path d="M 23.675781 96.148438 C 35.808594 94.765625 43.128906 103.207031 45.640625 121.464844 C 44.707031 125.316406 43.242188 127.507812 43.691406 130.710938 C 44.320312 135.207031 47.132812 140.382812 46.539062 143.480469 C 45.847656 147.089844 23.714844 145.074219 25.023438 142.742188 C 26.972656 137.253906 27.292969 132.503906 25.988281 128.492188 C 21.253906 113.335938 20.484375 102.550781 23.675781 96.148438" fill="#e12c9f" fill-rule="evenodd"/></g><path d="M 3219.882812 2623.621875 C 3139.296875 2484.16875 3132.226562 1601.04375 3296.953125 1198.85625" fill="none" stroke="#f9e017" stroke-linecap="round" stroke-linejoin="round" stroke-miterlimit="22.926" stroke-width="6.421" transform="matrix(.1 0 0 -.1 0 267.37)"/><g id="change4_3"><path d="M 80.378906 114.328125 C 75.816406 117.539062 67.871094 127.101562 63.664062 129.71875 C 58.980469 132.632812 55.125 132.101562 54.695312 129.101562 C 56.1875 125.050781 59.433594 121.316406 64.433594 117.902344 C 68.105469 115.394531 74.851562 112.6875 78.285156 110.898438 C 79.035156 110.4375 78.929688 110.601562 79.089844 109.832031 C 79.367188 108.496094 79.558594 108.144531 80.167969 106.839844 C 81.046875 104.953125 80.929688 105.511719 81.089844 103.492188 C 81.128906 103.011719 81.601562 103.148438 81.8125 103.300781 C 82.398438 103.71875 82.59375 104.347656 82.476562 104.996094 L 82.277344 106.113281 C 82.234375 106.402344 82.105469 106.96875 82.296875 107.285156 C 82.554688 107.703125 83.382812 107.710938 83.71875 107.550781 C 84.792969 107.03125 85.769531 106.261719 86.78125 105.65625 C 86.980469 105.535156 87.03125 105.460938 87.21875 105.347656 C 87.371094 105.253906 87.554688 105.15625 87.703125 105.054688 C 88.097656 104.785156 89.507812 103.675781 89.84375 104.410156 C 90.039062 104.839844 88.851562 105.671875 88.449219 105.964844 C 87.785156 106.449219 86.898438 107.160156 86.332031 107.730469 C 86.0625 108.003906 85.972656 108.109375 85.988281 108.402344 C 86.269531 108.492188 86.507812 108.441406 86.820312 108.375 C 87.113281 108.3125 87.40625 108.222656 87.679688 108.144531 C 88.503906 107.914062 90.308594 107.332031 91.179688 107.144531 C 92.308594 106.898438 92.355469 107.734375 92.03125 107.929688 C 91.476562 108.265625 87.832031 109.351562 86.9375 109.894531 C 86.863281 109.941406 86.917969 109.933594 86.8125 110.011719 C 86.941406 110.1875 87.222656 110.140625 87.515625 110.117188 C 88.3125 110.046875 89.328125 109.859375 90.144531 109.792969 C 90.277344 109.78125 90.398438 109.761719 90.523438 109.746094 C 91.121094 109.667969 92.164062 109.335938 92.03125 110.089844 C 91.957031 110.5 91.300781 110.652344 90.988281 110.726562 C 90.328125 110.882812 89.496094 111.050781 88.851562 111.113281 L 87.417969 111.308594 C 87.082031 111.355469 86.007812 111.449219 86.261719 111.867188 C 86.398438 112.09375 87.0625 112.144531 87.304688 112.175781 C 87.742188 112.234375 87.90625 112.230469 88.359375 112.34375 C 88.480469 112.371094 88.515625 112.367188 88.640625 112.386719 L 89.417969 112.574219 C 90.910156 112.9375 90.652344 113.714844 89.539062 113.679688 C 88.929688 113.660156 88.464844 113.488281 87.730469 113.417969 C 86.078125 113.257812 85.960938 113.4375 84.5625 113.550781 L 81.667969 113.867188 C 81.539062 113.882812 81.480469 113.878906 81.34375 113.902344 C 81.144531 113.9375 80.789062 114.105469 80.378906 114.328125" fill="#f2d3b9" fill-rule="evenodd"/></g><g id="change1_5"><path d="M 74.757812 112.21875 C 75.902344 112.570312 77.257812 114.214844 78.789062 116.492188 C 66.746094 130.398438 58.523438 136.429688 54.128906 134.585938 C 40.972656 126.640625 32.46875 115.199219 29.976562 107.335938 C 26.972656 97.847656 32.9375 93.230469 41.59375 105.1875 C 44.960938 109.84375 50.730469 116.050781 55.503906 124.160156 C 60.328125 121.136719 66.492188 115.386719 74.757812 112.21875" fill="#e12c9f" fill-rule="evenodd"/></g><g id="change3_5"><path d="M 42.925781 80.238281 C 41.875 82.351562 42.554688 83.730469 42.554688 83.730469 C 42.175781 88.144531 40.828125 90.632812 39.152344 91.511719 C 40.058594 93.902344 43.585938 102.0625 44.835938 109.71875 C 31.476562 89.121094 21.90625 107.722656 19.65625 104.835938 C 19.507812 104.640625 19.597656 103.921875 19.75 103.179688 C 20.433594 99.839844 22.550781 96.140625 24.164062 93.125 C 26.136719 89.4375 26.660156 87.953125 24.566406 81.203125 C 24.230469 80.117188 24.03125 79.035156 23.96875 77.953125 C 23.351562 67.34375 38.066406 63.863281 43.933594 72.058594 C 45.738281 74.578125 43.625 78.199219 42.925781 80.238281" fill="#4142a1" fill-rule="evenodd"/></g><g id="change4_4"><path d="M 39.765625 90.402344 C 41.027344 89.824219 43.199219 90.316406 44.003906 89.351562 C 44.464844 88.800781 44.390625 88.160156 44.261719 87.046875 C 44.136719 85.964844 43.933594 84.824219 44.269531 84.5625 C 45.054688 84.171875 45.308594 83.765625 45.035156 83.347656 C 44.847656 83.222656 44.683594 83.09375 44.539062 82.960938 C 44.195312 82.644531 44.007812 82.351562 43.917969 82.058594 C 44.777344 77.445312 43.765625 72.761719 38.386719 72.769531 C 34.003906 72.773438 32.507812 75.589844 32.492188 78.890625 C 32.476562 82.058594 34.824219 89.832031 39.765625 90.402344" fill="#f2d3b9" fill-rule="evenodd"/></g><g id="change1_6"><path d="M 41.003906 73.242188 C 40.304688 72.960938 39.507812 72.796875 38.609375 72.773438 C 38.535156 72.769531 38.460938 72.769531 38.386719 72.769531 C 38.316406 72.769531 38.25 72.769531 38.183594 72.773438 C 38.117188 72.773438 38.050781 72.777344 37.984375 72.777344 C 37.917969 72.78125 37.851562 72.785156 37.789062 72.789062 C 37.722656 72.792969 37.660156 72.796875 37.597656 72.804688 C 37.535156 72.808594 37.472656 72.816406 37.410156 72.820312 C 37.351562 72.828125 37.289062 72.835938 37.230469 72.84375 C 37.167969 72.851562 37.109375 72.859375 37.050781 72.867188 C 36.992188 72.878906 36.933594 72.886719 36.875 72.898438 C 36.820312 72.910156 36.761719 72.921875 36.707031 72.933594 C 36.648438 72.945312 36.59375 72.957031 36.539062 72.96875 C 36.484375 72.980469 36.429688 72.996094 36.375 73.007812 C 36.324219 73.023438 36.269531 73.039062 36.21875 73.054688 C 36.164062 73.070312 36.113281 73.085938 36.0625 73.101562 C 36.011719 73.117188 35.960938 73.132812 35.910156 73.152344 C 35.859375 73.171875 35.8125 73.1875 35.761719 73.207031 C 35.714844 73.226562 35.667969 73.246094 35.621094 73.265625 L 35.617188 73.265625 C 35.574219 73.285156 35.527344 73.304688 35.480469 73.324219 C 35.433594 73.347656 35.386719 73.367188 35.34375 73.390625 C 35.296875 73.410156 35.253906 73.433594 35.210938 73.457031 C 35.167969 73.480469 35.125 73.503906 35.082031 73.527344 C 35.039062 73.550781 34.996094 73.574219 34.957031 73.601562 C 34.914062 73.625 34.875 73.652344 34.835938 73.675781 C 34.792969 73.703125 34.753906 73.730469 34.714844 73.757812 C 34.675781 73.785156 34.636719 73.8125 34.601562 73.839844 C 34.5625 73.867188 34.527344 73.894531 34.488281 73.925781 C 34.453125 73.953125 34.417969 73.980469 34.382812 74.011719 C 34.34375 74.039062 34.308594 74.070312 34.277344 74.101562 C 34.242188 74.132812 34.207031 74.164062 34.175781 74.195312 C 34.140625 74.226562 34.109375 74.257812 34.078125 74.292969 C 34.042969 74.324219 34.011719 74.355469 33.980469 74.390625 C 33.953125 74.425781 33.921875 74.457031 33.890625 74.492188 C 33.859375 74.523438 33.832031 74.558594 33.800781 74.59375 C 33.773438 74.628906 33.746094 74.664062 33.71875 74.699219 C 33.691406 74.738281 33.664062 74.773438 33.636719 74.808594 C 33.609375 74.84375 33.582031 74.882812 33.558594 74.921875 C 33.53125 74.957031 33.507812 74.996094 33.480469 75.03125 C 33.457031 75.070312 33.433594 75.109375 33.410156 75.148438 C 33.386719 75.1875 33.363281 75.226562 33.339844 75.265625 L 33.273438 75.382812 L 33.210938 75.503906 C 33.1875 75.546875 33.167969 75.585938 33.148438 75.628906 C 33.128906 75.671875 33.109375 75.710938 33.089844 75.753906 C 33.074219 75.796875 33.054688 75.839844 33.035156 75.882812 C 33.019531 75.925781 33 75.964844 32.984375 76.011719 L 32.933594 76.140625 L 32.890625 76.273438 C 32.875 76.316406 32.859375 76.363281 32.84375 76.40625 L 32.765625 76.679688 C 32.753906 76.726562 32.742188 76.773438 32.730469 76.820312 C 32.71875 76.867188 32.707031 76.914062 32.699219 76.960938 L 32.667969 77.101562 L 32.613281 77.390625 L 32.59375 77.535156 L 32.570312 77.679688 L 32.539062 77.976562 L 32.523438 78.128906 L 32.515625 78.28125 L 32.503906 78.429688 L 32.5 78.585938 L 32.492188 78.890625 L 32.492188 79.09375 L 32.496094 79.117188 L 32.496094 79.273438 L 32.5 79.296875 L 32.5 79.375 L 32.503906 79.398438 L 32.503906 79.476562 L 32.507812 79.503906 L 32.507812 79.554688 L 32.511719 79.566406 L 32.511719 79.605469 L 32.515625 79.628906 L 32.515625 79.632812 L 32.519531 79.707031 L 32.519531 79.730469 L 32.523438 79.757812 L 32.527344 79.835938 L 32.53125 79.859375 L 32.539062 79.960938 L 32.539062 79.988281 L 32.542969 80.039062 L 32.546875 80.066406 L 32.554688 80.167969 L 32.558594 80.191406 L 32.5625 80.21875 L 32.585938 80.425781 L 32.589844 80.449219 L 32.597656 80.527344 C 32.476562 74.933594 39.160156 72.363281 42.457031 75.332031 C 42.996094 75.816406 43.570312 76.464844 44.019531 77.367188 C 43.667969 75.503906 42.742188 73.980469 41.003906 73.242188" fill="#e12c9f" fill-rule="evenodd"/></g><g id="change1_7"><path d="M 153.449219 60.65625 C 150.535156 69.554688 152.785156 74.824219 160.191406 76.464844 C 172.285156 76.027344 169.710938 58.296875 153.449219 60.65625" fill="#e12c9f" fill-rule="evenodd"/></g><g id="change4_5"><path d="M 163.523438 84.960938 C 163.550781 83.660156 163.496094 82.277344 163.9375 82.023438 C 164.929688 81.6875 165.296875 81.246094 165.042969 80.707031 C 164.839844 80.527344 164.664062 80.347656 164.515625 80.167969 C 163.367188 78.777344 164.128906 77.957031 164.445312 76.453125 C 164.929688 74.144531 164.558594 72.257812 163.296875 70.789062 C 162.453125 70.339844 161.644531 70.128906 160.859375 70.164062 L 160.855469 70.160156 C 155.976562 69.742188 147.484375 71.535156 146.292969 77.304688 C 146.523438 88.445312 152.097656 94.902344 152.097656 94.902344 C 155.917969 93.308594 157.828125 92.515625 157.828125 92.515625 C 157.113281 90.121094 157.394531 88.566406 158.25 87.976562 C 159.742188 86.953125 161.585938 88.792969 162.839844 87.652344 C 163.476562 87.074219 163.492188 86.304688 163.523438 84.960938" fill="#f2d3b9" fill-rule="evenodd"/></g><g id="change4_6"><path d="M 247.917969 88.039062 C 247.949219 86.601562 247.890625 85.074219 248.375 84.796875 C 249.472656 84.421875 249.878906 83.9375 249.597656 83.34375 C 249.375 83.144531 249.183594 82.949219 249.019531 82.75 C 247.75 81.214844 248.589844 80.308594 248.9375 78.648438 C 249.472656 76.101562 249.0625 74.019531 247.671875 72.402344 C 246.742188 71.902344 245.847656 71.671875 244.980469 71.707031 C 239.597656 71.246094 230.222656 73.222656 228.910156 79.589844 C 229.164062 91.882812 230.53125 99.003906 230.53125 99.003906 C 234.746094 97.25 239.332031 99.511719 239.332031 99.511719 C 238.722656 94.128906 241.15625 92.011719 242.101562 91.367188 C 243.746094 90.238281 245.78125 92.265625 247.167969 91.007812 C 247.867188 90.367188 247.890625 89.519531 247.917969 88.039062" fill="#f2d3b9" fill-rule="evenodd"/></g><path d="M 299.765625 1600.340625 C 322.929688 1533.504687 369.53125 1467.879687 439.570312 1403.465625" fill="none" stroke="#f9e017" stroke-linecap="round" stroke-linejoin="round" stroke-miterlimit="22.926" stroke-width="6.421" transform="matrix(.1 0 0 -.1 0 267.37)"/><g id="change5_1"><path d="M 159.460938 124.578125 C 162.875 132.585938 164.578125 136.585938 164.578125 136.585938 C 172.074219 146.4375 179.917969 169.617188 188.113281 206.128906 C 179.789062 211.148438 163.46875 212.96875 151.671875 212.558594 C 140.152344 212.15625 118.367188 207.394531 118.113281 204.042969 C 125.296875 170.054688 133.589844 148.003906 140.101562 134.679688 C 143.800781 128.457031 145.433594 111.542969 140.667969 98.226562 C 142.058594 92.425781 150.03125 88.441406 157.929688 91.085938 C 159.957031 90.808594 156.054688 95.953125 158.535156 98.808594 C 160.957031 101.597656 163.003906 104.960938 164.671875 108.894531 C 165.414062 111.765625 163.679688 116.992188 159.460938 124.578125" fill="#f9e017" fill-rule="evenodd"/></g><g id="change5_2"><path d="M 248.109375 130.625 C 249.65625 138 255.898438 158.863281 255.898438 158.863281 C 252.808594 162.699219 218.824219 161.683594 220.09375 157.742188 C 225.78125 146.636719 227.574219 139.351562 226.941406 126.769531 C 226.574219 119.402344 225.375 112.328125 225.296875 104.46875 C 225.25 99.765625 228.527344 96.050781 229.878906 94.449219 C 229.878906 94.449219 230.8125 95.128906 234.90625 92.160156 C 235.4375 94.347656 236.917969 95.714844 239.34375 96.265625 C 239.882812 96.800781 249.003906 110.507812 251.082031 113.777344 C 252.894531 117.035156 254.042969 119.898438 248.109375 130.625" fill="#f9e017" fill-rule="evenodd"/></g><g id="change4_7"><path d="M 187.546875 121.535156 C 182.113281 124.324219 172.058594 133.484375 167.105469 135.683594 C 162.847656 137.574219 159.4375 137.316406 158.09375 135.578125 L 158.082031 135.566406 C 158.035156 135.5 157.988281 135.433594 157.945312 135.367188 C 149.886719 123.832031 145.640625 111.597656 147.609375 104.644531 C 149.269531 98.777344 153.996094 97.328125 157.324219 103.371094 C 159.210938 106.796875 161.738281 120.023438 163.128906 126.71875 C 165.0625 125.121094 167.019531 124.335938 169.726562 122.996094 C 174.082031 120.835938 181.804688 118.921875 185.796875 117.5 C 186.679688 117.113281 186.539062 117.277344 186.832031 116.46875 C 187.335938 115.0625 187.59375 114.707031 188.449219 113.386719 C 189.6875 111.476562 189.480469 112.0625 189.957031 109.902344 C 190.070312 109.382812 190.5625 109.605469 190.769531 109.800781 C 191.339844 110.339844 191.457031 111.050781 191.234375 111.742188 L 190.847656 112.921875 C 190.753906 113.226562 190.53125 113.820312 190.695312 114.191406 C 190.90625 114.6875 191.804688 114.820312 192.191406 114.695312 C 193.433594 114.296875 194.609375 113.609375 195.796875 113.105469 C 196.03125 113.003906 196.101562 112.933594 196.316406 112.839844 C 196.5 112.757812 196.710938 112.679688 196.886719 112.59375 C 197.355469 112.359375 199.054688 111.371094 199.304688 112.21875 C 199.449219 112.714844 198.035156 113.433594 197.558594 113.691406 C 196.765625 114.113281 195.695312 114.757812 194.996094 115.285156 C 194.660156 115.539062 194.546875 115.640625 194.523438 115.960938 C 194.8125 116.101562 195.078125 116.082031 195.429688 116.058594 C 195.753906 116.035156 196.085938 115.980469 196.394531 115.941406 C 197.324219 115.816406 199.367188 115.453125 200.339844 115.382812 C 201.601562 115.289062 201.523438 116.199219 201.144531 116.363281 C 200.488281 116.644531 196.375 117.269531 195.324219 117.722656 C 195.238281 117.761719 195.300781 117.761719 195.171875 117.828125 C 195.285156 118.039062 195.59375 118.035156 195.917969 118.050781 C 196.792969 118.097656 197.921875 118.042969 198.816406 118.097656 C 198.960938 118.105469 199.097656 118.101562 199.230469 118.101562 C 199.894531 118.109375 201.074219 117.90625 200.8125 118.703125 C 200.675781 119.136719 199.9375 119.207031 199.585938 119.238281 C 198.847656 119.308594 197.925781 119.363281 197.214844 119.332031 L 195.632812 119.328125 C 195.257812 119.328125 194.082031 119.269531 194.292969 119.757812 C 194.40625 120.023438 195.117188 120.179688 195.378906 120.25 C 195.84375 120.378906 196.023438 120.398438 196.492188 120.589844 C 196.625 120.640625 196.660156 120.644531 196.789062 120.679688 L 197.609375 121.003906 C 199.167969 121.621094 198.769531 122.425781 197.570312 122.21875 C 196.914062 122.105469 196.433594 121.847656 195.652344 121.660156 C 193.882812 121.238281 193.730469 121.414062 192.199219 121.324219 L 189.011719 121.230469 C 188.871094 121.226562 188.808594 121.214844 188.65625 121.21875 C 188.4375 121.226562 188.023438 121.355469 187.546875 121.535156" fill="#f2d3b9" fill-rule="evenodd"/></g><g id="change1_8"><path d="M 163.296875 70.789062 C 163.078125 73.542969 153.132812 71.929688 155.332031 78.347656 C 154.527344 78.152344 153.777344 77.632812 153.085938 76.785156 C 152.539062 75.875 152.011719 75.210938 151.503906 74.792969 C 148.367188 72.21875 148.449219 80.871094 152.644531 80.355469 C 155.027344 83.246094 156.460938 88.175781 155.359375 91.863281 C 153.421875 98.371094 147.925781 94.832031 144.992188 98.847656 C 143.355469 101.09375 143.671875 105.058594 141.335938 107.363281 C 138.679688 109.976562 133.242188 109.769531 129.859375 107.253906 C 128.753906 106.433594 127.871094 105.367188 127.371094 104.074219 C 124.972656 97.832031 130.550781 94.382812 133.996094 91.113281 C 134.898438 90.257812 135.652344 89.15625 136.101562 87.3125 C 137.113281 83.144531 134.160156 78.144531 134.394531 72.695312 C 134.75 64.414062 138.824219 63.53125 145.140625 61.765625 C 146.5625 61.371094 147.671875 60.921875 148.46875 60.417969 C 154.578125 56.726562 169.527344 64.273438 163.296875 70.789062" fill="#e12c9f" fill-rule="evenodd"/></g><g id="change2_4"><path d="M 133.277344 251.285156 C 131.625 250.113281 122.929688 248.925781 122.015625 249.457031 C 122.15625 254.269531 120.292969 264.089844 120.292969 264.089844 C 121.191406 265.03125 139.703125 266.378906 142.785156 265.003906 C 143.90625 264.429688 143.714844 261.933594 141.511719 261.449219 C 137.019531 260.46875 135.804688 260.421875 132.507812 256.449219 C 131.140625 254.800781 133.675781 252.953125 133.277344 251.285156" fill="#832b99" fill-rule="evenodd"/></g><g id="change2_5"><path d="M 176.125 249.699219 C 172.425781 249.058594 164.363281 249.433594 164.363281 249.433594 C 165.160156 258.484375 164.707031 264.691406 164.707031 264.691406 C 165.992188 265.636719 189.078125 266.066406 191.589844 264.691406 C 192.476562 264.121094 191.253906 261.621094 188.851562 261.140625 C 183.949219 260.15625 182.71875 260.109375 177.777344 256.136719 C 175.730469 254.492188 176.425781 250.402344 176.125 249.699219" fill="#832b99" fill-rule="evenodd"/></g><g id="change3_6"><path d="M 234.90625 81.589844 C 235.308594 82.125 235.507812 82.394531 235.507812 82.394531 C 236.265625 81.269531 237.070312 79.425781 237.917969 76.855469 C 244.429688 77.785156 248.683594 77.785156 250.683594 76.855469 C 251.027344 68.5625 247.308594 64.203125 239.523438 63.78125 C 223.691406 57.5 216.15625 77.292969 212.996094 93.046875 C 214.925781 96.71875 232.96875 101.121094 237.835938 97.875 C 236.664062 91.984375 235.316406 87.746094 233.78125 85.160156 C 226.609375 82.230469 232.722656 72.835938 234.90625 81.589844" fill="#4142a1" fill-rule="evenodd"/></g><g id="change4_8"><path d="M 276.015625 122.167969 C 271.121094 125.941406 262.792969 136.90625 258.265625 140.003906 C 254.375 142.667969 250.933594 143.039062 249.277344 141.554688 L 249.265625 141.542969 C 249.203125 141.488281 249.144531 141.433594 249.089844 141.371094 C 238.945312 131.371094 232.472656 119.972656 233.152344 112.6875 C 233.726562 106.539062 238.164062 104.230469 242.589844 109.636719 C 245.097656 112.699219 250.046875 125.402344 252.660156 131.8125 C 254.292969 129.867188 256.097656 128.726562 258.542969 126.894531 C 262.484375 123.941406 269.820312 120.621094 273.527344 118.472656 C 274.339844 117.925781 274.230469 118.113281 274.367188 117.253906 C 274.613281 115.761719 274.808594 115.363281 275.414062 113.890625 C 276.296875 111.761719 276.195312 112.382812 276.273438 110.144531 C 276.292969 109.605469 276.824219 109.738281 277.0625 109.894531 C 277.734375 110.328125 277.980469 111.015625 277.886719 111.738281 L 277.71875 112.984375 C 277.679688 113.308594 277.566406 113.941406 277.796875 114.28125 C 278.101562 114.730469 279.015625 114.699219 279.378906 114.503906 C 280.542969 113.878906 281.589844 112.976562 282.675781 112.257812 C 282.890625 112.117188 282.945312 112.03125 283.144531 111.898438 C 283.3125 111.785156 283.511719 111.667969 283.667969 111.550781 C 284.089844 111.230469 285.601562 109.933594 286.003906 110.734375 C 286.242188 111.199219 284.96875 112.175781 284.539062 112.519531 C 283.828125 113.089844 282.878906 113.921875 282.28125 114.578125 C 281.992188 114.894531 281.898438 115.015625 281.933594 115.335938 C 282.25 115.421875 282.511719 115.355469 282.855469 115.265625 C 283.171875 115.183594 283.492188 115.070312 283.792969 114.972656 C 284.695312 114.675781 286.664062 113.941406 287.617188 113.691406 C 288.855469 113.367188 288.945312 114.289062 288.601562 114.519531 C 288 114.921875 284.019531 116.296875 283.054688 116.941406 C 282.976562 116.996094 283.039062 116.984375 282.921875 117.078125 C 283.074219 117.265625 283.382812 117.203125 283.707031 117.160156 C 284.585938 117.046875 285.699219 116.785156 286.601562 116.675781 C 286.746094 116.65625 286.882812 116.628906 287.015625 116.605469 C 287.675781 116.488281 288.8125 116.070312 288.703125 116.910156 C 288.640625 117.367188 287.921875 117.570312 287.578125 117.667969 C 286.855469 117.871094 285.945312 118.097656 285.234375 118.199219 L 283.65625 118.484375 C 283.285156 118.554688 282.105469 118.710938 282.402344 119.160156 C 282.566406 119.402344 283.304688 119.429688 283.574219 119.449219 C 284.0625 119.492188 284.242188 119.480469 284.746094 119.582031 C 284.886719 119.609375 284.925781 119.605469 285.058594 119.617188 L 285.933594 119.789062 C 287.601562 120.117188 287.351562 120.992188 286.117188 121.007812 C 285.445312 121.015625 284.921875 120.847656 284.105469 120.804688 C 282.269531 120.707031 282.148438 120.910156 280.605469 121.105469 L 277.417969 121.59375 C 277.273438 121.617188 277.210938 121.617188 277.058594 121.648438 C 276.84375 121.695312 276.457031 121.902344 276.015625 122.167969" fill="#f2d3b9" fill-rule="evenodd"/></g><g id="change5_3"><path d="M 252.847656 143.382812 C 257.71875 142.707031 262.496094 138.625 267.1875 131.136719 C 266.761719 128.234375 265.140625 125.710938 262.320312 123.566406 C 258.417969 125.773438 255.367188 127.832031 253.167969 129.746094 C 251.011719 122.632812 248.726562 116.878906 246.3125 112.476562 C 244.746094 109.613281 243.148438 107.453125 241.613281 105.914062 C 236.144531 100.441406 230.71875 103.160156 230.519531 110.328125 C 230.269531 119.289062 243.519531 142.0625 252.847656 143.382812" fill="#f9e017" fill-rule="evenodd"/></g><path d="M 2321.40625 1494.715625 C 2359.257812 1390.73125 2455.78125 1250.145312 2528.476562 1239.871875 C 2577.1875 1246.629687 2624.960938 1287.45 2671.875 1362.332812 C 2667.617188 1391.35625 2651.40625 1416.590625 2623.203125 1438.035937 C 2584.179688 1415.965625 2553.671875 1395.379687 2531.679688 1376.239062 C 2510.117188 1447.371875 2487.265625 1504.910937 2463.125 1548.934375 C 2447.460938 1577.567187 2431.484375 1599.16875 2416.132812 1614.559375" fill="none" stroke="#e12c9f" stroke-linecap="round" stroke-linejoin="round" stroke-miterlimit="22.926" stroke-width="6.421" transform="matrix(.1 0 0 -.1 0 267.37)"/><g clip-path="url(#c)"><path d="M 3551.953125 2411.98125 C 3879.492188 2501.825 4043.242188 2546.746875 4043.242188 2546.746875" fill="none" stroke="#832b99" stroke-linecap="round" stroke-linejoin="round" stroke-miterlimit="22.926" stroke-width="12.841" transform="matrix(.1 0 0 -.1 0 267.37)"/></g><g clip-path="url(#d)"><path d="M 3551.953125 1433.23125 C 3879.492188 1343.3875 4043.242188 1298.465625 4043.242188 1298.465625" fill="none" stroke="#832b99" stroke-linecap="round" stroke-linejoin="round" stroke-miterlimit="22.926" stroke-width="12.841" transform="matrix(.1 0 0 -.1 0 267.37)"/></g><g clip-path="url(#e)"><path d="M 3555.15625 1885.73125 L 4043.242188 1885.73125" fill="none" stroke="#832b99" stroke-linecap="round" stroke-linejoin="round" stroke-miterlimit="22.926" stroke-width="12.841" transform="matrix(.1 0 0 -.1 0 267.37)"/></g><path d="M 307.226562 2043.54375 C 270.898438 2099.910937 252.734375 2128.114062 252.734375 2128.114062" fill="none" stroke="#832b99" stroke-linecap="round" stroke-linejoin="round" stroke-miterlimit="22.926" stroke-width="12.841" transform="matrix(.1 0 0 -.1 0 267.37)"/><path d="M 178.125 1899.520312 C 118.046875 1929.442187 88.046875 1944.403125 88.046875 1944.403125" fill="none" stroke="#832b99" stroke-linecap="round" stroke-linejoin="round" stroke-miterlimit="22.926" stroke-width="12.841" transform="matrix(.1 0 0 -.1 0 267.37)"/><path d="M 215.859375 1992.957812 L 144.023438 2057.29375" fill="none" stroke="#832b99" stroke-linecap="round" stroke-linejoin="round" stroke-miterlimit="22.926" stroke-width="12.841" transform="matrix(.1 0 0 -.1 0 267.37)"/></g></svg>