<?xml version="1.0" encoding="UTF-8"?><svg xmlns="http://www.w3.org/2000/svg" xmlns:xlink="http://www.w3.org/1999/xlink" height="266.5" preserveAspectRatio="xMidYMid meet" version="1.0" viewBox="0.0 0.0 411.3 266.5" width="411.3" zoomAndPan="magnify"><defs><clipPath id="a"><path d="M 0 180 L 144 180 L 144 266.5 L 0 266.5 Z M 0 180"/></clipPath><clipPath id="b"><path d="M 272 0 L 411.300781 0 L 411.300781 83 L 272 83 Z M 272 0"/></clipPath><clipPath id="c"><path d="M 263 123 L 411.300781 123 L 411.300781 266.5 L 263 266.5 Z M 263 123"/></clipPath></defs><g><g clip-path="url(#a)"><path d="M 501.015625 383.007812 L 517.03125 383.007812 C 523.007812 433.007812 567.03125 472.03125 619.023438 472.03125 L 778.007812 472.03125 C 831.015625 472.03125 875 432.03125 880 381.015625 C 941.015625 370.039062 987.03125 317.03125 987.03125 254.023438 C 987.03125 232.03125 981.015625 211.015625 971.015625 193.007812 C 1016.015625 185.039062 1050 146.015625 1050 100.039062 C 1050 48.007812 1007.03125 6.015625 954.023438 6.015625 L 373.007812 6.015625 C 320 6.015625 277.03125 49.023438 277.03125 100.039062 C 277.03125 152.03125 320 194.023438 373.007812 194.023438 L 386.015625 194.023438 C 376.015625 212.03125 371.015625 232.03125 371.015625 254.023438 C 371.015625 325.039062 429.023438 383.007812 501.015625 383.007812 Z M 501.015625 383.007812" fill="none" stroke="#4142a1" stroke-linecap="round" stroke-miterlimit="22.926" stroke-width="12.029" transform="matrix(.1 0 0 -.1 0 266.5)"/></g><g id="change1_1"><path d="M 389.800781 78.296875 L 157.402344 175.496094 L 178.703125 233.898438 Z M 389.800781 78.296875" fill="#4142a1" fill-rule="evenodd"/></g><g id="change1_2"><path d="M 166.5 70.898438 L 125.601562 86.097656 L 148.601562 152.398438 L 389.800781 78.296875 L 166.5 70.898438" fill="#4142a1" fill-rule="evenodd"/></g><g id="change2_1"><path d="M 183.101562 20.199219 L 125.601562 86.097656 L 389.800781 78.296875 Z M 183.101562 20.199219" fill="#ed0c78" fill-rule="evenodd"/></g><g id="change3_1"><path d="M 303.902344 50.699219 C 304.703125 51.097656 303.5 53.398438 303.300781 53.996094 C 303.101562 54.597656 302.902344 55.296875 302.703125 55.898438 C 302.203125 57.199219 301.601562 58.296875 300.703125 59.097656 C 299.703125 59.996094 298.5 60.496094 297.101562 60.796875 C 297.101562 60.796875 296.5 59.796875 295.300781 57.796875 C 297.300781 56.496094 302.601562 50.097656 303.902344 50.699219" fill="#f2d3b9" fill-rule="evenodd"/></g><g id="change3_2"><path d="M 222.703125 119.699219 C 223 120.5 225.5 119.398438 226.101562 119.199219 C 226.703125 119 227.402344 118.796875 228 118.699219 C 229.300781 118.296875 230.402344 117.699219 231.300781 116.796875 C 232.203125 115.898438 232.800781 114.699219 233.203125 113.296875 C 233.203125 113.296875 232.203125 112.699219 230.203125 111.398438 C 228.902344 113.398438 222.101562 118.398438 222.703125 119.699219" fill="#f2d3b9" fill-rule="evenodd"/></g><g id="change3_3"><path d="M 137.300781 118.898438 C 137.402344 119.796875 140.402344 119.5 141.101562 119.5 C 141.902344 119.5 142.601562 119.5 143.402344 119.597656 C 145 119.597656 146.402344 119.296875 147.601562 118.699219 C 148.902344 118 150 117 150.902344 115.597656 C 150.902344 115.597656 150 114.597656 148.300781 112.597656 C 146.101562 114.199219 137.101562 117.199219 137.300781 118.898438" fill="#f2d3b9" fill-rule="evenodd"/></g><g id="change3_4"><path d="M 252 60.097656 C 252.703125 60.699219 250.800781 62.996094 250.402344 63.597656 C 250 64.199219 249.601562 64.898438 249.203125 65.496094 C 248.300781 66.796875 247.300781 67.796875 246.101562 68.398438 C 244.800781 69.097656 243.300781 69.398438 241.703125 69.296875 C 241.703125 69.296875 241.300781 67.996094 240.601562 65.496094 C 243.101562 64.597656 250.703125 58.996094 252 60.097656" fill="#f2d3b9" fill-rule="evenodd"/></g><g id="change4_1"><path d="M 244.5 70.199219 C 229 80.496094 218.5 88.199219 212.5 91.199219 C 215.101562 95.996094 212.902344 107.898438 213.300781 120.296875 C 213.300781 120.296875 205.300781 121.5 189.601562 124.597656 C 189.601562 124.597656 189.601562 114.796875 189.5 101.097656 C 189.5 101.097656 176.800781 108.699219 151.601562 118.097656 L 151.5 118.097656 L 151.300781 117.898438 L 151.203125 117.796875 L 151.101562 117.699219 L 151 117.597656 C 150.203125 116.5 149.601562 115.097656 149.203125 113.296875 C 149.203125 113.296875 164.601562 104.199219 195.402344 85.898438 C 227.300781 72.398438 243.300781 65.597656 243.300781 65.597656 C 245.101562 66.996094 246.101562 68.597656 246.402344 70.496094 L 244.5 70.199219" fill="#fad206" fill-rule="evenodd"/></g><g id="change5_1"><path d="M 266.703125 81.796875 C 268.101562 86.398438 270.300781 89.097656 273.300781 89.996094 C 279.902344 84.898438 288.601562 75.296875 299.300781 61.296875 C 299.300781 58.796875 298.300781 57.097656 296.203125 56.199219 C 281.300781 69.597656 271.402344 78.097656 266.703125 81.796875" fill="#01c2cb" fill-rule="evenodd"/></g><g id="change5_2"><path d="M 271.101562 88.796875 C 271.800781 89.296875 272.5 89.597656 273.300781 89.898438 C 279.902344 84.796875 288.601562 75.199219 299.300781 61.199219 C 299.300781 59.996094 299.101562 58.996094 298.601562 58.097656 C 287.902344 70.097656 278.800781 79.097656 271.5 85.296875 C 271.300781 86.699219 271.101562 87.898438 271.101562 88.796875" fill="#01c2cb" fill-rule="evenodd"/></g><g id="change5_3"><path d="M 253.902344 86.398438 C 258.5 82.199219 263.101562 80.597656 268.902344 81.296875 C 270.902344 85.898438 273.5 86.496094 274.703125 88.996094 C 276.203125 92.097656 273.5 94.996094 273 98.597656 C 272.703125 101.097656 272.800781 103.898438 273.300781 106.097656 C 263.300781 109.898438 258 109.5 258 109.5 C 258 101.796875 258 97.898438 258 97.898438 C 250.203125 104.199219 242.402344 110.097656 234.5 115.398438 C 232.203125 114.796875 230.402344 113.296875 229.101562 110.898438 C 245.601562 94.496094 253.902344 86.398438 253.902344 86.398438" fill="#01c2cb" fill-rule="evenodd"/></g><g id="change5_4"><path d="M 274.902344 89.398438 C 276 92.296875 273.5 95.199219 273 98.597656 C 272.703125 101.097656 272.800781 103.898438 273.300781 106.097656 C 263.300781 109.898438 258 109.5 258 109.5 C 258 101.796875 258 97.898438 258 97.898438 C 250.203125 104.199219 242.402344 110.097656 234.5 115.398438 C 233.300781 115.097656 232.203125 114.5 231.300781 113.699219 C 242.601562 107.199219 251.402344 99.597656 257.703125 90.898438 C 262.203125 97.699219 264.300781 94.097656 268.902344 92.296875 C 271 91.398438 274.5 92.699219 274.902344 89.398438" fill="#01c2cb" fill-rule="evenodd"/></g><g id="change3_5"><path d="M 190.601562 61.898438 C 186.402344 65.296875 187.601562 70.199219 192.703125 77.097656 C 193.402344 78.996094 193.203125 82.097656 193.601562 86.097656 C 196.402344 88.199219 199.300781 87.796875 202.300781 84.699219 C 201.101562 80.898438 200.800781 78.699219 201.300781 77.398438 C 202.101562 75.199219 204.5 76.097656 206.402344 74.097656 C 207.703125 72.796875 207.800781 70.898438 206.800781 68.398438 C 206.601562 67.699219 206.402344 66.796875 206.402344 65.699219 C 206.5 63.097656 205.902344 60.898438 204.703125 59.097656 C 198 55.199219 193.300781 56.199219 190.601562 61.898438" fill="#f2d3b9" fill-rule="evenodd"/></g><g id="change2_2"><path d="M 72.5 248.097656 L 114.203125 141.800781 L 389.800781 78.296875 Z M 72.5 248.097656" fill="#ed0c78" fill-rule="evenodd"/></g><path d="M 173.007812 1954.023438 L 194.023438 1954.023438 C 193.007812 1960.039062 193.007812 1967.03125 193.007812 1973.007812 C 193.007812 2064.023438 268.007812 2138.007812 360 2138.007812 L 531.015625 2138.007812 C 623.007812 2138.007812 698.007812 2064.023438 698.007812 1973.007812 C 698.007812 1966.015625 698.007812 1960.039062 697.03125 1954.023438 L 698.007812 1954.023438 C 790 1954.023438 865 1880.039062 865 1789.023438 C 865 1780.039062 864.023438 1771.015625 863.007812 1762.03125 L 925 1762.03125 C 1004.023438 1762.03125 1068.007812 1698.007812 1068.007812 1621.015625 C 1068.007812 1543.007812 1004.023438 1480 925 1480 L 437.03125 1480 C 358.007812 1480 294.023438 1544.023438 294.023438 1621.015625 C 294.023438 1622.03125 294.023438 1623.007812 294.023438 1624.023438 L 173.007812 1624.023438 C 81.015625 1624.023438 6.015625 1698.007812 6.015625 1789.023438 C 6.015625 1880.039062 81.015625 1954.023438 173.007812 1954.023438 Z M 173.007812 1954.023438" fill="none" stroke="#ed0c78" stroke-linecap="round" stroke-miterlimit="22.926" stroke-width="12.029" transform="matrix(.1 0 0 -.1 0 266.5)"/><g clip-path="url(#b)"><path d="M 3694.023438 2540.039062 L 3681.015625 2540.039062 C 3681.015625 2544.023438 3682.03125 2548.007812 3682.03125 2552.03125 C 3682.03125 2611.015625 3633.007812 2659.023438 3574.023438 2659.023438 L 3463.007812 2659.023438 C 3403.007812 2659.023438 3355 2611.015625 3355 2552.03125 C 3355 2548.007812 3355 2544.023438 3356.015625 2540.039062 L 3355 2540.039062 C 3295 2540.039062 3247.03125 2492.03125 3247.03125 2433.007812 C 3247.03125 2427.03125 3248.007812 2421.015625 3248.007812 2416.015625 L 3208.007812 2416.015625 C 3157.03125 2416.015625 3115 2375.039062 3115 2324.023438 C 3115 2274.023438 3157.03125 2232.03125 3208.007812 2232.03125 L 3525 2232.03125 C 3576.015625 2232.03125 3618.007812 2273.007812 3618.007812 2324.023438 C 3618.007812 2325.039062 3618.007812 2325.039062 3618.007812 2326.015625 L 3696.015625 2326.015625 C 3756.015625 2326.015625 3804.023438 2374.023438 3804.023438 2433.007812 C 3803.007812 2492.03125 3754.023438 2540.039062 3694.023438 2540.039062 Z M 3694.023438 2540.039062" fill="none" stroke="#4142a1" stroke-linecap="round" stroke-miterlimit="22.926" stroke-width="12.029" transform="matrix(.1 0 0 -.1 0 266.5)"/></g><g clip-path="url(#c)"><path d="M 3196.015625 856.015625 L 3217.03125 856.015625 C 3216.015625 862.03125 3216.015625 869.023438 3216.015625 875.039062 C 3216.015625 966.015625 3291.015625 1040.039062 3383.007812 1040.039062 L 3838.007812 1040.039062 C 3930 1040.039062 4005 966.015625 4005 875.039062 C 4005 813.007812 3970 758.007812 3918.007812 730.039062 L 4017.03125 730.039062 C 4066.015625 730.039062 4107.03125 690.039062 4107.03125 642.03125 C 4107.03125 593.007812 4067.03125 554.023438 4017.03125 554.023438 L 3929.023438 554.023438 C 3945 533.007812 3954.023438 507.03125 3954.023438 479.023438 C 3954.023438 409.023438 3896.015625 352.03125 3826.015625 352.03125 L 3530 352.03125 C 3459.023438 352.03125 3402.03125 409.023438 3402.03125 479.023438 C 3402.03125 496.015625 3405 512.03125 3411.015625 527.03125 L 3196.015625 527.03125 C 3104.023438 527.03125 3029.023438 601.015625 3029.023438 692.03125 C 3029.023438 782.03125 3104.023438 856.015625 3196.015625 856.015625 Z M 3196.015625 856.015625" fill="none" stroke="#ed0c78" stroke-linecap="round" stroke-miterlimit="22.926" stroke-width="12.029" transform="matrix(.1 0 0 -.1 0 266.5)"/></g><path d="M 682.03125 1141.015625 L 1608.007812 1141.015625" fill="none" stroke="#fad206" stroke-linecap="round" stroke-miterlimit="22.926" stroke-width="12.029" transform="matrix(.1 0 0 -.1 0 266.5)"/><path d="M 3258.007812 2009.023438 L 3811.015625 2009.023438" fill="none" stroke="#fad206" stroke-linecap="round" stroke-miterlimit="22.926" stroke-width="12.029" transform="matrix(.1 0 0 -.1 0 266.5)"/><path d="M 3813.007812 2063.007812 L 3871.015625 2063.007812" fill="none" stroke="#fad206" stroke-linecap="round" stroke-miterlimit="22.926" stroke-width="12.029" transform="matrix(.1 0 0 -.1 0 266.5)"/><path d="M 3118.007812 1529.023438 L 3025 1529.023438" fill="none" stroke="#fad206" stroke-linecap="round" stroke-miterlimit="22.926" stroke-width="12.029" transform="matrix(.1 0 0 -.1 0 266.5)"/><path d="M 1557.03125 2084.023438 L 1600 2084.023438" fill="none" stroke="#fad206" stroke-linecap="round" stroke-miterlimit="22.926" stroke-width="12.029" transform="matrix(.1 0 0 -.1 0 266.5)"/><path d="M 1354.023438 1023.007812 L 1472.03125 1023.007812" fill="none" stroke="#fad206" stroke-linecap="round" stroke-miterlimit="22.926" stroke-width="12.029" transform="matrix(.1 0 0 -.1 0 266.5)"/><path d="M 1289.023438 2025.039062 L 1509.023438 2025.039062" fill="none" stroke="#fad206" stroke-linecap="round" stroke-miterlimit="22.926" stroke-width="12.029" transform="matrix(.1 0 0 -.1 0 266.5)"/><path d="M 3255 1489.023438 L 3475 1489.023438" fill="none" stroke="#fad206" stroke-linecap="round" stroke-miterlimit="22.926" stroke-width="12.029" transform="matrix(.1 0 0 -.1 0 266.5)"/><g id="change1_3"><path d="M 272 68.699219 C 265.902344 72.199219 263.402344 76.097656 264.703125 80.496094 C 245.703125 87.398438 234.800781 88.796875 232.203125 84.496094 C 227 80.996094 225.703125 78.199219 227.203125 73.898438 C 228 71.496094 232 70.597656 237.5 70.996094 C 248.5 71.496094 249.402344 65.097656 253.902344 60.699219 C 256.703125 57.996094 261.703125 55.296875 269.101562 57.996094 C 272.800781 59.597656 275.300781 63.597656 272 68.699219" fill="#4142a1" fill-rule="evenodd"/></g><g id="change3_6"><path d="M 260.800781 81.996094 C 263.203125 82.496094 264.800781 82.597656 267.5 81.898438 C 265.402344 75.699219 268.902344 76.097656 270.800781 75.398438 C 272.902344 74.597656 272.800781 70.097656 271.5 67.199219 C 270.5 66.699219 269.800781 65.496094 269.203125 63.496094 C 268.101562 66.597656 265.800781 68.296875 262.300781 68.496094 C 261.5 68.996094 261.203125 69.996094 261.300781 71.597656 C 260 70.496094 259.703125 67.898438 258 68.199219 C 256 68.496094 256.601562 73.996094 260.300781 73.496094 C 261.5 73.496094 261.800781 78.597656 260.800781 81.996094" fill="#f2d3b9" fill-rule="evenodd"/></g><g id="change5_5"><path d="M 182.300781 88.699219 C 182.402344 89.796875 183.300781 89.996094 184.902344 89.398438 C 190.101562 87.199219 192.300781 89.199219 196.703125 91.496094 C 201.203125 92.898438 209.101562 87.199219 205.203125 75.097656 C 201.402344 76.597656 196 69.996094 197.300781 63.996094 C 198.101562 60.296875 203.402344 58.898438 205.402344 60.296875 C 208.203125 54.597656 188.703125 51.796875 186.902344 62.496094 C 186.601562 64.597656 186.703125 67.097656 187.703125 70.296875 C 188.703125 73.898438 188.402344 76.496094 187.601562 78.699219 C 186.203125 81.796875 182 85.699219 182.300781 88.699219" fill="#01c2cb" fill-rule="evenodd"/></g></g></svg>