<?xml version="1.0" encoding="UTF-8"?><svg xmlns="http://www.w3.org/2000/svg" xmlns:xlink="http://www.w3.org/1999/xlink" height="366.3" preserveAspectRatio="xMidYMid meet" version="1.0" viewBox="-2.3 -0.0 365.6 366.3" width="365.6" zoomAndPan="magnify"><defs><clipPath id="a"><path d="M 279 292 L 324 292 L 324 366.269531 L 279 366.269531 Z M 279 292"/></clipPath><clipPath id="b"><path d="M 307 251 L 363.28125 251 L 363.28125 317 L 307 317 Z M 307 251"/></clipPath></defs><g><g clip-path="url(#a)"><g id="change1_2"><path d="M 279.34375 292.925781 C 280.945312 313.574219 281.75 323.902344 281.75 323.902344 C 281.75 323.902344 287.601562 329.097656 299.304688 339.492188 C 299.847656 345.886719 299.035156 352.960938 296.867188 360.710938 C 296.257812 363.207031 296.347656 364.925781 297.136719 365.863281 C 299.121094 368.34375 313.511719 355.808594 316.203125 348.042969 C 316.84375 346.207031 317.46875 344.65625 317.335938 343.085938 C 318.527344 344.394531 319.378906 344.984375 319.878906 344.847656 C 322.003906 343.597656 323.269531 341.835938 323.675781 339.5625 C 323.675781 339.5625 307.179688 318.59375 279.34375 292.925781" fill="#4142a1" fill-rule="evenodd"/></g><path d="M 2793.4375 733.442187 C 2809.453125 526.957812 2817.5 423.676562 2817.5 423.676562 C 2817.5 423.676562 2876.015625 371.723437 2993.046875 267.778125 C 2998.476562 203.832812 2990.351562 133.090625 2968.671875 55.590625 C 2962.578125 30.629687 2963.476562 13.442187 2971.367188 4.067187 C 2991.210938 -20.7375 3135.117188 104.614062 3162.03125 182.270312 C 3168.4375 200.629687 3174.6875 216.1375 3173.359375 231.840625 C 3185.273438 218.754687 3193.789062 212.85625 3198.789062 214.223437 C 3220.039062 226.723437 3232.695312 244.340625 3236.757812 267.075 C 3236.757812 267.075 3071.796875 476.7625 2793.4375 733.442187 Z M 2793.4375 733.442187" fill="none" stroke="#4142a1" stroke-linecap="round" stroke-linejoin="round" stroke-miterlimit="22.926" stroke-width="1.762" transform="matrix(.1 0 0 -.1 0 366.27)"/></g><g clip-path="url(#b)"><g id="change1_1"><path d="M 307.152344 251.289062 C 314.695312 270.585938 318.464844 280.230469 318.464844 280.230469 C 318.464844 280.230469 325.574219 283.5 339.796875 290.042969 C 342.175781 296.003906 343.453125 303.007812 343.628906 311.054688 C 343.773438 313.617188 344.359375 315.234375 345.386719 315.902344 C 348.007812 317.703125 358.132812 301.523438 358.449219 293.308594 C 358.523438 291.367188 358.675781 289.707031 358.09375 288.238281 C 359.613281 289.144531 360.597656 289.460938 361.035156 289.1875 C 362.707031 287.375 363.402344 285.320312 363.128906 283.023438 C 363.128906 283.023438 341.253906 267.757812 307.152344 251.289062" fill="#4142a1" fill-rule="evenodd"/></g><path d="M 3071.523438 1149.809375 C 3146.953125 956.840625 3184.648438 860.395312 3184.648438 860.395312 C 3184.648438 860.395312 3255.742188 827.7 3397.96875 762.270312 C 3421.757812 702.660937 3434.53125 632.621875 3436.289062 552.153125 C 3437.734375 526.528125 3443.59375 510.35625 3453.867188 503.676562 C 3480.078125 485.66875 3581.328125 647.465625 3584.492188 729.614062 C 3585.234375 749.028125 3586.757812 765.629687 3580.9375 780.317187 C 3596.132812 771.254687 3605.976562 768.090625 3610.351562 770.825 C 3627.070312 788.95 3634.023438 809.496875 3631.289062 832.465625 C 3631.289062 832.465625 3412.539062 985.121875 3071.523438 1149.809375 Z M 3071.523438 1149.809375" fill="none" stroke="#4142a1" stroke-linecap="round" stroke-linejoin="round" stroke-miterlimit="22.926" stroke-width="1.762" transform="matrix(.1 0 0 -.1 0 366.27)"/></g><g id="change2_1"><path d="M 30.886719 244.273438 C 37.089844 236.445312 38.933594 231.886719 38.933594 231.886719 C 32.597656 221.476562 28.339844 215.621094 28.339844 215.621094 C 23.351562 215.882812 -2.300781 249.09375 0.167969 251.242188 C 0.203125 251.652344 0.914062 252.777344 2.597656 253.191406 C 3.433594 253.398438 4.511719 253.429688 5.863281 253.113281 C 16.320312 245.65625 22.589844 245.730469 28.25 244.738281 C 29.425781 244.53125 29.855469 244.386719 30.886719 244.273438" fill="#832b99" fill-rule="evenodd"/></g><g id="change2_2"><path d="M 135.402344 311.046875 C 126.398438 308.359375 121.945312 308.34375 121.945312 308.34375 C 116.496094 317.566406 113.742188 323.359375 113.742188 323.359375 C 116.1875 327.640625 154.097656 338.464844 154.695312 335.546875 C 155.011719 335.367188 155.585938 334.347656 155.160156 332.726562 C 154.949219 331.917969 154.492188 330.964844 153.636719 329.886719 C 143.023438 323.339844 140.277344 317.8125 136.953125 313.195312 C 136.261719 312.238281 135.957031 311.910156 135.402344 311.046875" fill="#832b99" fill-rule="evenodd"/></g><g id="change3_1"><path d="M 90.070312 151.734375 C 110.515625 164.488281 120.734375 170.863281 120.734375 170.863281 C 109.050781 225.671875 98.761719 262.34375 86.621094 274.917969 C 74.574219 287.394531 36.570312 252.476562 28.25 244.738281 C 30.78125 237.179688 34.304688 232.117188 38.824219 229.554688 C 53.023438 236.78125 63.867188 242.65625 71.359375 247.175781 C 74.492188 205.421875 80.730469 173.605469 90.070312 151.734375" fill="#e12c9f" fill-rule="evenodd"/></g><g id="change3_2"><path d="M 123.453125 157.664062 C 106.640625 179.539062 98.234375 190.472656 98.234375 190.472656 C 98.234375 190.472656 109.804688 203.308594 132.941406 228.976562 C 130.535156 239.753906 126.558594 266.054688 121.011719 307.878906 C 125.898438 311.800781 131.863281 313.789062 138.90625 313.84375 C 158.566406 261.585938 167.425781 230.402344 165.480469 220.300781 C 157.417969 204.957031 143.410156 184.078125 123.453125 157.664062" fill="#e12c9f" fill-rule="evenodd"/></g><path d="M 1126.71875 1597.817187 C 1143.671875 1669.301562 1152.1875 1705.004687 1152.1875 1705.004687 C 1197.03125 1746.1375 1229.609375 1798.246875 1249.804688 1861.332812" fill="none" stroke="#f9e017" stroke-linecap="round" stroke-linejoin="round" stroke-miterlimit="22.926" stroke-width="8.158" transform="matrix(.1 0 0 -.1 0 366.27)"/><g id="change4_1"><path d="M 99.210938 126.726562 C 103.941406 134.921875 103.683594 134.472656 103.683594 134.472656 C 96.773438 150.804688 39.566406 175.230469 12.21875 174.265625 C 13.878906 163.6875 24.183594 148.144531 32.285156 147.152344 C 60.84375 147.808594 83.152344 141 99.210938 126.726562" fill="#f9e017" fill-rule="evenodd"/></g><g id="change3_3"><path d="M 93.929688 63.109375 C 95.878906 75.570312 92.601562 81.46875 84.101562 80.800781 C 69.660156 84.632812 76.386719 104.882812 94.742188 104.59375 C 125.074219 102.414062 137.671875 94.753906 132.542969 81.609375 C 130.484375 76.335938 126.21875 72.988281 125.207031 67.511719 C 123.898438 60.402344 128.585938 58.726562 128.652344 53.144531 C 128.6875 50.265625 127.089844 47.972656 123.855469 46.273438 C 107.21875 45.773438 97.242188 51.386719 93.929688 63.109375" fill="#e12c9f" fill-rule="evenodd"/></g><g id="change5_1"><path d="M 160.632812 109.816406 C 152.601562 123.171875 153.59375 133.746094 163.617188 141.539062 C 168.40625 150.65625 178.261719 124.082031 193.171875 61.820312 C 199.570312 55.796875 199.210938 33.878906 195.339844 31.453125 C 195.339844 31.453125 192.355469 39.949219 186.390625 56.941406 C 186.390625 56.941406 177.804688 74.566406 160.632812 109.816406" fill="#f2d3b9" fill-rule="evenodd"/></g><g id="change2_3"><path d="M 116.703125 92.121094 C 118.929688 108.515625 121.910156 117.800781 125.65625 119.984375 C 152.304688 144.035156 167.171875 155.109375 170.257812 153.195312 C 166.816406 135.585938 158.777344 114.492188 160.632812 109.816406 C 150.066406 102.550781 135.425781 96.652344 116.703125 92.121094" fill="#832b99" fill-rule="evenodd"/></g><g id="change5_2"><path d="M 77.9375 103.035156 C 82.472656 112.1875 80.167969 126.648438 71.023438 146.417969 C 68.785156 154.769531 65.894531 160.691406 62.34375 164.175781 C 48.40625 173.464844 33.085938 181.917969 16.386719 189.527344 C 12.910156 201.546875 8.84375 207.644531 4.183594 207.832031 C 2.289062 205.191406 4.550781 186.980469 8.929688 182.886719 C 23.316406 171.371094 36.511719 162.5625 48.515625 156.449219 C 57.871094 130.757812 67.679688 112.949219 77.9375 103.035156" fill="#f2d3b9" fill-rule="evenodd"/></g><g id="change4_2"><path d="M 124.84375 129.46875 C 107.777344 111.625 105.058594 98.882812 116.691406 91.242188 C 120.421875 91.339844 122.570312 92.109375 125.066406 94.316406 C 134.414062 109.917969 134.550781 125.101562 124.84375 129.46875" fill="#f9e017" fill-rule="evenodd"/></g><g id="change5_3"><path d="M 98.402344 91.714844 C 102.007812 100.527344 105.578125 105.226562 109.113281 105.816406 C 113.328125 105.191406 115.859375 100.628906 116.703125 92.121094 C 116.703125 92.121094 116.613281 86.699219 116.433594 75.855469 C 116.433594 75.855469 111.777344 75.109375 102.46875 73.617188 C 106.890625 80.902344 105.535156 86.933594 98.402344 91.714844" fill="#f2d3b9" fill-rule="evenodd"/></g><g id="change5_4"><path d="M 96.503906 63.449219 C 98.140625 50.175781 105.523438 45.515625 123.230469 50.746094 C 125.3125 63.28125 120.59375 82.355469 111.363281 81.136719 C 108.734375 80.792969 105.863281 78.113281 102.46875 73.617188 C 98.898438 74.164062 96.910156 70.773438 96.503906 63.449219" fill="#f2d3b9" fill-rule="evenodd"/></g><g id="change3_4"><path d="M 96.789062 66.441406 C 95.371094 79.285156 91.140625 84.074219 84.101562 80.800781 C 87.347656 79.796875 89.578125 78.523438 90.789062 76.976562 C 93.847656 73.085938 88.714844 68.226562 87.367188 63.175781 C 85.503906 56.183594 86.488281 48.417969 93.402344 44.832031 C 98.234375 42.324219 103.257812 45.121094 107.828125 45.203125 C 109.523438 45.230469 110.65625 44.460938 111.785156 43.671875 C 114.1875 41.992188 117.210938 41.773438 119.683594 42.578125 C 123.414062 43.800781 126.230469 49.011719 123.347656 51.519531 C 121.738281 50.824219 120.398438 50.738281 119.320312 51.261719 C 116.132812 52.8125 113.886719 67.382812 105.1875 68.523438 C 104.132812 68.660156 103.085938 68.273438 102.109375 66.921875 C 100.796875 65.105469 97.4375 62.546875 96.789062 66.441406" fill="#e12c9f" fill-rule="evenodd"/></g><g id="change2_4"><path d="M 116.703125 92.121094 C 114.957031 95.992188 113.195312 98.996094 111.417969 101.136719 C 107.132812 99.816406 103.5625 96.089844 100.707031 89.953125 C 100.503906 89.277344 98.140625 90.117188 95.417969 91.320312 C 88.6875 94.296875 79.558594 96.558594 76.101562 99.375 C 71.257812 103.605469 61.855469 118.628906 47.902344 144.453125 C 54.050781 153.742188 62.996094 158.238281 74.746094 157.941406 C 78.996094 145.136719 82.882812 132.847656 86.40625 121.066406 C 90.683594 141.285156 89.464844 144.730469 83.964844 164.722656 C 83.90625 170.109375 91.949219 172.324219 108.097656 171.363281 C 124.117188 171.578125 131.53125 169.453125 130.332031 164.992188 C 125.621094 143.28125 124.085938 135.839844 124.5 134.625 C 127.746094 128.929688 129.398438 124.761719 129.792969 121.039062 C 130.464844 114.738281 127.539062 109.710938 122.671875 100.707031 C 119.914062 95.605469 117.925781 92.742188 116.703125 92.121094" fill="#832b99" fill-rule="evenodd"/></g><g id="change4_3"><path d="M 94.609375 144.960938 C 100.042969 115.917969 97.039062 99.273438 85.605469 95.023438 C 86.960938 93.140625 98.207031 89.257812 98.402344 91.714844 C 106.898438 107.785156 109.429688 124.71875 106 142.519531 C 105.761719 164.050781 108.835938 179.414062 115.21875 188.613281 C 113.578125 198.492188 105.445312 204.546875 90.816406 206.777344 C 87.242188 190.609375 88.507812 170.003906 94.609375 144.960938" fill="#f9e017" fill-rule="evenodd"/></g><g id="change5_5"><path d="M 213.863281 111.894531 C 209.425781 99.648438 208.273438 82.171875 202.410156 62.996094 C 195.648438 57.378906 194.65625 35.480469 198.371094 32.820312 L 208.875 57.707031 L 225.671875 95.941406 C 221.484375 103.800781 217.09375 103.0625 213.863281 111.894531" fill="#f2d3b9" fill-rule="evenodd"/></g><g id="change3_5"><path d="M 297.644531 120.480469 C 297.644531 120.480469 303.964844 123.320312 305.027344 124.683594 C 297.304688 133.933594 294.59375 155.308594 298.519531 185.828125 C 306.90625 207.5625 306.09375 224.101562 296.078125 235.445312 C 309.757812 241.578125 325.933594 250.527344 344.613281 262.289062 C 347.164062 274.988281 319.664062 285.554688 310.550781 296.304688 C 300.371094 308.308594 292.992188 335.757812 274.386719 332.515625 C 242.59375 297.671875 226.503906 272.273438 226.121094 256.324219 C 226.894531 252.78125 233.492188 235.246094 245.914062 203.722656 C 249.621094 179.144531 250.164062 160.03125 247.542969 146.378906 C 232.46875 138.453125 221.351562 130 214.191406 121.023438 C 212.503906 118.125 208.707031 101.585938 202.804688 71.40625 C 206.054688 67.828125 209.714844 65.796875 213.785156 65.304688 C 221.671875 81.988281 227.636719 95.816406 231.679688 106.789062 C 246.636719 113.523438 254.117188 116.890625 254.117188 116.890625 C 281.25 116.828125 297.644531 120.480469 297.644531 120.480469" fill="#e12c9f" fill-rule="evenodd"/></g><g id="change5_6"><path d="M 313.300781 213.617188 C 305.300781 213.210938 301.300781 213.007812 301.300781 213.007812 C 299.367188 218.644531 298.054688 223.660156 297.371094 228.054688 C 298.90625 235.941406 302.496094 242.402344 308.148438 247.441406 C 310.117188 248.371094 311.835938 241.757812 305.523438 226.933594 C 310.707031 218.054688 313.300781 213.617188 313.300781 213.617188" fill="#f2d3b9" fill-rule="evenodd"/></g><g id="change3_6"><path d="M 305.027344 124.683594 C 295.472656 118.886719 289.371094 133.4375 291.605469 144.339844 C 291.605469 144.339844 298.203125 154.644531 311.398438 175.25 C 311.398438 175.25 306.925781 189.125 297.976562 216.871094 C 300.59375 219.941406 304.660156 222.15625 310.179688 223.515625 C 322.089844 203 329.140625 187.726562 331.328125 177.691406 C 322.132812 155.441406 313.363281 137.769531 305.027344 124.683594" fill="#e12c9f" fill-rule="evenodd"/></g><g id="change2_5"><path d="M 297.644531 120.480469 C 287.585938 107.195312 286.84375 108.5625 291.398438 94.882812 C 294.78125 84.71875 292.53125 78.652344 287.621094 74.84375 C 278.957031 68.125 262.554688 70.023438 258.839844 82.816406 C 257.914062 85.996094 257.714844 89.847656 259.109375 94.121094 C 266.082031 115.484375 256.585938 112.457031 254.117188 116.890625 C 255.683594 122.042969 257.65625 126.65625 260.023438 130.351562 C 272.101562 149.191406 286.199219 132.058594 297.644531 120.480469" fill="#832b99" fill-rule="evenodd"/></g><g id="change5_7"><path d="M 280.074219 96.574219 C 278.417969 101.6875 275.039062 106.886719 269.683594 106.3125 C 263.136719 105.609375 260.984375 85.089844 265.097656 82.417969 C 267.453125 80.886719 271.664062 81.171875 275.210938 82.632812 C 277.515625 83.582031 279.558594 84.984375 280.605469 86.75 C 282.128906 89.324219 280.929688 93.941406 280.074219 96.574219" fill="#f2d3b9" fill-rule="evenodd"/></g><g id="change3_7"><path d="M 280.074219 96.574219 C 279.972656 96.890625 279.863281 97.203125 279.75 97.515625 C 280.277344 93.125 279.683594 90.722656 277.730469 88.664062 C 273.566406 84.285156 265.324219 83.902344 263.277344 86.34375 C 263.597656 84.441406 264.195312 83.003906 265.097656 82.417969 C 267.453125 80.886719 271.664062 81.171875 275.210938 82.632812 C 277.515625 83.582031 279.558594 84.984375 280.605469 86.75 C 282.128906 89.324219 280.929688 93.941406 280.074219 96.574219" fill="#e12c9f" fill-rule="evenodd"/></g><path d="M 1947.851562 3656.528125 L 1961.171875 3469.41875" fill="none" stroke="#4142a1" stroke-linecap="round" stroke-linejoin="round" stroke-miterlimit="22.926" stroke-width="12.236" transform="matrix(.1 0 0 -.1 0 366.27)"/><path d="M 2198.828125 3569.145312 L 2084.609375 3450.864062" fill="none" stroke="#4142a1" stroke-linecap="round" stroke-linejoin="round" stroke-miterlimit="22.926" stroke-width="12.236" transform="matrix(.1 0 0 -.1 0 366.27)"/><path d="M 1713.476562 3569.145312 L 1827.65625 3450.864062" fill="none" stroke="#4142a1" stroke-linecap="round" stroke-linejoin="round" stroke-miterlimit="22.926" stroke-width="12.236" transform="matrix(.1 0 0 -.1 0 366.27)"/><path d="M 1803.75 3299.535937 L 1648.671875 3275.317187" fill="none" stroke="#4142a1" stroke-linecap="round" stroke-linejoin="round" stroke-miterlimit="22.926" stroke-width="12.236" transform="matrix(.1 0 0 -.1 0 366.27)"/><path d="M 2149.804688 3299.535937 L 2304.882812 3275.317187" fill="none" stroke="#4142a1" stroke-linecap="round" stroke-linejoin="round" stroke-miterlimit="22.926" stroke-width="12.236" transform="matrix(.1 0 0 -.1 0 366.27)"/></g></svg>