<?xml version="1.0" encoding="UTF-8"?><svg xmlns="http://www.w3.org/2000/svg" xmlns:xlink="http://www.w3.org/1999/xlink" height="259.1" preserveAspectRatio="xMidYMid meet" version="1.0" viewBox="-3.9 -0.0 488.9 259.1" width="488.9" zoomAndPan="magnify"><defs><clipPath id="a"><path d="M 30 34 L 243 34 L 243 259.109375 L 30 259.109375 Z M 30 34"/></clipPath><clipPath id="b"><path d="M 315 10 L 484.96875 10 L 484.96875 259 L 315 259 Z M 315 10"/></clipPath></defs><g><g id="change1_1"><path d="M 229.757812 14.675781 C 229.757812 14.675781 228.125 19.027344 223.410156 15.21875 C 218.691406 11.410156 217.421875 15.21875 217.421875 15.21875 C 217.421875 15.21875 219.960938 19.210938 220.6875 20.84375 C 221.410156 22.476562 225.40625 24.835938 226.492188 26.285156 C 227.582031 27.738281 226.492188 38.078125 226.492188 38.078125 L 239.191406 41.886719 C 239.191406 41.886719 239.917969 33.359375 241.371094 31.910156 C 242.820312 30.457031 246.8125 28.582031 248.261719 27.707031 C 249.714844 26.828125 254.792969 23.929688 254.613281 23.199219 C 254.429688 22.476562 255.710938 14.191406 254.617188 13.523438 C 253.523438 12.859375 251.167969 11.046875 249.894531 12.496094 C 248.625 13.949219 249.171875 7.238281 248.261719 7.238281 C 247.355469 7.238281 239.554688 6.691406 237.558594 8.324219 C 235.5625 9.957031 232.296875 11.410156 229.757812 14.675781" fill="#875a53"/></g><g id="change1_2"><path d="M 11.507812 77.085938 C 11.507812 77.085938 20.578125 77.808594 22.574219 77.628906 C 24.570312 77.449219 25.113281 74.726562 26.019531 71.460938 C 26.929688 68.195312 28.925781 69.101562 30.847656 68.921875 C 32.769531 68.738281 30.195312 74.183594 30.847656 74.726562 C 31.5 75.269531 35.09375 85.066406 35.816406 86.335938 C 36.542969 87.605469 46.15625 96.316406 46.15625 96.316406 L 36.363281 104.480469 C 36.363281 104.480469 28.925781 95.589844 26.203125 95.589844 C 23.480469 95.589844 8.96875 92.867188 8.96875 92.867188 L 0.621094 87.425781 C 0.621094 87.425781 -3.914062 76.359375 11.507812 77.085938" fill="#875a53"/></g><g id="change2_1"><path d="M 287.664062 134.65625 C 287.664062 134.65625 297.042969 134.65625 297.042969 129.40625 C 297.042969 124.15625 295.917969 119.277344 297.042969 114.777344 C 298.167969 110.277344 287.289062 80.789062 261.785156 92.53125 C 236.277344 104.273438 250.449219 146.035156 271.160156 144.035156 C 291.875 142.03125 287.664062 134.65625 287.664062 134.65625" fill="#f794b9"/></g><g clip-path="url(#a)" id="change2_3"><path d="M 112.992188 259.109375 C 151.628906 259.109375 216.519531 259.109375 216.519531 259.109375 L 213.519531 241.105469 C 213.519531 241.105469 208.269531 224.976562 216.519531 216.347656 C 224.773438 207.722656 220.269531 187.839844 220.269531 187.839844 C 220.269531 187.839844 218.394531 179.214844 218.769531 173.210938 C 219.144531 167.210938 229.273438 131.953125 230.773438 125.199219 C 232.273438 118.449219 233.023438 93.691406 233.398438 89.566406 C 233.773438 85.441406 240.152344 53.933594 240.527344 49.804688 C 240.902344 45.679688 242.777344 37.054688 242.777344 37.054688 C 242.777344 37.054688 224.773438 33.300781 225.148438 34.800781 C 225.523438 36.300781 215.394531 81.6875 215.394531 81.6875 C 215.394531 81.6875 215.394531 86.566406 213.144531 90.316406 C 210.894531 94.066406 212.769531 98.570312 206.765625 120.324219 C 200.765625 142.078125 185.761719 152.582031 185.761719 152.582031 L 163.257812 159.332031 C 163.257812 159.332031 155.378906 158.210938 151.628906 159.332031 C 147.878906 160.457031 137.375 157.210938 137.375 157.210938 L 92.363281 133.828125 C 92.363281 133.828125 90.863281 128.953125 89.738281 129.328125 C 88.613281 129.703125 83.359375 124.824219 83.359375 124.824219 L 43.976562 92.566406 C 43.976562 92.566406 35.722656 100.820312 30.847656 101.945312 C 39.4375 112.546875 68.355469 137.203125 68.355469 137.203125 C 68.355469 137.203125 78.859375 148.457031 83.359375 154.832031 C 87.859375 161.207031 132.496094 190.84375 132.496094 190.84375 C 132.496094 190.84375 130.621094 210.722656 135.125 217.097656 C 135.125 217.097656 132.496094 229.851562 125.746094 236.980469 C 118.996094 244.105469 112.992188 259.109375 112.992188 259.109375" fill="#f794b9"/></g><g id="change3_1"><path d="M 119.742188 113.449219 C 123.953125 107.839844 123.121094 99.320312 123.121094 99.320312 C 123.121094 99.320312 129.121094 98.945312 127.996094 94.441406 C 126.871094 89.941406 119.746094 91.816406 119.746094 91.816406 C 119.746094 91.816406 119.371094 85.066406 126.496094 87.691406 C 133.621094 90.316406 135.125 84.175781 135.125 84.175781 C 135.125 84.175781 140.375 77.1875 140.375 80.5625 C 140.375 83.9375 145.625 81.3125 149.003906 81.875 C 152.378906 82.4375 154.628906 85.816406 157.628906 83.1875 C 160.628906 80.5625 165.507812 80.5625 165.507812 80.5625 C 165.507812 80.5625 172.640625 78.3125 169.824219 75.6875 C 167.007812 73.0625 179.386719 78.3125 179.011719 82.8125 C 179.011719 82.8125 183.886719 85.066406 185.386719 83.1875 C 186.886719 81.3125 192.535156 83.9375 190.648438 88.441406 C 188.761719 92.941406 187.667969 93.691406 191.027344 95.566406 C 194.390625 97.445312 195.515625 101.570312 195.140625 105.320312 C 194.765625 109.070312 201.515625 111.695312 201.140625 110.195312 C 202.640625 115.449219 197.765625 115.074219 197.765625 115.074219 C 197.765625 115.074219 200.765625 122.574219 198.515625 126.324219 C 196.265625 130.078125 198.375 138.851562 199.199219 137.503906 C 200.023438 136.15625 194.765625 137.644531 194.765625 137.644531 C 194.765625 137.644531 194.410156 145.078125 190.648438 145.078125 C 186.886719 145.078125 180.136719 149.582031 180.136719 149.582031 L 159.890625 152.207031 L 152.753906 154.457031 C 152.753906 154.457031 153.128906 148.832031 149.003906 149.207031 C 144.875 149.582031 146 154.457031 146 154.457031 C 146 154.457031 141.5 146.601562 141.875 146.777344 C 142.25 146.953125 135.5 145.828125 134.375 143.578125 C 133.246094 141.328125 133.621094 131.203125 130.246094 131.953125 C 126.871094 132.703125 124.246094 126.699219 122.371094 130.078125 C 120.496094 133.453125 115.613281 118.949219 119.742188 113.449219" fill="#1b3a5d"/></g><g id="change3_2"><path d="M 391.941406 96.398438 C 391.941406 96.398438 384.066406 95.273438 378.0625 99.398438 C 372.0625 103.523438 353.308594 123.402344 355.933594 157.914062 C 358.558594 192.421875 414.074219 172.539062 414.074219 172.539062 C 414.074219 172.539062 429.453125 102.773438 391.941406 96.398438" fill="#1b3a5d"/></g><g id="change4_2"><path d="M 393.316406 107.152344 C 393.316406 107.152344 388.191406 105.152344 385.941406 107.152344 C 383.691406 109.152344 370.5625 133.90625 370.1875 136.15625 C 369.8125 138.40625 377.3125 154.164062 387.816406 154.914062 C 398.320312 155.664062 407.320312 138.03125 407.320312 138.03125 C 407.320312 138.03125 409.324219 110.027344 393.316406 107.152344" fill="#f7b5a2"/></g><g clip-path="url(#b)" id="change4_1"><path d="M 426.074219 258.8125 C 424.199219 255.8125 414.074219 240.433594 414.074219 240.433594 C 414.074219 240.433594 427.199219 203.675781 431.328125 180.417969 C 440.703125 166.164062 460.585938 129.78125 461.335938 127.691406 C 462.085938 125.601562 470.710938 90.394531 470.710938 88.144531 C 470.710938 85.894531 475.964844 63.386719 477.839844 62.261719 C 479.714844 61.136719 480.464844 56.636719 483.839844 49.886719 C 487.214844 43.132812 481.964844 37.132812 481.589844 35.257812 C 481.214844 33.382812 474.839844 30.003906 474.839844 30.003906 C 474.839844 30.003906 477.089844 14.625 474.839844 13.125 C 472.585938 11.625 468.460938 33.382812 468.460938 33.382812 C 468.460938 33.382812 466.210938 18.378906 462.835938 18 C 459.460938 17.625 464.335938 37.132812 462.835938 38.632812 C 461.335938 40.132812 459.835938 42.382812 459.835938 42.382812 L 462.835938 62.261719 C 462.835938 62.261719 450.832031 97.898438 448.582031 103.148438 C 446.332031 108.398438 431.703125 133.90625 423.074219 150.785156 C 414.449219 167.664062 402.070312 164.664062 402.070312 164.664062 C 399.070312 163.914062 400.570312 142.535156 400.570312 142.535156 L 375.4375 142.160156 C 375.4375 142.160156 376.9375 160.164062 373.9375 162.039062 C 373.9375 162.039062 369.4375 163.539062 365.683594 159.414062 C 361.933594 155.289062 354.808594 142.160156 354.808594 142.160156 C 354.808594 142.160156 343.554688 108.621094 343.179688 106.261719 C 342.804688 103.898438 338.679688 49.886719 338.679688 49.886719 L 336.050781 35.257812 C 336.050781 35.257812 333.800781 30.753906 332.300781 30.003906 C 330.800781 29.253906 332.300781 10.5 330.050781 10.5 C 327.800781 10.5 327.800781 27.003906 327.800781 27.003906 L 322.550781 10.5 C 322.550781 10.5 318.796875 9.75 319.546875 13.875 C 320.296875 18 322.175781 27.753906 322.175781 27.753906 C 322.175781 27.753906 316.546875 28.128906 316.546875 31.503906 C 313.546875 34.132812 316.546875 39.757812 316.546875 39.757812 C 316.546875 39.757812 322.925781 51.386719 323.675781 54.011719 C 324.425781 56.636719 325.550781 64.515625 324.800781 65.640625 C 324.050781 66.765625 324.425781 107.648438 323.675781 112.902344 C 322.925781 118.152344 338.679688 179.292969 338.679688 179.292969 C 338.679688 179.292969 345.054688 205.550781 347.304688 217.554688 C 349.554688 229.554688 352.558594 235.933594 348.804688 244.933594 L 342.429688 258.8125 L 426.074219 258.8125" fill="#f7b5a2"/></g><g id="change2_2"><path d="M 345.804688 246.4375 C 345.804688 246.4375 348.054688 236.683594 347.679688 234.058594 C 347.304688 231.433594 342.515625 202.070312 342.515625 202.070312 C 361.355469 199.714844 364.539062 158.023438 364.539062 158.023438 L 371.613281 162.292969 C 371.613281 162.292969 360.808594 199.546875 386.4375 196.921875 C 412.066406 194.296875 402.070312 164.664062 402.070312 164.664062 C 402.070312 164.664062 405.445312 162.414062 412.726562 162.542969 C 412.125 188.554688 430.953125 196.921875 430.953125 196.921875 C 430.953125 196.921875 418.574219 221.679688 421.199219 225.054688 C 423.824219 228.429688 420.449219 233.308594 420.449219 233.308594 C 420.449219 233.308594 419.699219 236.308594 420.449219 239.308594 C 421.199219 242.308594 423.449219 246.0625 423.449219 246.0625 C 423.449219 246.0625 427.199219 253.1875 426.074219 258.8125 C 398.695312 258.8125 342.429688 258.8125 342.429688 258.8125 C 342.429688 258.8125 342.804688 247.9375 345.804688 246.4375" fill="#f794b9"/></g><g id="change5_1"><path d="M 315.046875 253.9375 C 315.421875 250.9375 317.671875 221.679688 319.546875 215.679688 C 321.421875 209.675781 322.550781 189.046875 322.175781 182.667969 C 321.796875 176.292969 325.480469 153.410156 325.480469 153.410156 C 325.390625 152.285156 328.191406 116.277344 331.195312 107.648438 C 334.195312 99.023438 339.445312 76.515625 339.445312 73.140625 C 339.445312 69.765625 343.195312 51.386719 343.195312 51.386719 C 343.195312 51.386719 352.199219 48.007812 354.449219 45.007812 C 356.699219 42.007812 359.699219 32.628906 359.699219 32.628906 C 359.699219 32.628906 359.699219 26.253906 362.703125 25.128906 C 365.703125 24.003906 362.703125 19.503906 362.703125 19.503906 L 352.574219 23.628906 C 352.574219 23.628906 344.699219 29.628906 342.445312 29.628906 C 340.195312 29.628906 332.695312 44.632812 332.695312 44.632812 L 317.316406 95.273438 C 317.316406 95.273438 308.6875 140.285156 304.9375 150.785156 C 304.9375 150.785156 300.042969 154.726562 295.542969 153.410156 C 291.03125 152.097656 290.289062 124.90625 293.292969 123.777344 C 296.292969 122.652344 296.292969 115.902344 293.292969 116.277344 C 290.289062 116.652344 286.914062 114.027344 286.914062 114.027344 C 286.914062 114.027344 282.039062 106.523438 278.664062 103.523438 C 275.285156 100.523438 264.035156 101.382812 264.035156 101.382812 C 264.035156 101.382812 257.28125 103.523438 255.78125 106.523438 C 255.78125 106.523438 252.78125 119.277344 255.78125 127.90625 C 258.78125 136.53125 267.035156 142.910156 267.035156 142.910156 C 267.035156 142.910156 270.410156 153.410156 268.910156 157.164062 C 268.910156 157.164062 255.03125 141.785156 251.28125 131.28125 C 247.53125 120.777344 238.902344 75.765625 238.902344 75.765625 L 223.523438 25.128906 C 223.523438 25.128906 216.019531 10.125 213.769531 10.125 C 211.519531 10.125 203.644531 4.121094 203.644531 4.121094 L 193.515625 -0.00390625 C 193.515625 -0.00390625 190.515625 4.496094 193.515625 5.621094 C 196.515625 6.75 196.515625 13.125 196.515625 13.125 C 196.515625 13.125 199.515625 22.503906 201.769531 25.503906 C 204.019531 28.503906 213.019531 31.878906 213.019531 31.878906 C 213.019531 31.878906 216.769531 50.261719 216.769531 53.636719 C 216.769531 57.011719 222.023438 79.515625 225.023438 88.144531 C 228.023438 96.773438 230.828125 132.78125 230.738281 133.90625 C 230.652344 135.03125 235.902344 159.789062 249.78125 181.542969 C 249.40625 194.671875 255.40625 208.550781 255.40625 208.550781 C 255.40625 208.550781 257.65625 224.679688 254.28125 230.683594 C 250.90625 236.683594 241.902344 255.4375 241.527344 258.8125 L 315.214844 258.8125 L 315.046875 253.9375" fill="#d89b86"/></g><g id="change3_3"><path d="M 269.316406 157.164062 C 269.316406 157.164062 255.4375 141.785156 251.6875 131.28125 C 251.6875 131.28125 240.640625 126.78125 231.144531 133.90625 C 230.242188 134.582031 236.308594 159.789062 250.1875 181.542969 C 249.8125 194.671875 255.8125 208.550781 255.8125 208.550781 C 255.8125 208.550781 258.0625 224.679688 254.6875 230.683594 C 251.3125 236.683594 242.308594 255.4375 241.933594 258.8125 L 315.621094 258.8125 L 315.453125 253.9375 C 315.828125 250.9375 318.078125 221.679688 319.953125 215.679688 C 321.828125 209.675781 322.953125 189.046875 322.578125 182.667969 C 322.203125 176.292969 325.886719 153.410156 325.886719 153.410156 C 325.796875 152.285156 325.59375 133.101562 328.59375 124.476562 L 312.003906 121.601562 C 312.003906 121.601562 309.09375 140.285156 305.34375 150.785156 C 305.34375 150.785156 300.449219 154.726562 295.949219 153.410156 C 295.949219 153.410156 300.417969 165.039062 285.039062 165.039062 C 269.660156 165.039062 269.316406 157.164062 269.316406 157.164062" fill="#1b3a5d"/></g><g id="change1_3"><path d="M 185.761719 152.582031 C 185.761719 152.582031 183.136719 141.328125 185.761719 141.328125 C 188.386719 141.328125 190.636719 136.078125 190.636719 136.078125 L 187.386719 134.453125 C 187.386719 134.453125 188.480469 124.847656 187.386719 119.949219 C 184.886719 119.449219 180.886719 113.449219 180.886719 113.449219 C 180.886719 113.449219 170.382812 118.449219 164.382812 115.074219 C 158.378906 111.695312 149.003906 124.074219 149.003906 124.074219 C 149.003906 124.074219 150.128906 148.457031 157.628906 150.332031 C 158.71875 156.871094 155.003906 160.832031 155.003906 160.832031 C 155.003906 160.832031 157.253906 176.214844 166.632812 185.214844 C 176.007812 194.21875 180.136719 200.96875 180.136719 200.96875 C 180.136719 200.96875 191.011719 178.089844 190.636719 153.707031 C 188.011719 153.332031 185.761719 152.582031 185.761719 152.582031" fill="#875a53"/></g></g></svg>