<?xml version="1.0" encoding="UTF-8"?><svg xmlns="http://www.w3.org/2000/svg" xmlns:xlink="http://www.w3.org/1999/xlink" height="192.8" preserveAspectRatio="xMidYMid meet" version="1.0" viewBox="0.0 0.0 429.1 192.8" width="429.1" zoomAndPan="magnify"><defs><clipPath id="a"><path d="M 0 0 L 429.089844 0 L 429.089844 191 L 0 191 Z M 0 0"/></clipPath></defs><g><g clip-path="url(#a)" id="change1_2"><path d="M 29.964844 190.902344 C 273.5625 190.902344 395.261719 190.902344 395.261719 190.902344 C 416.964844 174.5 427.0625 143.902344 428.863281 115.300781 C 431.5625 71.5 410.0625 54.5 389.964844 45.398438 C 377.261719 39.699219 366.261719 37.601562 354.261719 30.699219 C 334.964844 19.5 328.0625 2.398438 301.664062 0.5 C 279.261719 -1.101562 250.761719 9.300781 214.363281 21 C 143.664062 39.101562 131.761719 -6.898438 79.363281 0.898438 C 32.5625 7.800781 36.164062 38.898438 22.164062 67.5 C 9.0625 94.101562 -3.4375 111.5 0.863281 144.601562 C 3.261719 163.800781 11.664062 181.902344 29.964844 190.902344" fill="#832b99" fill-rule="evenodd"/></g><g id="change2_1"><path d="M 25.363281 188.300781 C 25.363281 187.699219 25.261719 187 25.0625 186.402344 C 23.964844 182.300781 21.261719 179.101562 18.464844 175.703125 C 13.5625 169.800781 8.0625 163.402344 10.363281 151.101562 C 11.464844 145.203125 14.5625 140.902344 17.5625 136.703125 C 21.363281 131.402344 25.0625 126.203125 24.5625 118.402344 C 24.464844 116.101562 23.464844 113 22.464844 109.601562 C 19.964844 101 16.761719 90 24.261719 85.898438 C 24.464844 85.800781 24.664062 85.699219 24.863281 85.601562 C 26.761719 84.800781 29.0625 85.101562 31.363281 86.300781 C 33.761719 87.601562 36.0625 89.898438 37.863281 93.199219 C 38.261719 94 38.761719 94.800781 39.0625 95.800781 C 41.464844 101.601562 41.464844 106.5 41.464844 111.300781 C 41.464844 114.902344 41.464844 118.5 42.464844 122.402344 C 43.164062 125.300781 44.464844 127.800781 46.164062 129.902344 C 47.863281 132 50.0625 133.800781 52.664062 135.203125 C 54.261719 136.703125 55.761719 138.101562 57.0625 139.601562 C 58.363281 141.101562 59.5625 142.601562 60.5625 144.203125 C 67.0625 154 65.761719 159.800781 64.261719 166.703125 C 63.5625 170.101562 62.761719 173.800781 62.761719 178.402344 C 62.761719 183.5 65.0625 187.300781 68.164062 190.800781 L 69.761719 190.800781 C 66.464844 187.300781 63.964844 183.5 63.964844 178.402344 C 63.964844 174 64.664062 170.300781 65.464844 167 C 66.964844 159.800781 68.261719 153.800781 61.5625 143.601562 C 60.5625 142 59.261719 140.5 57.964844 138.902344 C 56.5625 137.402344 55.0625 135.800781 53.363281 134.300781 L 53.164062 134.300781 C 50.664062 132.902344 48.5625 131.203125 46.964844 129.203125 C 45.363281 127.203125 44.164062 124.800781 43.464844 122.101562 C 42.464844 118.402344 42.464844 114.902344 42.464844 111.300781 C 42.464844 106.402344 42.464844 101.402344 39.964844 95.300781 C 39.5625 94.402344 39.164062 93.5 38.664062 92.601562 C 36.761719 89.101562 34.261719 86.601562 31.761719 85.199219 C 29.164062 83.800781 26.464844 83.5 24.261719 84.398438 C 24.0625 84.5 23.761719 84.601562 23.5625 84.699219 C 15.261719 89.300781 18.664062 100.703125 21.261719 109.800781 C 22.261719 113.203125 23.164062 116.203125 23.261719 118.402344 C 23.761719 125.902344 20.164062 130.800781 16.464844 136 C 13.363281 140.300781 10.164062 144.703125 9.0625 150.800781 C 6.664062 163.601562 12.261719 170.300781 17.363281 176.402344 C 20.164062 179.703125 22.761719 182.800781 23.761719 186.601562 C 23.863281 186.800781 23.863281 187.101562 23.964844 187.300781 C 24.464844 187.800781 24.863281 188.101562 25.363281 188.300781" fill="#e12c9f" fill-rule="evenodd"/></g><g id="change2_2"><path d="M 24.464844 85.101562 C 24.261719 84.800781 23.863281 84.699219 23.5625 84.898438 C 23.261719 85.101562 23.164062 85.5 23.363281 85.800781 C 25.0625 88.800781 26.5625 92.101562 27.863281 95.902344 C 29.164062 99.699219 30.261719 103.800781 31.261719 108.402344 C 34.664062 124.902344 33.664062 131.601562 32.261719 140.703125 C 31.5625 145.101562 30.863281 150.101562 30.464844 157 C 29.863281 168.300781 32.261719 174.703125 34.761719 181.5 C 35.863281 184.402344 37.0625 187.5 37.964844 191 L 39.261719 191 C 38.261719 187.199219 37.0625 184.101562 35.964844 181 C 33.464844 174.300781 31.0625 168.101562 31.664062 157 C 32.0625 150.101562 32.761719 145.203125 33.464844 140.800781 C 34.863281 131.5 35.964844 124.800781 32.464844 108 C 31.464844 103.402344 30.363281 99.199219 29.0625 95.402344 C 27.761719 91.5 26.164062 88.101562 24.464844 85.101562" fill="#e12c9f" fill-rule="evenodd"/></g><g id="change2_3"><path d="M 282.5625 190.902344 C 282.261719 190.203125 282.0625 189.402344 281.863281 188.601562 C 280.261719 182.402344 280.664062 174.402344 282.863281 164.703125 C 283.261719 162 283.464844 159.5 283.261719 157.101562 C 283.164062 154.800781 282.761719 152.703125 282.0625 150.703125 C 280.761719 147 278.5625 144.5 276.261719 141.902344 C 272.863281 138.101562 269.464844 134.300781 268.5625 126.601562 C 268.261719 123.800781 268.363281 121 268.964844 118.101562 C 269.5625 115.203125 270.664062 112.300781 272.261719 109.203125 C 273.0625 107.5 273.664062 105.902344 274.164062 104.203125 C 274.664062 102.5 274.964844 100.800781 275.0625 99.101562 C 275.164062 97 275.0625 94.902344 274.761719 92.800781 C 274.363281 90.699219 273.761719 88.5 272.863281 86.398438 L 272.863281 86.300781 C 271.964844 83.398438 271.5625 80.898438 271.5625 78.800781 C 271.5625 76.398438 272.0625 74.398438 272.863281 73 C 273.761719 71.5 274.964844 70.5 276.464844 70 C 277.0625 69.800781 277.664062 69.699219 278.363281 69.699219 C 281.0625 69.699219 284.261719 71.300781 287.0625 74.800781 C 289.363281 77.699219 291.464844 81.800781 292.863281 87.199219 C 293.464844 89.800781 294.761719 92.199219 296.761719 94.300781 C 298.761719 96.402344 301.464844 98.300781 304.863281 100 C 307.863281 101.203125 310.363281 102.800781 312.5625 104.800781 C 314.761719 106.902344 316.5625 109.300781 318.0625 112.300781 L 318.164062 112.5 C 311.0625 138.601562 304.0625 164.703125 296.964844 190.703125 L 295.464844 190.703125 L 316.5625 112.601562 C 315.261719 109.902344 313.5625 107.703125 311.5625 105.800781 C 309.464844 103.902344 307.0625 102.300781 304.261719 101.203125 C 300.761719 99.5 297.863281 97.5 295.761719 95.199219 C 293.664062 92.902344 292.261719 90.300781 291.5625 87.398438 C 290.261719 82.199219 288.261719 78.199219 286.0625 75.5 C 283.5625 72.398438 280.761719 71 278.464844 71 C 277.964844 71 277.464844 71.101562 277.0625 71.199219 C 275.964844 71.601562 274.964844 72.300781 274.261719 73.5 C 273.5625 74.800781 273.164062 76.5 273.164062 78.601562 C 273.164062 80.601562 273.5625 82.898438 274.363281 85.601562 C 275.261719 87.898438 275.964844 90.101562 276.261719 92.300781 C 276.664062 94.5 276.761719 96.699219 276.664062 98.902344 C 276.5625 100.703125 276.261719 102.5 275.761719 104.300781 C 275.261719 106.101562 274.5625 107.800781 273.761719 109.601562 C 272.261719 112.5 271.164062 115.300781 270.5625 118.101562 C 269.964844 120.800781 269.863281 123.5 270.164062 126.101562 C 271.0625 133.402344 274.363281 137 277.5625 140.601562 C 279.964844 143.300781 282.261719 145.902344 283.664062 149.902344 C 284.363281 152 284.761719 154.203125 284.964844 156.703125 C 285.0625 159.101562 284.964844 161.800781 284.464844 164.601562 L 284.464844 164.703125 C 282.261719 174.203125 281.964844 182 283.464844 187.902344 C 283.664062 188.800781 283.964844 189.699219 284.261719 190.5 L 282.5625 190.5 L 282.5625 190.902344" fill="#e12c9f" fill-rule="evenodd"/></g><g id="change2_4"><path d="M 275.761719 71 C 275.464844 70.699219 274.964844 70.699219 274.664062 70.898438 C 274.363281 71.199219 274.363281 71.699219 274.5625 72 C 282.363281 80.601562 283.5625 91.601562 284.664062 102.601562 C 285.261719 108.203125 285.863281 113.703125 287.261719 119.101562 C 288.664062 124.5 290.964844 129 293.363281 133.5 C 295.363281 137.300781 297.363281 141.203125 298.761719 145.703125 C 300.164062 150 301.261719 154.402344 301.964844 159.101562 C 302.261719 161.300781 302.5625 163.5 302.761719 165.800781 L 303.863281 161.601562 C 303.761719 160.703125 303.664062 159.800781 303.464844 158.902344 C 302.761719 154.203125 301.664062 149.601562 300.164062 145.203125 C 298.664062 140.601562 296.664062 136.703125 294.664062 132.800781 C 292.363281 128.402344 290.0625 124 288.664062 118.703125 C 287.261719 113.402344 286.664062 107.902344 286.0625 102.402344 C 285.0625 91.101562 283.863281 80 275.761719 71" fill="#e12c9f" fill-rule="evenodd"/></g><g id="change2_5"><path d="M 152.164062 190.902344 C 152.261719 190 152.363281 189 152.363281 188.101562 C 152.761719 179.101562 149.464844 171.601562 146.761719 165.203125 C 144.5625 160.101562 142.664062 155.703125 143.164062 151.800781 C 143.761719 147.601562 146.0625 144.101562 148.464844 140.402344 C 152.664062 134 157.261719 126.902344 153.5625 115 C 151.761719 109.300781 148.164062 105.402344 144.761719 101.601562 C 140.363281 96.800781 136.0625 92.101562 135.5625 84.199219 C 135.464844 81.898438 135.964844 78.699219 136.5625 75.199219 C 138.0625 66.5 139.863281 55.601562 132.664062 52.101562 C 131.464844 55.101562 130.464844 58.398438 129.664062 62.101562 C 128.761719 66 128.164062 70.199219 127.761719 74.898438 C 126.261719 91.699219 128.0625 98.199219 130.5625 107.101562 C 131.761719 111.402344 133.0625 116.300781 134.261719 123.101562 C 136.261719 134.300781 134.5625 140.902344 132.863281 147.902344 C 131.761719 152.203125 130.664062 156.703125 130.363281 162.5 C 130.0625 167.101562 130.464844 172.703125 130.863281 178.601562 C 131.164062 182.601562 131.464844 186.800781 131.5625 190.902344 L 130.261719 190.902344 C 130.164062 186.800781 129.863281 182.699219 129.5625 178.703125 C 129.164062 172.703125 128.761719 167.101562 129.0625 162.402344 C 129.464844 156.5 130.5625 151.902344 131.664062 147.601562 C 133.363281 140.703125 134.964844 134.203125 133.0625 123.300781 C 131.863281 116.5 130.5625 111.703125 129.363281 107.402344 C 126.863281 98.402344 125.0625 91.800781 126.5625 74.699219 C 126.964844 70 127.664062 65.699219 128.464844 61.699219 C 129.261719 58 130.363281 54.601562 131.5625 51.5 C 129.5625 50.898438 127.261719 51.5 125.164062 53 C 122.964844 54.601562 120.964844 57.199219 119.5625 60.699219 C 119.261719 61.5 118.863281 62.398438 118.664062 63.398438 C 116.964844 69.5 117.464844 74.398438 118.0625 79.101562 C 118.464844 82.699219 118.964844 86.199219 118.363281 90.199219 C 117.964844 93.101562 117.0625 95.800781 115.5625 98.101562 C 114.164062 100.402344 112.164062 102.402344 109.761719 104.203125 C 108.363281 105.800781 107.0625 107.5 105.863281 109.101562 C 104.761719 110.703125 103.761719 112.402344 102.863281 114 C 97.5625 124.402344 99.5625 130.101562 101.863281 136.800781 C 102.964844 140.101562 104.261719 143.703125 104.761719 148.203125 C 105.5625 155.601562 101.363281 160.800781 96.863281 166.300781 C 94.964844 168.601562 93.0625 170.902344 91.5625 173.5 L 107.464844 190.703125 L 105.863281 190.703125 L 90.164062 173.601562 L 90.363281 173.203125 C 91.964844 170.402344 94.0625 167.902344 96.0625 165.5 C 100.363281 160.203125 104.464844 155.203125 103.664062 148.300781 C 103.164062 143.902344 101.964844 140.402344 100.863281 137.101562 C 98.464844 130.203125 96.464844 124.300781 101.964844 113.402344 C 102.863281 111.703125 103.863281 110 104.964844 108.300781 C 106.164062 106.601562 107.464844 104.902344 108.964844 103.203125 L 108.964844 103.101562 L 109.0625 103.101562 C 111.363281 101.5 113.261719 99.5 114.664062 97.300781 C 116.0625 95.101562 116.863281 92.601562 117.261719 89.898438 C 117.761719 86.101562 117.363281 82.601562 116.964844 79.101562 C 116.363281 74.199219 115.761719 69.199219 117.5625 62.898438 C 117.863281 61.898438 118.164062 61 118.5625 60.101562 C 120.0625 56.398438 122.261719 53.601562 124.5625 51.898438 C 126.964844 50.199219 129.5625 49.601562 131.964844 50.199219 C 132.164062 50.199219 132.261719 50.300781 132.464844 50.398438 C 132.5625 50.398438 132.664062 50.398438 132.664062 50.398438 C 132.761719 50.398438 132.761719 50.5 132.863281 50.5 C 141.363281 54.199219 139.464844 65.800781 137.863281 75.101562 C 137.261719 78.601562 136.761719 81.699219 136.863281 83.898438 C 137.261719 91.402344 141.464844 95.902344 145.664062 100.601562 C 149.261719 104.5 152.863281 108.5 154.761719 114.402344 C 158.664062 126.902344 153.863281 134.101562 149.5625 140.800781 C 147.164062 144.402344 144.964844 147.800781 144.464844 151.703125 C 143.964844 155.300781 145.863281 159.5 147.964844 164.5 C 150.761719 171 154.164062 178.703125 153.664062 187.902344 C 153.664062 188.800781 153.5625 189.800781 153.464844 190.703125 L 152.164062 190.703125 L 152.164062 190.902344" fill="#e12c9f" fill-rule="evenodd"/></g><g id="change2_6"><path d="M 404.363281 112.601562 C 405.964844 131 403.863281 146.101562 397.964844 158 C 392.0625 169.800781 382.464844 178.300781 369.0625 183.601562 L 369.464844 184.5 C 383.0625 179.101562 392.863281 170.402344 398.863281 158.402344 C 404.863281 146.402344 406.964844 131.101562 405.363281 112.5 L 404.363281 112.601562" fill="#e12c9f" fill-rule="evenodd"/></g><g id="change2_7"><path d="M 374.0625 182 C 377.5625 176.5 375.863281 171.300781 372.363281 171.5 C 369.164062 171.601562 366.964844 178.101562 374.0625 182" fill="#e12c9f" fill-rule="evenodd"/></g><g id="change2_8"><path d="M 383.964844 175.902344 C 386.464844 169.902344 383.863281 165.101562 380.464844 165.902344 C 377.363281 166.5 376.363281 173.300781 383.964844 175.902344" fill="#e12c9f" fill-rule="evenodd"/></g><g id="change2_9"><path d="M 392.863281 167 C 394.664062 160.703125 391.464844 156.300781 388.164062 157.402344 C 385.164062 158.601562 384.964844 165.402344 392.863281 167" fill="#e12c9f" fill-rule="evenodd"/></g><g id="change2_10"><path d="M 398.5625 157.703125 C 399.863281 151.300781 396.363281 147.101562 393.164062 148.5 C 390.363281 149.902344 390.664062 156.703125 398.5625 157.703125" fill="#e12c9f" fill-rule="evenodd"/></g><g id="change2_11"><path d="M 402.664062 146.800781 C 402.964844 140.300781 398.863281 136.703125 395.964844 138.601562 C 393.261719 140.300781 394.664062 147 402.664062 146.800781" fill="#e12c9f" fill-rule="evenodd"/></g><g id="change2_12"><path d="M 404.761719 135.5 C 404.261719 129 399.863281 125.902344 397.164062 128.101562 C 394.664062 130.101562 396.761719 136.703125 404.761719 135.5" fill="#e12c9f" fill-rule="evenodd"/></g><g id="change2_13"><path d="M 405.363281 123.800781 C 404.261719 117.402344 399.5625 114.703125 397.0625 117.203125 C 394.761719 119.5 397.5625 125.703125 405.363281 123.800781" fill="#e12c9f" fill-rule="evenodd"/></g><g id="change2_14"><path d="M 404.964844 114.5 C 410.0625 110.601562 407.964844 103.703125 404.464844 103.402344 C 401.261719 103.101562 398.164062 111.101562 404.964844 114.5" fill="#e12c9f" fill-rule="evenodd"/></g><g id="change2_15"><path d="M 405.363281 123.800781 C 406.261719 117.300781 410.964844 114.5 413.464844 116.902344 C 415.761719 119.101562 413.164062 125.5 405.363281 123.800781" fill="#e12c9f" fill-rule="evenodd"/></g><g id="change2_16"><path d="M 404.761719 135.5 C 406.664062 129.300781 411.761719 127.300781 413.863281 130 C 415.761719 132.601562 412.164062 138.5 404.761719 135.5" fill="#e12c9f" fill-rule="evenodd"/></g><g id="change2_17"><path d="M 402.664062 146.800781 C 405.464844 140.902344 410.664062 139.601562 412.464844 142.601562 C 413.964844 145.402344 409.664062 150.703125 402.664062 146.800781" fill="#e12c9f" fill-rule="evenodd"/></g><g id="change2_18"><path d="M 398.5625 157.703125 C 402.863281 152.800781 408.261719 153 409.164062 156.402344 C 409.863281 159.5 404.261719 163.402344 398.5625 157.703125" fill="#e12c9f" fill-rule="evenodd"/></g><g id="change2_19"><path d="M 392.863281 167 C 398.5625 163.703125 403.5625 165.703125 403.261719 169.203125 C 402.964844 172.402344 396.261719 174.300781 392.863281 167" fill="#e12c9f" fill-rule="evenodd"/></g><g id="change2_20"><path d="M 383.964844 175.902344 C 389.964844 173.402344 394.761719 176 393.964844 179.402344 C 393.261719 182.5 386.464844 183.5 383.964844 175.902344" fill="#e12c9f" fill-rule="evenodd"/></g><g id="change2_21"><path d="M 374.0625 182 C 380.464844 180.800781 384.5625 184.402344 383.164062 187.601562 C 381.761719 190.402344 374.863281 189.902344 374.0625 182" fill="#e12c9f" fill-rule="evenodd"/></g><g id="change2_22"><path d="M 168.5625 76.398438 C 162.0625 93.800781 160.0625 109.101562 162.664062 122.101562 C 165.261719 135.101562 172.261719 146 183.863281 154.703125 L 183.261719 155.5 C 171.464844 146.703125 164.261719 135.601562 161.664062 122.402344 C 159.0625 109.203125 161.0625 93.699219 167.5625 76.101562 L 168.5625 76.398438" fill="#e12c9f" fill-rule="evenodd"/></g><g id="change2_23"><path d="M 179.464844 151.703125 C 177.464844 145.402344 180.5625 140.902344 183.863281 142 C 186.964844 143 187.363281 149.902344 179.464844 151.703125" fill="#e12c9f" fill-rule="evenodd"/></g><g id="change2_24"><path d="M 171.5625 143.203125 C 170.761719 136.703125 174.464844 132.703125 177.664062 134.402344 C 180.363281 135.902344 179.5625 142.703125 171.5625 143.203125" fill="#e12c9f" fill-rule="evenodd"/></g><g id="change2_25"><path d="M 165.261719 132.300781 C 165.164062 125.703125 169.464844 122.300781 172.363281 124.300781 C 174.964844 126.101562 173.261719 132.800781 165.261719 132.300781" fill="#e12c9f" fill-rule="evenodd"/></g><g id="change2_26"><path d="M 162.0625 121.703125 C 162.5625 115.101562 166.964844 112 169.761719 114.203125 C 172.261719 116.203125 170.0625 122.800781 162.0625 121.703125" fill="#e12c9f" fill-rule="evenodd"/></g><g id="change2_27"><path d="M 161.0625 110 C 162.5625 103.601562 167.464844 101.203125 169.761719 103.800781 C 171.964844 106.203125 168.761719 112.300781 161.0625 110" fill="#e12c9f" fill-rule="evenodd"/></g><g id="change2_28"><path d="M 162.0625 98.5 C 164.261719 92.300781 169.363281 90.5 171.464844 93.300781 C 173.261719 96 169.464844 101.703125 162.0625 98.5" fill="#e12c9f" fill-rule="evenodd"/></g><g id="change2_29"><path d="M 164.5625 87 C 167.363281 81 172.664062 79.699219 174.363281 82.800781 C 175.964844 85.601562 171.664062 90.898438 164.5625 87" fill="#e12c9f" fill-rule="evenodd"/></g><g id="change2_30"><path d="M 167.464844 78 C 163.5625 72.800781 167.464844 66.699219 170.964844 67.398438 C 174.0625 67.898438 174.964844 76.5 167.464844 78" fill="#e12c9f" fill-rule="evenodd"/></g><g id="change2_31"><path d="M 164.5625 87 C 165.464844 80.5 161.664062 76.5 158.5625 78.199219 C 155.761719 79.699219 156.5625 86.5 164.5625 87" fill="#e12c9f" fill-rule="evenodd"/></g><g id="change2_32"><path d="M 162.0625 98.5 C 161.863281 91.902344 157.464844 88.601562 154.664062 90.800781 C 152.164062 92.699219 154.0625 99.402344 162.0625 98.5" fill="#e12c9f" fill-rule="evenodd"/></g><g id="change2_33"><path d="M 161.0625 110 C 159.964844 103.5 155.164062 100.800781 152.664062 103.300781 C 150.464844 105.601562 153.261719 111.902344 161.0625 110" fill="#e12c9f" fill-rule="evenodd"/></g><g id="change2_34"><path d="M 162.0625 121.703125 C 159.164062 115.800781 153.863281 114.5 152.164062 117.601562 C 150.664062 120.402344 155.0625 125.703125 162.0625 121.703125" fill="#e12c9f" fill-rule="evenodd"/></g><g id="change2_35"><path d="M 165.261719 132.300781 C 160.664062 127.601562 155.164062 128.203125 154.5625 131.601562 C 153.964844 134.800781 159.964844 138.300781 165.261719 132.300781" fill="#e12c9f" fill-rule="evenodd"/></g><g id="change2_36"><path d="M 171.5625 143.203125 C 166.363281 139.203125 161.0625 140.402344 160.863281 143.902344 C 160.664062 147.101562 167.0625 149.902344 171.5625 143.203125" fill="#e12c9f" fill-rule="evenodd"/></g><g id="change2_37"><path d="M 179.464844 151.703125 C 173.5625 148.902344 168.5625 151.203125 169.164062 154.703125 C 169.761719 157.902344 176.5625 159.203125 179.464844 151.703125" fill="#e12c9f" fill-rule="evenodd"/></g><g id="change3_1"><path d="M 313.363281 70.800781 C 316.761719 57 328.261719 50.101562 347.761719 50.101562 C 358.664062 52.898438 357.464844 61.601562 359.261719 69.699219 C 359.964844 72.601562 361.464844 74.898438 363.964844 76.5 C 369.261719 79.898438 377.363281 80 379.863281 88 C 382.0625 94.902344 375.664062 97.5 379.664062 107.203125 C 383.464844 116.300781 391.664062 122.300781 391.863281 134.203125 C 392.0625 143.203125 385.0625 141.703125 384.761719 145.5 C 384.464844 149.101562 391.964844 154.300781 387.261719 160.703125 C 384.363281 164.703125 376.761719 166.601562 364.5625 166.402344 C 323.363281 136 302.761719 120.800781 302.761719 120.800781 C 297.761719 91.902344 316.464844 87.101562 313.363281 70.800781" fill="#4142a1" fill-rule="evenodd"/></g><g id="change4_1"><path d="M 320.464844 187.402344 C 303.5625 182.699219 295.164062 180.300781 295.164062 180.300781 C 295.164062 180.300781 297.164062 165.300781 301.261719 135.402344 C 315.363281 132.300781 322.464844 130.703125 322.464844 130.703125 C 321.0625 168.203125 320.464844 187.101562 320.464844 187.402344" fill="#f2d3b9" fill-rule="evenodd"/></g><g id="change2_38"><path d="M 317.964844 101.300781 C 319.664062 120.203125 317.164062 134.601562 313.363281 142.300781 C 307.5625 142.402344 302.5625 141.5 298.164062 139.703125 C 298.761719 126.703125 300.0625 117.402344 302.164062 111.800781 C 304.863281 103.902344 310.664062 104.902344 317.964844 101.300781" fill="#e12c9f" fill-rule="evenodd"/></g><g id="change5_1"><path d="M 198.863281 176.300781 C 182.664062 165.203125 174.5625 159.601562 174.5625 159.601562 C 176.5625 130 180.863281 110.800781 187.464844 101.902344 C 192.5625 98.902344 196.664062 96.601562 199.863281 95 C 199.164062 149.203125 198.863281 176.300781 198.863281 176.300781" fill="#f9e017" fill-rule="evenodd"/></g><g id="change5_2"><path d="M 254.5625 190.902344 L 245.5625 93.101562 C 237.863281 91.402344 222.164062 93.902344 198.5625 100.800781 C 198.363281 116.800781 185.261719 127.703125 193.164062 144.203125 C 194.664062 149.101562 195.0625 160.902344 194.363281 179.703125 L 192.5625 191 L 254.5625 191 L 254.5625 190.902344" fill="#f9e017" fill-rule="evenodd"/></g><g id="change5_3"><path d="M 252.0625 163.902344 C 268.261719 152.800781 279.363281 177.703125 279.363281 177.703125 C 280.464844 158.101562 268.164062 107.300781 260.964844 102 C 255.863281 99 251.761719 96.699219 248.5625 95.101562 C 249.164062 149.203125 252.0625 163.902344 252.0625 163.902344" fill="#f9e017" fill-rule="evenodd"/></g><path d="M 1958.632812 771.992188 C 1944.648438 735 1930.625 695.976562 1916.640625 651.992188 C 1897.617188 586.992188 1902.617188 525.976562 1930.625 467.96875 C 1935.625 450 1939.648438 425.976562 1942.617188 395" fill="none" stroke="#4142a1" stroke-linecap="round" stroke-linejoin="round" stroke-miterlimit="22.926" stroke-width="5.865" transform="matrix(.1 0 0 -.1 0 191)"/><g id="change4_2"><path d="M 189.761719 137 C 198.5625 139.402344 201.761719 142.101562 202.964844 140.5 C 200.0625 136.5 195.363281 133.601562 188.5625 131.800781 C 181.664062 132.101562 174.363281 134.5 166.5625 139 C 168.664062 144.800781 169.761719 147.703125 169.761719 147.703125 C 171.164062 144.5 175.761719 145.101562 179.863281 144.300781 C 186.664062 143.101562 189.164062 138.300781 189.761719 137" fill="#f2d3b9" fill-rule="evenodd"/></g><g id="change2_39"><path d="M 175.964844 147.101562 C 161.863281 159.703125 139.664062 175.300781 135.0625 174.402344 C 122.964844 167.101562 113.5625 152.300781 102.164062 130.601562 C 102.164062 130.601562 101.261719 121.203125 99.5625 102.5 C 105.863281 104.902344 109.664062 106.601562 115.164062 109.902344 C 118.863281 112.902344 128.0625 125.902344 138.761719 146.5 C 150.863281 141.800781 161.0625 138.300781 169.5625 135.902344 C 171.761719 138.300781 173.863281 142.101562 175.964844 147.101562" fill="#e12c9f" fill-rule="evenodd"/></g><g id="change2_40"><path d="M 359.761719 181.402344 C 341.164062 184.402344 323.964844 184.800781 307.964844 182.601562 C 310.964844 164.402344 311.664062 152.703125 310.164062 147.5 C 305.0625 138.101562 305.464844 127 311.363281 114.101562 C 320.5625 104.203125 325.164062 99.199219 325.164062 99.199219 C 337.0625 97.300781 343.0625 96.300781 343.0625 96.300781 C 349.964844 104.703125 353.363281 108.800781 353.363281 108.800781 C 357.5625 157.203125 359.761719 181.402344 359.761719 181.402344" fill="#e12c9f" fill-rule="evenodd"/></g><g id="change2_41"><path d="M 235.0625 151.5 C 235.0625 155.5 250.164062 148 255.5625 142.703125 C 258.863281 125.402344 254.863281 103.203125 243.5625 76.101562 C 235.363281 87.699219 231.261719 93.5 231.261719 93.5 C 235.664062 112.402344 236.964844 131.703125 235.0625 151.5" fill="#e12c9f" fill-rule="evenodd"/></g><g id="change2_42"><path d="M 244.363281 64.199219 C 244.164062 77.199219 241.964844 86.199219 234.863281 97.402344 C 229.164062 106.402344 222.164062 111.101562 213.761719 111.601562 C 203.664062 111.5 197.464844 106.800781 195.164062 97.5 C 195.0625 95.902344 201.164062 91.699219 202.0625 85.101562 C 202.363281 83.101562 202.164062 81 201.5625 79 C 199.363281 71.101562 198.164062 64.300781 198.761719 58.398438 C 200.363281 42.199219 213.5625 36 224.664062 37.601562 C 235.664062 39.199219 244.664062 48.398438 244.363281 64.199219" fill="#e12c9f" fill-rule="evenodd"/></g><g id="change3_2"><path d="M 117.761719 185.199219 L 177.761719 185.199219 L 177.761719 190.902344 L 117.761719 190.902344 L 117.761719 185.199219" fill="#4142a1" fill-rule="evenodd"/></g><g id="change3_3"><path d="M 78.964844 56.300781 C 88.863281 68.199219 92.464844 80.199219 89.664062 92.300781 C 90.261719 93.300781 96.5625 94.902344 102.261719 94.5 C 104.863281 94.300781 107.5625 93.800781 109.363281 92.601562 C 113.964844 89.398438 109.0625 87 107.5625 83.199219 C 106.363281 80.101562 106.0625 77.300781 106.164062 74.601562 C 106.164062 74.300781 106.164062 74 106.261719 73.699219 C 106.5625 69.601562 107.761719 65.699219 108.164062 61.300781 C 109.664062 45.898438 96.5625 39.398438 83.0625 39.800781 C 69.964844 40.101562 63.863281 44.800781 58.964844 53.101562 C 54.761719 60.300781 51.261719 71 48.363281 85.101562 C 47.5625 93.5 87.0625 99.699219 84.164062 91.101562 C 78.164062 83.699219 76.363281 72.101562 78.964844 56.300781" fill="#4142a1" fill-rule="evenodd"/></g><g id="change4_3"><path d="M 98.5625 103.601562 C 99.5625 112.800781 96.761719 118.800781 90.261719 121.5 C 79.761719 120.402344 75.363281 113.101562 77.0625 99.699219 C 79.664062 96.601562 80.363281 90.601562 78.964844 81.898438 C 89.761719 84.800781 95.164062 86.199219 95.164062 86.199219 C 94.0625 94.699219 95.261719 100.5 98.5625 103.601562" fill="#f2d3b9" fill-rule="evenodd"/></g><g id="change2_43"><path d="M 112.863281 187.699219 C 109.0625 188.902344 105.261719 190 101.664062 190.902344 L 52.261719 190.902344 C 50.261719 166.703125 46.863281 136.402344 55.363281 114.703125 C 57.164062 110.203125 69.261719 108 71.261719 104.203125 C 71.261719 104.203125 76.761719 107.402344 89.5625 115.402344 C 104.0625 117.902344 111.261719 119.101562 111.261719 119.101562 C 119.464844 134.902344 119.464844 146.5 111.164062 154 C 107.863281 158.5 108.464844 169.703125 112.863281 187.699219" fill="#e12c9f" fill-rule="evenodd"/></g><g id="change4_4"><path d="M 69.761719 74.101562 C 74.164062 80.101562 91.0625 98.5 97.863281 89.601562 C 102.964844 82.898438 104.863281 73 104.664062 58.300781 C 97.964844 50.199219 87.5625 46.699219 79.5625 49.199219 C 71.464844 51.800781 66.664062 57.800781 69.761719 74.101562" fill="#f2d3b9" fill-rule="evenodd"/></g><path d="M 796.640625 1061.992188 C 825.625 1033.984375 859.648438 1013.007812 895.625 996.992188" fill="none" stroke="#e12c9f" stroke-linecap="round" stroke-linejoin="round" stroke-miterlimit="22.926" stroke-width="5.865" transform="matrix(.1 0 0 -.1 0 191)"/><g id="change3_4"><path d="M 78.964844 56.300781 C 76.363281 72.101562 78.0625 83.800781 84.164062 91.199219 C 87.164062 99.800781 47.5625 93.601562 48.363281 85.199219 C 51.164062 71.101562 54.761719 60.398438 58.964844 53.199219 C 71.5625 45.101562 86.464844 43.800781 103.964844 49.199219 C 106.0625 51.898438 106.761719 55.800781 105.863281 62.300781 C 100.363281 66.101562 90.863281 60.300781 86.964844 56.5 C 88.5625 58.898438 90.363281 61 92.363281 62.699219 C 86.464844 61.300781 80.464844 58.898438 78.964844 56.300781" fill="#4142a1" fill-rule="evenodd"/></g><g id="change2_44"><path d="M 87.0625 39.699219 C 95.863281 39 107.5625 46.101562 105.761719 49.101562 C 100.164062 40.699219 67.761719 40.300781 71.0625 74.800781 C 64.261719 54.398438 73.964844 40.300781 87.0625 39.699219" fill="#e12c9f" fill-rule="evenodd"/></g><g id="change3_5"><path d="M 87.5625 69.398438 L 87.5625 70.800781 C 87.5625 71.300781 87.0625 71.800781 86.5625 71.699219 C 86.0625 71.699219 85.5625 71.199219 85.5625 70.601562 L 85.5625 69.199219 C 85.5625 68.699219 86.0625 68.199219 86.5625 68.300781 C 87.0625 68.398438 87.5625 68.898438 87.5625 69.398438" fill="#4142a1" fill-rule="evenodd"/></g><path d="M 881.640625 1261.015625 C 870.625 1261.992188 859.648438 1261.992188 849.648438 1258.984375" fill="none" stroke="#4142a1" stroke-linecap="round" stroke-linejoin="round" stroke-miterlimit="22.926" stroke-width="5.865" transform="matrix(.1 0 0 -.1 0 191)"/><g id="change3_6"><path d="M 99.863281 69.398438 L 99.863281 70.800781 C 99.863281 71.300781 100.363281 71.800781 100.863281 71.699219 C 101.363281 71.601562 101.863281 71.199219 101.863281 70.601562 L 101.863281 69.199219 C 101.863281 68.699219 101.363281 68.199219 100.863281 68.300781 C 100.363281 68.398438 99.863281 68.898438 99.863281 69.398438" fill="#4142a1" fill-rule="evenodd"/></g><path d="M 987.617188 1261.015625 C 998.632812 1261.992188 1009.648438 1261.992188 1020.625 1258.984375" fill="none" stroke="#4142a1" stroke-linecap="round" stroke-linejoin="round" stroke-miterlimit="22.926" stroke-width="5.865" transform="matrix(.1 0 0 -.1 0 191)"/><path d="M 954.648438 1238.984375 C 958.632812 1163.007812 959.648438 1123.984375 959.648438 1123.984375 C 929.648438 1123.984375 914.648438 1123.984375 914.648438 1123.984375" fill="none" stroke="#4142a1" stroke-linecap="round" stroke-linejoin="round" stroke-miterlimit="22.926" stroke-width="5.865" transform="matrix(.1 0 0 -.1 0 191)"/><path d="M 958.632812 1085 C 952.617188 1041.992188 894.648438 1033.984375 879.648438 1088.007812 C 909.648438 1081.992188 937.617188 1083.007812 958.632812 1085 Z M 958.632812 1085" fill="none" stroke="#4142a1" stroke-linecap="round" stroke-linejoin="round" stroke-miterlimit="22.926" stroke-width="5.865" transform="matrix(.1 0 0 -.1 0 191)"/><g id="change4_5"><path d="M 131.863281 190.902344 C 128.863281 186.601562 125.863281 183.800781 123.0625 182.5 C 115.964844 181.199219 109.863281 179.902344 104.863281 178.703125 L 94.964844 191 L 131.863281 191 L 131.863281 190.902344" fill="#f2d3b9" fill-rule="evenodd"/></g><g id="change2_45"><path d="M 109.964844 179.203125 C 110.664062 180.402344 107.0625 185.902344 106.0625 191 C 106.0625 191 85.664062 191 44.964844 191 C 38.464844 190.5 32.863281 185.300781 33.0625 181.402344 C 34.664062 135.601562 39.964844 114 49.164062 110.300781 C 56.964844 107 62.0625 105 69.261719 102.902344 C 68.863281 119.203125 64.664062 144.601562 57.464844 168.203125 C 65.5625 167.703125 103.664062 175.5 109.964844 179.203125" fill="#e12c9f" fill-rule="evenodd"/></g><g id="change1_1"><path d="M 231.0625 129.5 L 231.0625 150.300781 L 232.863281 150.300781 C 234.261719 150.300781 235.664062 149.703125 236.5625 148.800781 C 237.5625 147.800781 238.0625 146.5 238.0625 145.101562 L 238.0625 134.800781 C 238.0625 133.402344 237.464844 132 236.5625 131.101562 C 235.5625 130.101562 234.261719 129.601562 232.863281 129.601562 L 231.0625 129.601562 Z M 209.863281 123.203125 L 230.363281 123.203125 C 230.761719 123.203125 231.0625 123.5 231.0625 123.902344 L 231.0625 126.800781 L 232.863281 126.800781 C 235.0625 126.800781 236.964844 127.703125 238.464844 129.101562 C 239.964844 130.5 240.761719 132.5 240.761719 134.703125 L 240.761719 145 C 240.761719 147.203125 239.863281 149.101562 238.464844 150.601562 C 237.0625 152.101562 235.0625 152.902344 232.863281 152.902344 L 230.761719 152.902344 C 230.0625 155 228.0625 156.5 225.664062 156.5 L 214.363281 156.5 C 211.464844 156.5 209.0625 154.101562 209.0625 151.203125 L 209.0625 124 C 209.0625 123.601562 209.464844 123.203125 209.863281 123.203125" fill="#832b99" fill-rule="evenodd"/></g><g id="change3_7"><path d="M 172.761719 149.5 L 228.863281 149.5 L 208.761719 190.902344 L 152.5625 190.902344 L 172.761719 149.5" fill="#4142a1" fill-rule="evenodd"/></g><g id="change4_6"><path d="M 218.761719 86.398438 C 227.761719 86.898438 235.363281 70 234.863281 61.5 C 234.261719 51.898438 227.0625 46.699219 219.863281 46 C 213.863281 45.398438 207.863281 48.101562 205.664062 54 C 204.964844 56 204.664062 58.898438 204.964844 62.199219 C 205.761719 72.5 211.0625 86 218.761719 86.398438" fill="#f2d3b9" fill-rule="evenodd"/></g><path d="M 2235.625 1335 C 2247.617188 1336.015625 2259.648438 1336.015625 2269.648438 1331.992188" fill="none" stroke="#4142a1" stroke-linecap="round" stroke-linejoin="round" stroke-miterlimit="22.926" stroke-width="5.865" transform="matrix(.1 0 0 -.1 0 191)"/><path d="M 2123.632812 1335 C 2111.640625 1336.015625 2100.625 1336.015625 2089.648438 1331.992188" fill="none" stroke="#4142a1" stroke-linecap="round" stroke-linejoin="round" stroke-miterlimit="22.926" stroke-width="5.865" transform="matrix(.1 0 0 -.1 0 191)"/><path d="M 2159.648438 1311.992188 C 2160.625 1231.015625 2160.625 1191.015625 2160.625 1191.015625 C 2192.617188 1191.015625 2208.632812 1191.015625 2208.632812 1191.015625" fill="none" stroke="#4142a1" stroke-linecap="round" stroke-linejoin="round" stroke-miterlimit="22.926" stroke-width="5.865" transform="matrix(.1 0 0 -.1 0 191)"/><path d="M 2164.648438 1133.984375 C 2194.648438 1128.007812 2231.640625 1136.992188 2251.640625 1161.015625" fill="none" stroke="#4142a1" stroke-linecap="round" stroke-linejoin="round" stroke-miterlimit="22.926" stroke-width="5.865" transform="matrix(.1 0 0 -.1 0 191)"/><path d="M 2231.640625 1286.992188 C 2245.625 1295 2262.617188 1295 2281.640625 1286.992188" fill="none" stroke="#4142a1" stroke-linecap="round" stroke-linejoin="round" stroke-miterlimit="22.926" stroke-width="5.865" transform="matrix(.1 0 0 -.1 0 191)"/><path d="M 2127.617188 1283.984375 C 2113.632812 1291.015625 2096.640625 1291.015625 2077.617188 1283.984375" fill="none" stroke="#4142a1" stroke-linecap="round" stroke-linejoin="round" stroke-miterlimit="22.926" stroke-width="5.865" transform="matrix(.1 0 0 -.1 0 191)"/><path d="M 2255.625 1323.984375 C 2280.625 1323.984375 2300.625 1303.007812 2300.625 1278.007812 C 2300.625 1253.007812 2280.625 1231.992188 2255.625 1231.992188 C 2230.625 1231.992188 2210.625 1253.007812 2210.625 1278.007812 C 2211.640625 1303.007812 2231.640625 1323.984375 2255.625 1323.984375 Z M 2255.625 1323.984375" fill="none" stroke="#832b99" stroke-linecap="round" stroke-linejoin="round" stroke-miterlimit="22.926" stroke-width="5.865" transform="matrix(.1 0 0 -.1 0 191)"/><path d="M 2105.625 1323.984375 C 2130.625 1323.984375 2150.625 1303.007812 2150.625 1278.007812 C 2150.625 1253.007812 2130.625 1231.992188 2105.625 1231.992188 C 2080.625 1231.992188 2060.625 1253.007812 2060.625 1278.007812 C 2060.625 1303.007812 2080.625 1323.984375 2105.625 1323.984375 Z M 2105.625 1323.984375" fill="none" stroke="#832b99" stroke-linecap="round" stroke-linejoin="round" stroke-miterlimit="22.926" stroke-width="5.865" transform="matrix(.1 0 0 -.1 0 191)"/><path d="M 2150.625 1278.007812 C 2168.632812 1286.992188 2189.648438 1286.992188 2211.640625 1278.007812" fill="none" stroke="#832b99" stroke-linecap="round" stroke-linejoin="round" stroke-miterlimit="22.926" stroke-width="5.865" transform="matrix(.1 0 0 -.1 0 191)"/><g id="change4_7"><path d="M 343.261719 95.101562 C 341.0625 89.398438 339.164062 83.5 340.664062 74.898438 C 329.261719 84.199219 324.964844 87.699219 324.964844 87.699219 C 325.363281 91.800781 325.363281 95.601562 325.0625 99.300781 C 325.5625 103.5 328.863281 105.300781 332.5625 105 C 337.261719 104.703125 342.5625 101.101562 343.261719 95.101562" fill="#f2d3b9" fill-rule="evenodd"/></g><g id="change5_4"><path d="M 333.964844 130.5 C 327.863281 141.203125 325.664062 147.703125 325.664062 147.703125 C 315.5625 140.402344 308.164062 131 309.464844 104 C 310.5625 103.101562 321.863281 98.699219 325.261719 96.699219 C 325.164062 109.902344 325.761719 119.402344 333.964844 130.5" fill="#f9e017" fill-rule="evenodd"/></g><g id="change3_8"><path d="M 284.261719 165.300781 L 297.164062 165.300781 C 298.261719 165.300781 299.261719 166.203125 299.5625 167.300781 L 304.0625 189.101562 C 304.261719 190 303.863281 190.703125 303.0625 191 L 288.964844 191 C 288.164062 190.703125 287.464844 190 287.261719 189.101562 L 282.761719 167.300781 C 282.5625 166.203125 283.261719 165.300781 284.261719 165.300781" fill="#4142a1" fill-rule="evenodd"/></g><g id="change5_5"><path d="M 89.464844 115.402344 C 89.363281 118.902344 88.664062 124.5 87.664062 131.902344 C 82.363281 131.902344 64.363281 105.5 65.164062 102.800781 C 68.5625 101 74.363281 99.300781 77.863281 98.5 C 81.664062 106.101562 85.5625 111.703125 89.464844 115.402344" fill="#f9e017" fill-rule="evenodd"/></g><g id="change5_6"><path d="M 95.761719 130.902344 C 97.964844 129.5 106.363281 108.300781 105.761719 104.300781 C 102.164062 102.101562 99.0625 101.300781 96.363281 100.5 C 94.664062 106.101562 92.664062 111.101562 89.464844 115.402344 C 91.464844 121.703125 94.464844 128.203125 95.761719 130.902344" fill="#f9e017" fill-rule="evenodd"/></g><g id="change4_8"><path d="M 195.464844 162.601562 C 199.261719 162.601562 201.664062 165.800781 200.761719 169.703125 C 199.863281 173.601562 195.964844 176.800781 192.0625 176.800781 C 188.261719 176.800781 185.863281 173.601562 186.761719 169.703125 C 187.664062 165.703125 191.5625 162.601562 195.464844 162.601562" fill="#f2d3b9" fill-rule="evenodd"/></g><path d="M 1954.648438 283.984375 C 1992.617188 283.984375 2016.640625 251.992188 2007.617188 212.96875 C 1998.632812 173.984375 1959.648438 141.992188 1920.625 141.992188 C 1882.617188 141.992188 1858.632812 173.984375 1867.617188 212.96875 C 1876.640625 252.96875 1915.625 283.984375 1954.648438 283.984375 Z M 1954.648438 283.984375" fill="none" stroke="#4142a1" stroke-linecap="round" stroke-linejoin="round" stroke-miterlimit="22.926" stroke-width="1.267" transform="matrix(.1 0 0 -.1 0 191)"/><g id="change4_9"><path d="M 262.5625 157.203125 C 253.5625 164.101562 251.761719 166.601562 251.761719 166.601562 C 248.164062 162 245.863281 154.902344 241.863281 151.402344 C 238.863281 148.703125 235.0625 150.703125 232.964844 148.902344 C 228.964844 145.5 233.664062 128.402344 236.664062 130.800781 C 237.964844 131.800781 238.5625 138 240.761719 134.902344 C 242.261719 134.902344 243.464844 138.800781 244.464844 142.101562 C 246.863281 144.800781 262.5625 157.203125 262.5625 157.203125" fill="#f2d3b9" fill-rule="evenodd"/></g><g id="change5_7"><path d="M 273.761719 188.101562 C 276.964844 186.699219 278.964844 182.601562 279.363281 177.601562 C 278.5625 162.300781 267.761719 155.601562 249.761719 144.601562 C 245.261719 148.703125 243.664062 152 242.164062 155.101562 C 246.363281 161.902344 262.761719 192.800781 273.761719 188.101562" fill="#f9e017" fill-rule="evenodd"/></g><path d="M 2737.617188 28.984375 C 2769.648438 43.007812 2789.648438 83.984375 2793.632812 133.984375 C 2785.625 286.992188 2677.617188 353.984375 2497.617188 463.984375 C 2452.617188 422.96875 2436.640625 390 2421.640625 358.984375 C 2463.632812 290.976562 2627.617188 -18.007812 2737.617188 28.984375 Z M 2737.617188 28.984375" fill="none" stroke="#f2d3b9" stroke-linecap="round" stroke-linejoin="round" stroke-miterlimit="22.926" stroke-width="1.267" transform="matrix(.1 0 0 -.1 0 191)"/><g id="change4_10"><path d="M 367.761719 125.203125 C 354.261719 130.203125 347.5625 132.703125 347.5625 132.703125 C 347.5625 132.703125 350.363281 157 353.0625 172.203125 C 345.761719 171.300781 310.464844 179.601562 307.5625 176.300781 C 305.0625 174.601562 302.761719 173.402344 300.664062 172.703125 C 300.664062 172.703125 300.863281 173.5 301.164062 175.203125 C 300.5625 178.601562 295.964844 178.203125 291.664062 177.203125 C 287.664062 176.300781 283.5625 173.800781 283.363281 175.703125 C 283.363281 175.703125 283.863281 178.402344 284.863281 184.902344 C 285.261719 188.199219 288.363281 190.902344 295.464844 191 C 295.464844 191 319.0625 191 366.363281 191 C 369.261719 191 370.964844 189.699219 371.761719 187.800781 C 374.164062 182.402344 368.164062 130 367.761719 125.203125" fill="#f2d3b9" fill-rule="evenodd"/></g><g id="change2_46"><path d="M 358.464844 99.199219 C 350.863281 100.402344 346.261719 105.402344 344.664062 114.5 C 345.0625 127.203125 345.964844 136 347.261719 140.800781 C 356.5625 142.5 364.464844 141.703125 371.164062 138.203125 C 369.5625 115.601562 365.363281 102.601562 358.464844 99.199219" fill="#e12c9f" fill-rule="evenodd"/></g><g id="change5_8"><path d="M 331.164062 174.800781 C 336.363281 163.300781 337.863281 146.800781 342.761719 133.601562 C 349.964844 114.300781 360.5625 102 359.761719 99.199219 C 360.164062 97.699219 351.261719 95.699219 343.261719 95.101562 C 340.664062 106.800781 331.363281 117.101562 326.464844 129.203125 C 320.164062 144.800781 318.0625 162.203125 312.863281 177.101562 C 317.464844 176.902344 324.363281 175.902344 331.164062 174.800781" fill="#f9e017" fill-rule="evenodd"/></g><g id="change4_11"><path d="M 328.464844 91.902344 C 323.164062 92.601562 318.261719 84.300781 315.0625 76 C 306.464844 53.800781 321.761719 45.398438 333.164062 51.101562 C 344.164062 56.5 344.261719 66.898438 340.5625 76.398438 C 337.761719 83.398438 333.261719 91.300781 328.464844 91.902344" fill="#f2d3b9" fill-rule="evenodd"/></g><g id="change3_9"><path d="M 311.363281 54.601562 C 309.261719 60.800781 309.964844 66.199219 313.363281 70.800781 C 315.964844 68.398438 317.464844 65.101562 317.964844 61 C 316.664062 57.601562 314.464844 55.5 311.363281 54.601562" fill="#4142a1" fill-rule="evenodd"/></g><g id="change3_10"><path d="M 344.0625 67.398438 C 341.464844 69.601562 340.164062 70.601562 340.164062 70.601562 C 332.761719 65.101562 325.363281 61.898438 317.863281 60.898438 C 315.363281 62 313.464844 61.398438 312.164062 59 C 313.261719 52.800781 317.464844 48.699219 324.761719 46.699219 C 338.664062 47.601562 345.0625 54.5 344.0625 67.398438" fill="#4142a1" fill-rule="evenodd"/></g><path d="M 3440.625 1236.015625 C 3414.648438 1213.984375 3401.640625 1203.984375 3401.640625 1203.984375 C 3327.617188 1258.984375 3253.632812 1291.015625 3178.632812 1301.015625 C 3153.632812 1290 3134.648438 1296.015625 3121.640625 1320 C 3132.617188 1381.992188 3174.648438 1423.007812 3247.617188 1443.007812 C 3386.640625 1433.984375 3450.625 1365 3440.625 1236.015625 Z M 3440.625 1236.015625" fill="none" stroke="#4142a1" stroke-linecap="round" stroke-linejoin="round" stroke-miterlimit="22.926" stroke-width="1.267" transform="matrix(.1 0 0 -.1 0 191)"/><g id="change5_9"><path d="M 310.261719 59.800781 C 315.0625 47.601562 343.761719 54.800781 342.261719 73.898438 C 347.761719 66.601562 352.261719 58.199219 352.464844 50 C 343.363281 39.199219 309.363281 35 310.261719 59.800781" fill="#f9e017" fill-rule="evenodd"/></g><g id="change3_11"><path d="M 327.863281 72.398438 L 328.164062 73.5 C 328.261719 73.898438 328.761719 74.199219 329.164062 74.101562 C 329.5625 74 329.761719 73.5 329.664062 73.101562 L 329.363281 72 C 329.261719 71.601562 328.761719 71.300781 328.363281 71.398438 C 327.964844 71.5 327.664062 72 327.863281 72.398438" fill="#4142a1" fill-rule="evenodd"/></g><path d="M 3262.617188 1221.015625 C 3270.625 1223.984375 3279.648438 1225 3287.617188 1223.984375" fill="none" stroke="#4142a1" stroke-linecap="round" stroke-linejoin="round" stroke-miterlimit="22.926" stroke-width="5.865" transform="matrix(.1 0 0 -.1 0 191)"/><g id="change3_12"><path d="M 318.363281 74.199219 L 318.664062 75.300781 C 318.761719 75.699219 318.5625 76.101562 318.0625 76.199219 C 317.664062 76.199219 317.164062 75.898438 317.0625 75.5 L 316.761719 74.398438 C 316.664062 74 316.863281 73.601562 317.363281 73.5 C 317.761719 73.398438 318.261719 73.699219 318.363281 74.199219" fill="#4142a1" fill-rule="evenodd"/></g><path d="M 3181.640625 1206.015625 C 3172.617188 1205 3164.648438 1203.007812 3156.640625 1198.984375" fill="none" stroke="#4142a1" stroke-linecap="round" stroke-linejoin="round" stroke-miterlimit="22.926" stroke-width="5.865" transform="matrix(.1 0 0 -.1 0 191)"/><path d="M 3211.640625 1193.007812 C 3226.640625 1133.007812 3233.632812 1103.007812 3233.632812 1103.007812 C 3256.640625 1106.992188 3268.632812 1110 3268.632812 1110" fill="none" stroke="#4142a1" stroke-linecap="round" stroke-linejoin="round" stroke-miterlimit="22.926" stroke-width="5.865" transform="matrix(.1 0 0 -.1 0 191)"/><path d="M 3231.640625 1065 C 3256.640625 1025 3316.640625 1038.007812 3305.625 1095 C 3279.648438 1078.007812 3252.617188 1070 3231.640625 1065 Z M 3231.640625 1065" fill="none" stroke="#4142a1" stroke-linecap="round" stroke-linejoin="round" stroke-miterlimit="22.926" stroke-width="5.865" transform="matrix(.1 0 0 -.1 0 191)"/><path d="M 3404.648438 1146.015625 C 3391.640625 1076.992188 3352.617188 1026.992188 3309.648438 1000" fill="none" stroke="#e12c9f" stroke-linecap="round" stroke-linejoin="round" stroke-miterlimit="22.926" stroke-width="5.865" transform="matrix(.1 0 0 -.1 0 191)"/><g id="change4_12"><path d="M 336.761719 70.601562 C 337.664062 74.699219 338.863281 76.601562 340.464844 76.398438 C 348.964844 66.601562 338.0625 59.398438 336.761719 70.601562" fill="#f2d3b9" fill-rule="evenodd"/></g><g id="change3_13"><path d="M 338.164062 66.300781 C 333.164062 56.898438 325.261719 56.300781 316.363281 60.800781 C 320.464844 67.101562 326.164062 70.199219 333.261719 70.101562 C 329.863281 68.898438 327.261719 67.199219 325.664062 65.101562 C 332.664062 67.800781 336.363281 72 337.0625 74.699219 C 336.863281 69.898438 338.164062 66.300781 338.164062 66.300781" fill="#4142a1" fill-rule="evenodd"/></g><path d="M 3418.632812 1235 C 3402.617188 1248.007812 3387.617188 1231.015625 3383.632812 1198.984375" fill="none" stroke="#e12c9f" stroke-linecap="round" stroke-linejoin="round" stroke-miterlimit="22.926" stroke-width="5.865" transform="matrix(.1 0 0 -.1 0 191)"/><path d="M 3392.617188 1228.984375 C 3405.625 1213.984375 3409.648438 1198.007812 3403.632812 1181.992188" fill="none" stroke="#e12c9f" stroke-linecap="round" stroke-linejoin="round" stroke-miterlimit="22.926" stroke-width="5.865" transform="matrix(.1 0 0 -.1 0 191)"/><path d="M 1134.648438 672.96875 C 1185.625 560 1186.640625 468.984375 1137.617188 398.984375" fill="none" stroke="#f9e017" stroke-linecap="round" stroke-linejoin="round" stroke-miterlimit="22.926" stroke-width="5.865" transform="matrix(.1 0 0 -.1 0 191)"/><path d="M 669.648438 651.992188 C 646.640625 503.984375 614.648438 362.96875 573.632812 228.984375 C 785.625 206.992188 960.625 170.976562 1099.648438 118.984375" fill="none" stroke="#f9e017" stroke-linecap="round" stroke-linejoin="round" stroke-miterlimit="22.926" stroke-width="5.865" transform="matrix(.1 0 0 -.1 0 191)"/><path d="M 919.648438 575.976562 C 928.632812 575.976562 935.625 568.984375 935.625 560 C 935.625 550.976562 928.632812 543.984375 919.648438 543.984375 C 910.625 543.984375 903.632812 550.976562 903.632812 560 C 903.632812 568.984375 910.625 575.976562 919.648438 575.976562 Z M 919.648438 575.976562" fill="none" stroke="#f9e017" stroke-linecap="round" stroke-linejoin="round" stroke-miterlimit="22.926" stroke-width="5.865" transform="matrix(.1 0 0 -.1 0 191)"/><path d="M 924.648438 491.992188 C 933.632812 491.992188 940.625 485 940.625 475.976562 C 940.625 466.992188 933.632812 460 924.648438 460 C 915.625 460 908.632812 466.992188 908.632812 475.976562 C 908.632812 485 915.625 491.992188 924.648438 491.992188 Z M 924.648438 491.992188" fill="none" stroke="#f9e017" stroke-linecap="round" stroke-linejoin="round" stroke-miterlimit="22.926" stroke-width="5.865" transform="matrix(.1 0 0 -.1 0 191)"/><path d="M 2786.640625 180 C 2775.625 263.984375 2690.625 350.976562 2532.617188 440.976562 C 2508.632812 455.976562 2496.640625 462.96875 2496.640625 462.96875 C 2467.617188 438.984375 2442.617188 403.984375 2420.625 357.96875 C 2455.625 298.984375 2491.640625 241.992188 2528.632812 186.992188" fill="none" stroke="#4142a1" stroke-linecap="round" stroke-linejoin="round" stroke-miterlimit="22.926" stroke-width="5.865" transform="matrix(.1 0 0 -.1 0 191)"/><path d="M 3293.632812 680.976562 C 3258.632812 607.96875 3231.640625 536.992188 3214.648438 465.976562" fill="none" stroke="#e12c9f" stroke-linecap="round" stroke-linejoin="round" stroke-miterlimit="22.926" stroke-width="5.865" transform="matrix(.1 0 0 -.1 0 191)"/><path d="M 3078.632812 673.984375 C 3061.640625 603.984375 3061.640625 541.992188 3078.632812 490" fill="none" stroke="#f9e017" stroke-linecap="round" stroke-linejoin="round" stroke-miterlimit="22.926" stroke-width="5.865" transform="matrix(.1 0 0 -.1 0 191)"/><path d="M 3454.648438 625 C 3458.632812 576.992188 3464.648438 535.976562 3472.617188 502.96875 C 3489.648438 500 3503.632812 497.96875 3517.617188 496.992188" fill="none" stroke="#f9e017" stroke-linecap="round" stroke-linejoin="round" stroke-miterlimit="22.926" stroke-width="5.865" transform="matrix(.1 0 0 -.1 0 191)"/><path d="M 3006.640625 182.96875 C 3027.617188 175 3054.648438 160.976562 3088.632812 140.976562 C 3105.625 137.96875 3129.648438 137.96875 3160.625 141.992188" fill="none" stroke="#4142a1" stroke-linecap="round" stroke-linejoin="round" stroke-miterlimit="22.926" stroke-width="5.865" transform="matrix(.1 0 0 -.1 0 191)"/><path d="M 2434.648438 1150 C 2416.640625 1055 2380.625 973.984375 2326.640625 903.984375" fill="none" stroke="#4142a1" stroke-linecap="round" stroke-linejoin="round" stroke-miterlimit="22.926" stroke-width="5.865" transform="matrix(.1 0 0 -.1 0 191)"/><path d="M 2350.625 1133.007812 C 2284.648438 1025 2198.632812 970 2093.632812 966.992188" fill="none" stroke="#4142a1" stroke-linecap="round" stroke-linejoin="round" stroke-miterlimit="22.926" stroke-width="5.865" transform="matrix(.1 0 0 -.1 0 191)"/><path d="M 2193.632812 988.007812 C 2142.617188 1005 2102.617188 1041.015625 2075.625 1095" fill="none" stroke="#4142a1" stroke-linecap="round" stroke-linejoin="round" stroke-miterlimit="22.926" stroke-width="5.865" transform="matrix(.1 0 0 -.1 0 191)"/><path d="M 2030.625 885.976562 C 2096.640625 845.976562 2170.625 848.984375 2252.617188 895" fill="none" stroke="#4142a1" stroke-linecap="round" stroke-linejoin="round" stroke-miterlimit="22.926" stroke-width="5.865" transform="matrix(.1 0 0 -.1 0 191)"/><path d="M 2407.617188 1050 C 2449.648438 960 2480.625 860 2499.648438 751.992188" fill="none" stroke="#4142a1" stroke-linecap="round" stroke-linejoin="round" stroke-miterlimit="22.926" stroke-width="5.865" transform="matrix(.1 0 0 -.1 0 191)"/><path d="M 2384.648438 996.992188 C 2400.625 938.984375 2411.640625 886.992188 2416.640625 840.976562" fill="none" stroke="#4142a1" stroke-linecap="round" stroke-linejoin="round" stroke-miterlimit="22.926" stroke-width="5.865" transform="matrix(.1 0 0 -.1 0 191)"/></g></svg>