<?xml version="1.0" encoding="UTF-8"?><svg xmlns="http://www.w3.org/2000/svg" xmlns:xlink="http://www.w3.org/1999/xlink" height="325.0" preserveAspectRatio="xMidYMid meet" version="1.0" viewBox="-0.8 -3.2 406.3 325.0" width="406.3" zoomAndPan="magnify"><defs><clipPath id="a"><path d="M 286 305 L 326 305 L 326 321.820312 L 286 321.820312 Z M 286 305"/></clipPath><clipPath id="b"><path d="M 355 305 L 395 305 L 395 321.820312 L 355 321.820312 Z M 355 305"/></clipPath><clipPath id="c"><path d="M 169 287 L 196 287 L 196 321.820312 L 169 321.820312 Z M 169 287"/></clipPath><clipPath id="d"><path d="M 233 287 L 260 287 L 260 321.820312 L 233 321.820312 Z M 233 287"/></clipPath><clipPath id="e"><path d="M 99 305 L 139 305 L 139 321.820312 L 99 321.820312 Z M 99 305"/></clipPath><clipPath id="f"><path d="M 18 305 L 59 305 L 59 321.820312 L 18 321.820312 Z M 18 305"/></clipPath><clipPath id="g"><path d="M 382 142 L 405.5 142 L 405.5 175 L 382 175 Z M 382 142"/></clipPath></defs><g><g id="change1_1"><path d="M 312.214844 264.25 C 324.375 262.75 330.457031 262.003906 330.457031 262.003906 C 325.457031 290.570312 322.957031 304.855469 322.957031 304.855469 C 324.015625 313.015625 324.546875 317.097656 324.546875 317.097656 C 323.222656 321.363281 294.695312 320.894531 289.449219 318.648438 C 287.601562 317.859375 286.851562 315.113281 290.984375 314.242188 C 296.792969 311.839844 301.046875 309.378906 303.96875 307.429688 C 307.503906 305.074219 309.089844 303.46875 309.128906 303.628906 C 311.183594 277.375 312.214844 264.25 312.214844 264.25" fill="#f2d3b9" fill-rule="evenodd"/></g><g clip-path="url(#a)" id="change2_1"><path d="M 325.914062 318.375 C 325.144531 311.992188 324.078125 306.664062 323.023438 305.351562 C 319.617188 313.070312 313.132812 314.71875 305.609375 315.269531 C 299.1875 315.738281 295.054688 315.074219 293.210938 313.285156 C 292.402344 312.703125 289.632812 313.296875 286.890625 315.363281 C 286.09375 316.472656 286.273438 318.386719 288.367188 319.3125 C 301.484375 322.449219 323.496094 320.878906 325.914062 318.375" fill="#e12c9f" fill-rule="evenodd"/></g><g id="change1_2"><path d="M 368.832031 264.25 C 356.667969 262.75 350.589844 262.003906 350.589844 262.003906 C 355.585938 290.570312 358.085938 304.855469 358.085938 304.855469 C 357.027344 313.015625 356.496094 317.097656 356.496094 317.097656 C 357.824219 321.363281 386.347656 320.894531 391.597656 318.648438 C 393.445312 317.859375 394.195312 315.113281 390.0625 314.242188 C 384.25 311.839844 379.996094 309.378906 377.078125 307.429688 C 373.542969 305.074219 371.957031 303.46875 371.917969 303.628906 C 369.859375 277.375 368.832031 264.25 368.832031 264.25" fill="#f2d3b9" fill-rule="evenodd"/></g><g clip-path="url(#b)" id="change2_2"><path d="M 355.128906 318.375 C 355.902344 311.992188 356.96875 306.664062 358.023438 305.351562 C 361.429688 313.070312 367.910156 314.71875 375.4375 315.269531 C 381.859375 315.738281 385.992188 315.074219 387.832031 313.285156 C 388.644531 312.703125 391.414062 313.296875 394.152344 315.363281 C 394.949219 316.472656 394.773438 318.386719 392.679688 319.3125 C 379.5625 322.449219 357.550781 320.878906 355.128906 318.375" fill="#e12c9f" fill-rule="evenodd"/></g><g id="change3_3"><path d="M 312.738281 159.164062 C 329.730469 147.824219 343.050781 144.433594 343.050781 144.433594 C 340.261719 185.050781 333.140625 291.199219 326.144531 286.648438 C 321.398438 287.28125 316.242188 286.378906 310.671875 283.941406 C 307.390625 265.226562 304.742188 169.179688 312.738281 159.164062" fill="#832b99" fill-rule="evenodd"/></g><g id="change3_4"><path d="M 365.726562 152.871094 C 348.734375 141.53125 337.992188 144.433594 337.992188 144.433594 C 340.785156 185.050781 347.902344 291.199219 354.902344 286.648438 C 359.644531 287.28125 364.804688 286.378906 370.375 283.941406 C 374.65625 225.332031 374.539062 154.722656 365.726562 152.871094" fill="#832b99" fill-rule="evenodd"/></g><g id="change4_1"><path d="M 331.136719 58.191406 C 324.261719 103.59375 323.613281 137.058594 329.195312 158.582031 C 337.582031 161.71875 346.019531 162.195312 354.496094 160.011719 C 363.355469 108.167969 361.421875 73.554688 348.695312 56.175781 C 336.988281 57.519531 331.136719 58.191406 331.136719 58.191406" fill="#f9e017" fill-rule="evenodd"/></g><g id="change1_3"><path d="M 276.203125 153.257812 C 274.988281 150.570312 273.820312 146.921875 272.667969 142.816406 C 269.027344 145.59375 266.707031 146.863281 263.316406 149.0625 C 265.433594 152.128906 267.382812 154.949219 268.785156 157.210938 C 269.152344 157.902344 269.359375 158.226562 269.4375 158.488281 C 271.238281 164.847656 272.851562 169.269531 274.277344 171.757812 C 277.609375 177.574219 288.90625 171.023438 287.566406 165.925781 C 286.6875 162.578125 279.761719 157.105469 277.171875 154.710938 C 276.890625 154.363281 276.558594 153.851562 276.203125 153.257812" fill="#f2d3b9" fill-rule="evenodd"/></g><g id="change1_4"><path d="M 152.683594 153.257812 C 153.898438 150.570312 155.070312 146.921875 156.21875 142.816406 C 159.859375 145.59375 162.183594 146.863281 165.570312 149.0625 C 163.453125 152.128906 161.507812 154.949219 160.101562 157.210938 C 159.734375 157.902344 159.527344 158.226562 159.449219 158.488281 C 157.648438 164.847656 156.035156 169.269531 154.609375 171.757812 C 151.277344 177.574219 139.984375 171.023438 141.320312 165.925781 C 142.203125 162.578125 149.125 157.105469 151.71875 154.710938 C 151.996094 154.363281 152.332031 153.851562 152.683594 153.257812" fill="#f2d3b9" fill-rule="evenodd"/></g><g clip-path="url(#c)" id="change3_1"><path d="M 182.996094 287.582031 C 189.699219 291.527344 193.375 296.085938 194.015625 301.25 C 194.96875 310.910156 195.445312 315.738281 195.445312 315.738281 C 194.589844 320.691406 187.273438 322.132812 180.246094 321.765625 C 174.179688 321.449219 168.121094 319.855469 169.121094 317.167969 C 175.242188 309.6875 178.304688 305.945312 178.304688 305.945312 C 181.433594 293.699219 182.996094 287.582031 182.996094 287.582031" fill="#832b99" fill-rule="evenodd"/></g><g clip-path="url(#d)" id="change3_2"><path d="M 245.890625 287.582031 C 239.1875 291.527344 235.511719 296.085938 234.871094 301.25 C 233.917969 310.910156 233.445312 315.738281 233.445312 315.738281 C 234.296875 320.691406 241.613281 322.132812 248.640625 321.765625 C 254.707031 321.449219 260.765625 319.855469 259.765625 317.167969 C 253.644531 309.6875 250.585938 305.945312 250.585938 305.945312 C 247.453125 293.699219 245.890625 287.582031 245.890625 287.582031" fill="#832b99" fill-rule="evenodd"/></g><g id="change5_2"><path d="M 219.726562 111.148438 C 219.925781 113.738281 220.117188 116.296875 220.308594 118.839844 L 234.15625 128.390625 C 236.152344 132.777344 238.1875 138.261719 240.269531 144.84375 C 247.875 168.898438 250.761719 191.191406 254.460938 216.03125 C 263.984375 266.910156 268.167969 289.28125 268.167969 289.28125 C 266.519531 304.4375 162.367188 304.4375 160.71875 289.28125 C 160.71875 289.28125 164.90625 266.910156 174.429688 216.03125 C 178.050781 191.703125 180.871094 169.808594 188.1875 146.21875 C 190.417969 139.023438 192.597656 133.082031 194.730469 128.390625 L 208.578125 118.839844 C 208.769531 116.296875 208.960938 113.738281 209.160156 111.148438 L 214.445312 114.792969 L 219.726562 111.148438" fill="#4142a1" fill-rule="evenodd"/></g><g id="change2_3"><path d="M 240.6875 57.421875 C 229.742188 56.890625 226.648438 67.75 231.402344 81.972656 C 239.613281 104.960938 249.816406 127.542969 262.011719 149.71875 C 263.640625 151.136719 274.488281 145.425781 274.660156 143.59375 C 270.566406 133.582031 245.046875 60.703125 240.6875 57.421875" fill="#e12c9f" fill-rule="evenodd"/></g><g id="change2_4"><path d="M 188.199219 57.421875 C 199.144531 56.890625 202.238281 67.75 197.484375 81.972656 C 189.277344 104.960938 179.074219 127.542969 166.878906 149.71875 C 165.25 151.136719 154.398438 145.425781 154.226562 143.59375 C 158.320312 133.582031 183.839844 60.703125 188.199219 57.421875" fill="#e12c9f" fill-rule="evenodd"/></g><g id="change1_5"><path d="M 113.171875 264.25 C 101.011719 262.75 94.929688 262.003906 94.929688 262.003906 C 99.929688 290.570312 102.429688 304.855469 102.429688 304.855469 C 101.371094 313.015625 100.839844 317.097656 100.839844 317.097656 C 102.164062 321.363281 130.691406 320.894531 135.9375 318.648438 C 137.785156 317.859375 138.535156 315.113281 134.402344 314.242188 C 128.59375 311.839844 124.339844 309.378906 121.421875 307.429688 C 117.882812 305.074219 116.296875 303.46875 116.257812 303.628906 C 114.203125 277.375 113.171875 264.25 113.171875 264.25" fill="#f2d3b9" fill-rule="evenodd"/></g><g id="change1_6"><path d="M 44.492188 264.25 C 56.65625 262.75 62.738281 262.003906 62.738281 262.003906 C 57.738281 290.570312 55.238281 304.855469 55.238281 304.855469 C 56.296875 313.015625 56.828125 317.097656 56.828125 317.097656 C 55.503906 321.363281 26.976562 320.894531 21.730469 318.648438 C 19.882812 317.859375 19.132812 315.113281 23.265625 314.242188 C 29.074219 311.839844 33.328125 309.378906 36.246094 307.429688 C 39.785156 305.074219 41.367188 303.46875 41.410156 303.628906 C 43.464844 277.375 44.492188 264.25 44.492188 264.25" fill="#f2d3b9" fill-rule="evenodd"/></g><g id="change2_5"><path d="M 50.289062 146.507812 C 67.652344 146.285156 78.398438 151.726562 82.53125 162.832031 C 71.105469 243.640625 65.390625 284.042969 65.390625 284.042969 C 59.832031 287.597656 34.667969 284.058594 31.519531 279.554688 C 44.035156 190.859375 50.289062 146.507812 50.289062 146.507812" fill="#e12c9f" fill-rule="evenodd"/></g><g id="change2_6"><path d="M 107.378906 146.507812 C 90.015625 146.285156 79.269531 151.726562 75.136719 162.832031 C 86.5625 243.640625 92.277344 284.042969 92.277344 284.042969 C 97.832031 287.597656 123 284.058594 126.148438 279.554688 C 113.632812 190.859375 107.378906 146.507812 107.378906 146.507812" fill="#e12c9f" fill-rule="evenodd"/></g><g clip-path="url(#e)" id="change5_7"><path d="M 99.46875 318.375 C 100.242188 311.992188 101.308594 306.664062 102.363281 305.351562 C 105.769531 313.070312 112.253906 314.71875 119.777344 315.269531 C 126.199219 315.738281 130.335938 315.074219 132.175781 313.285156 C 132.984375 312.703125 135.753906 313.296875 138.496094 315.363281 C 139.292969 316.472656 139.113281 318.386719 137.019531 319.3125 C 123.902344 322.449219 101.890625 320.878906 99.46875 318.375" fill="#4142a1" fill-rule="evenodd"/></g><path d="M 700.585938 1402.10625 C 750.78125 1347.653125 810.273438 1308.551562 879.140625 1284.7625" fill="none" stroke="#f9e017" stroke-linecap="round" stroke-linejoin="round" stroke-miterlimit="22.926" stroke-width="8.187" transform="matrix(.1 0 0 -.1 0 321.82)"/><g id="change1_7"><path d="M 142.765625 152.609375 C 141.992188 149.761719 141.414062 145.972656 140.929688 141.738281 C 136.894531 143.902344 134.402344 144.789062 130.707031 146.421875 C 132.3125 149.785156 133.785156 152.878906 134.8125 155.335938 C 135.066406 156.074219 135.21875 156.429688 135.253906 156.699219 C 136.023438 163.261719 136.914062 167.886719 137.929688 170.566406 C 140.296875 176.839844 152.484375 172.164062 151.972656 166.917969 C 151.636719 163.472656 145.667969 156.96875 143.488281 154.195312 C 143.269531 153.808594 143.019531 153.246094 142.765625 152.609375" fill="#f2d3b9" fill-rule="evenodd"/></g><g id="change1_8"><path d="M 14.90625 152.609375 C 15.675781 149.761719 16.253906 145.972656 16.738281 141.738281 C 20.773438 143.902344 23.265625 144.789062 26.960938 146.421875 C 25.355469 149.785156 23.882812 152.878906 22.855469 155.335938 C 22.261719 157.078125 22.210938 156.667969 22.980469 158.125 C 24.320312 160.648438 24.484375 161.46875 25.246094 164.378906 C 26.351562 168.589844 25.792969 167.53125 28.230469 170.992188 C 28.816406 171.820312 27.867188 172.230469 27.328125 172.269531 C 25.828125 172.378906 24.671875 171.628906 23.988281 170.429688 L 22.820312 168.363281 C 22.507812 167.835938 21.953125 166.757812 21.222656 166.507812 C 20.25 166.171875 18.910156 167.265625 18.589844 167.972656 C 17.550781 170.242188 17.007812 172.785156 16.195312 175.109375 C 16.03125 175.570312 16.046875 175.761719 15.902344 176.1875 C 15.777344 176.546875 15.613281 176.945312 15.511719 177.308594 C 15.238281 178.265625 14.449219 181.9375 12.929688 181.199219 C 12.042969 180.769531 12.84375 177.847656 13.097656 176.839844 C 13.519531 175.175781 13.992188 172.839844 14.140625 171.167969 C 14.214844 170.371094 14.21875 170.082031 13.796875 169.632812 C 13.226562 169.863281 12.910156 170.261719 12.496094 170.789062 C 12.109375 171.277344 11.761719 171.8125 11.421875 172.300781 C 10.402344 173.773438 8.277344 177.121094 7.128906 178.585938 C 5.636719 180.488281 4.453125 179.203125 4.707031 178.460938 C 5.152344 177.171875 9.566406 170.5625 10.277344 168.496094 C 10.339844 168.324219 10.257812 168.414062 10.328125 168.144531 C 9.882812 168.03125 9.492188 168.476562 9.054688 168.910156 C 7.863281 170.089844 6.484375 171.746094 5.253906 172.941406 C 5.058594 173.136719 4.886719 173.332031 4.714844 173.519531 C 3.855469 174.445312 2.621094 176.375 1.828125 174.980469 C 1.394531 174.222656 2.246094 173.097656 2.652344 172.558594 C 3.507812 171.429688 4.613281 170.050781 5.574219 169.089844 L 7.613281 166.859375 C 8.09375 166.335938 9.695312 164.753906 8.730469 164.421875 C 8.210938 164.242188 7.070312 165.039062 6.640625 165.316406 C 5.859375 165.8125 5.601562 166.035156 4.726562 166.453125 C 4.484375 166.570312 4.433594 166.621094 4.214844 166.757812 L 2.707031 167.496094 C -0.171875 168.902344 -0.796875 167.304688 1.039062 165.875 C 2.042969 165.09375 3.019531 164.75 4.296875 163.886719 C 7.167969 161.9375 7.113281 161.488281 9.210938 159.445312 L 13.449219 155.070312 C 13.636719 154.878906 13.730469 154.800781 13.921875 154.578125 C 14.195312 154.261719 14.542969 153.515625 14.90625 152.609375" fill="#f2d3b9" fill-rule="evenodd"/></g><g id="change3_5"><path d="M 40.90625 162.023438 C 41.160156 166.449219 60.171875 170.019531 78.835938 169.90625 C 97.5 170.019531 116.507812 166.449219 116.765625 162.023438 C 111.40625 136.976562 104.46875 105.550781 95.953125 67.75 C 93.609375 62.566406 87.996094 57.769531 79.113281 53.359375 L 79.089844 53.097656 L 78.835938 53.222656 L 78.578125 53.097656 L 78.554688 53.359375 C 69.675781 57.769531 64.0625 62.566406 61.71875 67.75 C 53.203125 105.550781 46.265625 136.976562 40.90625 162.023438" fill="#832b99" fill-rule="evenodd"/></g><g id="change3_6"><path d="M 66.410156 53.464844 C 57.910156 75.230469 53.65625 86.113281 53.65625 86.113281 C 46.5 116.992188 40.175781 138.757812 34.679688 151.414062 C 29.617188 154.683594 8.839844 146.726562 8.460938 142.84375 C 27.652344 95.175781 40.507812 68.511719 47.027344 62.851562 C 55.570312 58.578125 62.03125 55.449219 66.410156 53.464844" fill="#832b99" fill-rule="evenodd"/></g><g id="change3_7"><path d="M 91.257812 53.464844 C 99.761719 75.230469 104.011719 86.113281 104.011719 86.113281 C 111.167969 116.992188 117.496094 138.757812 122.988281 151.414062 C 128.050781 154.683594 148.832031 146.726562 149.210938 142.84375 C 130.015625 95.175781 117.160156 68.511719 110.644531 62.851562 C 102.101562 58.578125 95.640625 55.449219 91.257812 53.464844" fill="#832b99" fill-rule="evenodd"/></g><g clip-path="url(#f)" id="change5_1"><path d="M 58.199219 318.375 C 57.425781 311.992188 56.359375 306.664062 55.304688 305.351562 C 51.898438 313.070312 45.414062 314.71875 37.890625 315.269531 C 31.464844 315.738281 27.332031 315.074219 25.492188 313.285156 C 24.683594 312.703125 21.914062 313.296875 19.171875 315.363281 C 18.375 316.472656 18.550781 318.386719 20.648438 319.3125 C 33.765625 322.449219 55.777344 320.878906 58.199219 318.375" fill="#4142a1" fill-rule="evenodd"/></g><g id="change1_9"><path d="M 68.785156 45.808594 L 70.367188 31.015625 L 88.304688 30.863281 L 89.394531 45.808594 L 79.089844 75.328125 L 68.785156 45.808594" fill="#f2d3b9" fill-rule="evenodd"/></g><g id="change5_3"><path d="M 78.835938 41.820312 C 75.261719 42.089844 71.488281 39.847656 71.488281 39.847656 C 74.621094 79.011719 75.777344 102.203125 74.957031 109.429688 C 66.957031 112.160156 57.773438 112.160156 47.410156 109.429688 C 48.777344 41.015625 53.882812 2.441406 78.835938 10.667969 C 103.785156 2.441406 108.890625 41.015625 110.257812 109.429688 C 99.894531 112.160156 90.710938 112.160156 82.710938 109.429688 C 81.890625 102.203125 83.046875 79.011719 86.179688 39.847656 C 86.179688 39.847656 82.40625 42.089844 78.835938 41.820312" fill="#4142a1" fill-rule="evenodd"/></g><g id="change1_10"><path d="M 90.566406 27.605469 C 88.914062 56.449219 71.035156 58.429688 67.101562 27.808594 C 74.515625 27.601562 82.335938 27.53125 90.566406 27.605469" fill="#f2d3b9" fill-rule="evenodd"/></g><g id="change2_7"><path d="M 214.625 55.035156 L 214.671875 55.285156 L 230.789062 65.035156 C 236.609375 78.019531 239.328125 84.683594 238.953125 85.03125 C 238.269531 105.257812 228.695312 94.523438 237.933594 135.230469 C 237.578125 140.707031 219.488281 142.167969 214.445312 142.0625 C 209.066406 142.171875 191.304688 140.574219 190.957031 135.230469 C 200.195312 94.523438 190.621094 105.257812 189.9375 85.03125 C 189.558594 84.683594 192.277344 78.019531 198.097656 65.035156 L 214.214844 55.285156 L 214.261719 55.035156 L 214.445312 55.144531 L 214.625 55.035156" fill="#e12c9f" fill-rule="evenodd"/></g><g id="change3_8"><path d="M 240.6875 57.421875 C 232.53125 49.367188 226.472656 48.398438 229.5 38.152344 C 231.539062 31.246094 232.125 25.601562 231.253906 21.21875 C 228.117188 5.429688 198.613281 4.582031 196.824219 25.570312 C 196.550781 28.8125 196.921875 32.46875 197.9375 36.542969 C 201.464844 50.640625 201.507812 45.773438 188.199219 57.421875 C 188.808594 78.5625 233.324219 85.210938 240.6875 57.421875" fill="#832b99" fill-rule="evenodd"/></g><g id="change1_11"><path d="M 204.195312 25.328125 C 206.660156 19.710938 222.5 19.140625 224.859375 26.183594 C 225.445312 37.085938 220.25 48.152344 214.945312 48.589844 C 209.132812 49.066406 202.726562 36.554688 204.195312 25.328125" fill="#f2d3b9" fill-rule="evenodd"/></g><g id="change5_4"><path d="M 204.195312 25.328125 C 206.660156 19.710938 222.496094 19.140625 224.859375 26.183594 C 224.9375 27.605469 224.914062 29.03125 224.804688 30.4375 C 220.429688 24.789062 208.644531 24.59375 204.007812 29.816406 C 203.945312 28.320312 204 26.8125 204.195312 25.328125" fill="#4142a1" fill-rule="evenodd"/></g><g id="change1_12"><path d="M 286.074219 153.070312 C 287.097656 150.210938 288.007812 146.414062 288.859375 142.175781 C 292.714844 144.277344 295.132812 145.125 298.691406 146.699219 C 296.789062 150.089844 295.042969 153.207031 293.800781 155.675781 C 293.484375 156.421875 293.296875 156.777344 293.238281 157.050781 C 291.894531 163.621094 290.597656 168.257812 289.347656 170.953125 C 286.429688 177.261719 274.632812 172.769531 275.605469 167.515625 C 276.242188 164.066406 282.785156 157.472656 285.210938 154.667969 C 285.464844 154.277344 285.765625 153.714844 286.074219 153.070312" fill="#f2d3b9" fill-rule="evenodd"/></g><g clip-path="url(#g)" id="change1_15"><path d="M 394.96875 153.070312 C 393.949219 150.210938 393.039062 146.414062 392.183594 142.175781 C 388.332031 144.277344 385.914062 145.125 382.355469 146.699219 C 384.257812 150.089844 386.003906 153.207031 387.246094 155.675781 C 387.5625 156.421875 387.746094 156.777344 387.808594 157.050781 C 389.152344 163.621094 390.445312 168.257812 391.695312 170.953125 C 394.613281 177.261719 406.414062 172.769531 405.441406 167.515625 C 404.804688 164.066406 398.257812 157.472656 395.835938 154.667969 C 395.578125 154.277344 395.28125 153.714844 394.96875 153.070312" fill="#f2d3b9" fill-rule="evenodd"/></g><g id="change3_9"><path d="M 339.402344 51.867188 C 342.800781 50.234375 344.5 49.417969 344.5 49.417969 C 358.371094 54.886719 366.554688 51.179688 370.570312 45.65625 C 372.617188 42.839844 373.585938 39.550781 373.675781 36.765625 C 373.914062 29.109375 369.015625 31.699219 366.757812 26.089844 C 365.003906 21.730469 368.65625 16.734375 363.996094 13.191406 C 360.609375 10.613281 356.179688 11.707031 352.332031 9.570312 C 350.113281 8.34375 349.699219 6.652344 349.269531 5.019531 C 347.109375 -3.191406 337.324219 -0.105469 333.484375 5.546875 C 328.453125 13.277344 323.675781 8.253906 317.53125 10.117188 C 311.023438 12.09375 311.007812 18.304688 313.835938 23.582031 C 314.941406 25.636719 316.089844 27.574219 315.996094 29.628906 C 315.789062 34.269531 311.082031 34.007812 309.746094 38.671875 C 309.109375 40.886719 309.457031 43.011719 310.34375 44.914062 C 315.449219 55.867188 329.6875 54.398438 339.402344 51.867188" fill="#832b99" fill-rule="evenodd"/></g><g id="change4_2"><path d="M 326.136719 60.84375 C 321.851562 87.644531 319.707031 101.042969 319.707031 101.042969 C 314.699219 139.214844 308.296875 163.992188 303.644531 163.777344 C 293.089844 159.070312 287.117188 153.132812 282.570312 144.507812 C 294.859375 104.105469 305.949219 72.226562 313.046875 67.191406 C 315.554688 65.363281 320.261719 64.148438 326.136719 60.84375" fill="#f9e017" fill-rule="evenodd"/></g><g id="change4_3"><path d="M 354.910156 60.84375 C 359.195312 87.644531 361.335938 101.042969 361.335938 101.042969 C 366.34375 139.214844 372.75 163.992188 377.402344 163.777344 C 387.953125 159.070312 393.929688 153.132812 398.476562 144.507812 C 386.1875 104.105469 375.097656 72.226562 368 67.191406 C 365.492188 65.363281 360.785156 64.148438 354.910156 60.84375" fill="#f9e017" fill-rule="evenodd"/></g><g id="change1_13"><path d="M 349.910156 58.296875 C 349.167969 70.75 331.519531 71.023438 331.136719 58.191406 C 333.621094 56.019531 334.199219 51.394531 332.871094 44.316406 C 332.871094 44.316406 338.242188 43.773438 348.992188 42.6875 C 347.917969 48.285156 346.796875 54.339844 349.910156 58.296875" fill="#f2d3b9" fill-rule="evenodd"/></g><g id="change1_14"><path d="M 326.667969 26.246094 C 329.65625 19.433594 348.863281 18.746094 351.730469 27.28125 C 351.851562 29.53125 351.769531 31.789062 351.515625 33.988281 C 355.152344 25.289062 358.558594 40.808594 350.328125 40.191406 L 350.328125 40.1875 C 348.1875 48.070312 343.976562 54.105469 339.707031 54.457031 C 332.65625 55.035156 324.886719 39.859375 326.667969 26.246094" fill="#f2d3b9" fill-rule="evenodd"/></g><g id="change3_10"><path d="M 329.097656 18.8125 C 347.957031 13.558594 354.9375 18.394531 351.515625 33.988281 C 339.769531 39.683594 341.695312 25.425781 335.75 23.734375 C 332.515625 22.816406 327.410156 25.042969 326.507812 27.761719 C 324.902344 23.523438 325.765625 20.539062 329.097656 18.8125" fill="#832b99" fill-rule="evenodd"/></g><g id="change5_5"><path d="M 322.566406 61.96875 C 329.324219 57.964844 332.703125 55.964844 332.703125 55.964844 C 332.0625 57.457031 332.296875 60.203125 332.785156 64.199219 C 335.082031 82.980469 342.09375 190.398438 338.683594 196.234375 C 334.390625 198.109375 313.4375 188.722656 311.34375 183.992188 C 315.605469 105.019531 319.34375 64.34375 322.566406 61.96875" fill="#4142a1" fill-rule="evenodd"/></g><g id="change5_6"><path d="M 358.835938 62.179688 L 348.695312 56.175781 C 349.335938 57.664062 349.101562 60.414062 348.613281 64.40625 C 346.929688 78.1875 342.703125 139.691406 341.921875 173.769531 C 342.675781 176.507812 366.109375 164.273438 368.703125 160.109375 C 364.996094 96.941406 361.707031 64.296875 358.835938 62.179688" fill="#4142a1" fill-rule="evenodd"/></g><g id="change2_8"><path d="M 326.507812 27.761719 C 327.621094 15.097656 350.847656 11.894531 351.515625 33.988281 C 352.058594 32.941406 352.328125 32.421875 352.328125 32.421875 C 353.484375 6.9375 324.992188 9.6875 326.507812 27.761719" fill="#e12c9f" fill-rule="evenodd"/></g></g></svg>